<svg width="34" height="41" viewBox="0 0 34 41" fill="none" xmlns="http://www.w3.org/2000/svg">
<path d="M16.3804 0C13.5109 0 11.1196 2.41176 11.1196 5.30588C11.1196 8.2 13.5109 10.6118 16.3804 10.6118C19.25 10.6118 21.6413 8.2 21.6413 5.30588C22.1196 2.41176 19.7283 0 16.3804 0ZM16.3804 2.41176C18.2935 2.41176 19.25 3.85882 19.25 5.30588C19.25 6.75294 17.8152 8.2 16.3804 8.2C14.9457 8.2 13.5109 6.75294 13.5109 5.30588C13.5109 3.85882 14.9457 2.41176 16.3804 2.41176ZM3.46739 4.82353C2.51087 4.82353 1.55435 5.30588 1.07609 5.78824C-0.358696 7.23529 -0.358696 9.16471 1.07609 10.6118L8.25 17.8471V28.9412V39.5529C8.25 40.0353 8.72826 41 9.68478 41H13.9891C14.4674 41 15.4239 40.5176 15.4239 39.5529V30.3882H17.8152V39.5529C17.8152 40.0353 18.2935 41 19.25 41H23.5544C24.0326 41 24.9891 40.5176 24.9891 39.5529V29.4235V17.8471L32.163 10.6118C33.5978 9.16471 33.5978 7.23529 32.163 5.78824C31.2065 5.30588 30.7283 4.82353 29.7717 4.82353C28.8152 4.82353 27.8587 5.30588 27.3804 5.78824L21.163 12.5412H12.0761L5.8587 5.78824C4.90217 5.30588 4.42391 4.82353 3.46739 4.82353ZM3.46739 7.71765H3.94565L10.6413 14.4706C10.6413 14.4706 11.1196 14.9529 11.5978 14.9529H21.6413C22.1196 14.9529 22.1196 14.9529 22.5978 14.4706L29.2935 7.71765H29.7717H30.25C30.7283 8.2 30.7283 8.68235 30.25 8.68235L23.0761 15.9176C22.5978 15.9176 22.5978 16.4 22.5978 16.8824V28.9412V38.1059H20.2065V29.4235C20.2065 28.9412 19.7283 27.9765 18.7717 27.9765H13.9891C13.5109 27.9765 12.5543 28.4588 12.5543 29.4235V38.5882H10.6413V29.4235V17.3647C10.6413 16.8824 10.6413 16.4 10.163 16.4L2.98913 8.68235C2.51087 8.2 2.51087 7.71765 2.98913 7.71765C2.98913 7.71765 2.98913 7.71765 3.46739 7.71765Z" fill="#39AFD1"/>
</svg>
