<svg width="36" height="36" viewBox="0 0 36 36" fill="none" xmlns="http://www.w3.org/2000/svg">
<path d="M0.0103424 35.9457C-0.094134 33.8039 0.590767 31.993 2.16372 30.5477C2.33204 30.391 2.36106 30.2981 2.23337 30.095C1.52525 29.0154 1.17119 27.8255 1.16539 26.537C1.16539 25.231 1.16539 23.9251 1.16539 22.6191C1.17119 18.9218 4.3345 15.9733 8.026 16.2519C9.30294 16.3505 10.4464 16.8033 11.4621 17.5927C11.5608 17.6681 11.6537 17.7436 11.7755 17.8364C11.8452 17.6971 11.9032 17.5868 11.9613 17.4766C12.2689 16.8903 12.7274 16.4608 13.3253 16.1822C13.749 15.9849 14.0856 15.7411 14.3526 15.3174C14.9505 14.3655 15.8675 13.9186 16.9936 13.9128C17.8642 13.907 18.7348 13.8953 19.6055 13.9128C21.6892 13.9534 23.1577 14.9459 24.0283 16.8323C24.0631 16.9019 24.0922 16.9716 24.156 17.1051C24.4056 16.9542 24.6668 16.8497 24.8641 16.6698C26.6286 15.062 28.6079 14.6383 30.8425 15.5147C30.9354 15.5496 31.0863 15.5612 31.1559 15.5089C32.2181 14.7079 33.7736 15.1142 34.6443 15.7933C35.9096 16.7859 36.3275 18.3936 35.7355 20.0653C35.4162 20.9649 34.8764 21.7021 34.1045 22.2709C34.0348 22.3231 33.971 22.3753 33.8781 22.4508C34.7023 23.1705 35.068 24.047 34.7023 25.0975C34.3425 26.1365 33.5473 26.6241 32.4561 26.6937C32.2645 27.4657 31.8408 28.0809 31.1733 28.5278C30.9876 28.6497 31.1385 29.0676 31.3997 29.1547C32.1252 29.3869 32.7927 29.7293 33.4022 30.1821C35.1492 31.4822 36.1592 33.7284 35.9676 35.9399C23.9935 35.9457 12.0193 35.9457 0.0103424 35.9457ZM11.6304 34.7848C15.8908 34.7848 20.1279 34.7848 24.365 34.7848C24.5333 32.4747 23.8135 30.5361 22.0549 28.9632C21.7472 29.6655 21.4628 30.3214 21.1668 30.9888C21.0507 30.925 20.9753 30.8844 20.8998 30.8379C20.006 30.3039 19.1063 29.77 18.2183 29.2244C18.0557 29.1257 17.9338 29.1257 17.7713 29.2244C16.8833 29.77 15.9836 30.3039 15.0898 30.8379C15.0085 30.8844 14.9272 30.925 14.8228 30.983C14.5268 30.2981 14.2365 29.6423 13.9347 28.9574C12.176 30.5477 11.4621 32.4805 11.6304 34.7848ZM2.32624 24.5868C2.32624 25.2717 2.31463 25.9624 2.32624 26.6473C2.34365 27.6688 2.63967 28.6033 3.19107 29.4681C3.30715 29.6481 3.40583 29.6713 3.58576 29.5726C3.81212 29.4507 4.0501 29.323 4.29968 29.265C4.70598 29.1721 4.94395 28.9516 5.10066 28.5627C5.18192 28.3537 5.19934 28.2434 5.00199 28.0867C4.00366 27.2741 3.5045 26.212 3.48708 24.9292C3.47548 24.2211 3.48128 23.5188 3.48708 22.8107C3.49289 21.3132 4.3345 20.1697 5.76235 19.6996C5.97711 19.6299 6.08739 19.6648 6.20928 19.8505C6.91159 20.9301 7.89251 21.5686 9.18105 21.7717C10.4115 21.9691 11.3634 22.8919 11.555 24.1224C11.7988 25.7012 11.3344 27.042 10.0981 28.0925C10.0227 28.1564 9.91819 28.2376 9.90658 28.3247C9.88336 28.5337 10.3187 29.0851 10.5218 29.1663C10.8527 29.294 11.1893 29.4217 11.5086 29.5784C11.7001 29.6713 11.7988 29.6423 11.9032 29.4681C12.3095 28.8181 12.6346 28.1274 12.6868 27.367C12.7565 26.3571 12.7391 25.3413 12.7681 24.3256C12.7739 24.134 12.7216 24.0179 12.5591 23.8961C11.6479 23.217 11.346 22.0851 11.822 21.081C11.9381 20.8372 11.9845 20.6225 11.8974 20.3671C11.822 20.1407 11.793 19.8969 11.7117 19.6648C11.6537 19.4964 11.5724 19.3223 11.4563 19.1946C10.2084 17.8132 8.65867 17.2096 6.80131 17.4592C4.27066 17.8016 2.33204 20.0072 2.31463 22.5553C2.32043 23.2344 2.32624 23.9135 2.32624 24.5868ZM24.4404 21.9458C24.7829 20.7792 25.5838 20.0188 26.826 19.7518C26.7795 19.3513 26.7273 18.9741 26.6808 18.5794C27.0988 18.5794 27.4702 18.5794 27.8301 18.5794C27.8765 18.8638 27.8997 19.1366 27.9636 19.3978C28.3931 21.0636 29.908 22.1548 31.6203 22.0329C33.2571 21.9168 34.6036 20.6051 34.8068 18.9334C34.9867 17.4592 33.8781 16.188 32.4619 16.2403C31.9163 16.2577 31.4403 16.6756 31.3533 17.2154C31.2662 17.7494 31.5854 18.3008 32.0962 18.4865C32.2181 18.5329 32.3516 18.5562 32.4967 18.5968C32.4967 18.7825 32.4967 18.9683 32.4967 19.1482C32.4967 19.3339 32.4967 19.5255 32.4967 19.7054C31.864 19.7228 31.2198 19.45 30.7961 18.9799C30.1634 18.2776 30.0299 17.465 30.3085 16.5827C30.2679 16.5537 30.2447 16.5363 30.2156 16.5247C30.1518 16.5015 30.0879 16.4724 30.0241 16.455C28.5556 16.0023 27.2032 16.2403 26.0134 17.2038C25.549 17.581 25.1427 18.0106 24.5449 18.1905C24.4694 18.2137 24.365 18.3356 24.365 18.4111C24.4056 19.1598 24.1966 19.8679 24.0225 20.5818C23.9993 20.6747 24.0225 20.7908 24.0515 20.8837C24.1908 21.2435 24.3243 21.6034 24.4404 21.9458ZM20.894 22.0619C20.894 21.4815 20.8998 20.9011 20.894 20.3206C20.8882 19.6125 20.4123 19.1424 19.7041 19.1366C18.5607 19.1308 17.4231 19.1308 16.2796 19.1366C15.5715 19.1366 15.0956 19.6183 15.0898 20.3206C15.084 21.4699 15.084 22.6249 15.0898 23.7742C15.0956 24.7609 15.8559 25.5096 16.8427 25.5212C17.6088 25.5271 18.3692 25.5271 19.1353 25.5212C20.122 25.5154 20.8824 24.7609 20.8882 23.7742C20.8998 23.2054 20.894 22.6307 20.894 22.0619ZM34.7604 34.7964C34.7662 34.7326 34.7778 34.7036 34.772 34.6745C34.5456 32.7475 33.141 30.9192 31.0747 30.2923C30.9992 30.2691 30.8715 30.3156 30.8019 30.3794C29.3334 31.6621 27.5573 31.6621 26.0772 30.3736C26.0192 30.3214 25.9147 30.2575 25.8566 30.2807C25.5084 30.4084 25.1659 30.5535 24.8757 30.6754C25.0731 31.4009 25.3052 32.051 25.4213 32.7243C25.5374 33.4034 25.5316 34.0999 25.5838 34.7964C28.6369 34.7964 31.6899 34.7964 34.7604 34.7964ZM31.3417 23.217C29.6236 23.1415 28.3293 22.3986 27.389 21.0114C27.3309 20.9301 27.1394 20.8895 27.0175 20.9069C26.1701 21.0288 25.5432 21.7543 25.5374 22.6133C25.5316 23.7858 25.5258 24.9524 25.5374 26.1249C25.5432 27.0768 26.3094 27.8371 27.2555 27.8429C28.039 27.8488 28.8226 27.8488 29.6062 27.8429C30.4188 27.8371 31.1095 27.2973 31.2836 26.5022C31.3475 26.1945 31.3359 25.8695 31.3417 25.5503C31.3475 24.7783 31.3417 24.0121 31.3417 23.217ZM13.0118 19.8795C13.2672 19.8273 13.4994 19.7518 13.7374 19.7344C13.9289 19.7228 14.016 19.6648 14.0914 19.479C14.4513 18.5329 15.2697 17.9815 16.2854 17.9757C17.3999 17.9757 18.5085 17.9757 19.6229 17.9757C20.7489 17.9757 21.4919 18.4807 21.933 19.5313C21.962 19.6009 22.0258 19.6938 22.0897 19.7054C22.3857 19.7692 22.6875 19.8099 22.9952 19.8563C23.0068 19.8331 23.03 19.8157 23.0358 19.7867C23.8252 17.523 22.1303 15.1026 19.739 15.0736C18.7987 15.062 17.8642 15.062 16.9239 15.0736C16.1636 15.0852 15.5309 15.4103 15.2349 16.0952C15.0201 16.6001 14.6661 16.8323 14.2191 17.0296C14.1147 17.0761 14.0102 17.1283 13.9057 17.1806C12.8203 17.732 12.4779 18.7593 13.0118 19.8795ZM4.61311 23.867C4.62472 23.867 4.63633 23.867 4.64213 23.867C4.64213 24.2559 4.63633 24.639 4.64213 25.0279C4.67695 26.9085 6.56914 28.2783 8.36265 27.7269C9.71504 27.309 10.4754 26.1713 10.4406 24.61C10.4232 23.7916 9.83112 23.0544 9.02433 22.9326C7.72418 22.7294 6.62138 22.1664 5.75074 21.1739C5.62885 21.0346 5.54179 21.0578 5.41409 21.1565C5.06004 21.4351 4.78143 21.7833 4.71758 22.2244C4.64213 22.7642 4.64793 23.3156 4.61311 23.867ZM4.64213 30.4142C2.98212 30.7915 1.00867 33.357 1.25245 34.7848C2.84862 34.7848 4.44479 34.7848 6.08739 34.7848C5.07164 33.4847 4.6015 32.0452 4.64213 30.4142ZM22.02 24.4184C21.7937 25.1788 21.37 25.794 20.6967 26.2294C20.656 26.2526 20.6212 26.3338 20.6328 26.3687C20.7083 26.6008 20.7373 26.8678 21.0391 26.9491C21.1784 26.9839 21.3003 27.0652 21.428 27.1348C22.5018 27.7094 23.3898 28.4988 24.1038 29.4855C24.156 29.561 24.3011 29.6423 24.365 29.619C24.7712 29.4681 25.1717 29.2998 25.5664 29.1199C25.7638 29.0328 25.8566 28.6207 25.7115 28.522C25.044 28.0809 24.6261 27.4657 24.4346 26.6995C22.8558 26.6066 22.1245 25.5212 22.02 24.4184ZM7.52684 31.3255C8.026 31.3255 8.53097 31.3313 9.03014 31.3197C9.1114 31.3197 9.26231 31.221 9.26231 31.163C9.29713 30.4142 9.40741 29.6539 8.91405 28.9922C8.86182 28.9225 8.72832 28.8413 8.65286 28.8587C7.90411 29.056 7.16698 29.056 6.42403 28.8529C6.36599 28.8355 6.26151 28.8471 6.2441 28.8819C6.08739 29.2011 5.88424 29.5146 5.82039 29.8512C5.75074 30.2459 5.81459 30.658 5.80878 31.0643C5.80298 31.2849 5.89585 31.3429 6.1048 31.3371C6.58075 31.3197 7.05089 31.3255 7.52684 31.3255ZM8.9779 32.5038C8.01439 32.5038 7.08572 32.5038 6.12221 32.5038C6.42403 33.3396 6.88837 34.0303 7.55006 34.6281C8.20594 34.0303 8.67027 33.3396 8.9779 32.5038ZM28.4395 29.0038C28.0158 29.0038 27.5921 29.0096 27.1626 29.0038C27.0291 29.0038 26.9188 28.9864 26.8724 29.1547C26.8318 29.3056 26.7447 29.4623 26.9246 29.5668C27.209 29.7409 27.4876 29.9557 27.8011 30.0486C28.5846 30.2865 29.3044 30.1182 29.937 29.59C30.1054 29.4507 30.0879 29.294 29.9951 29.1547C29.9428 29.0734 29.8093 29.0154 29.7107 29.0096C29.2928 28.9922 28.869 29.0038 28.4395 29.0038ZM11.1835 30.6986C10.9397 30.5884 10.7192 30.4839 10.4522 30.3678C10.5044 32.0394 10.0227 33.4905 9.01853 34.7906C9.5293 34.7906 9.98784 34.7906 10.4696 34.7906C10.3767 33.3628 10.5683 32.0046 11.1835 30.6986ZM13.9057 27.4889C14.312 27.2799 14.7357 27.0768 15.142 26.8388C15.3974 26.6879 15.38 26.2932 15.1362 26.1133C14.6312 25.7418 14.2714 25.2601 14.074 24.668C14.045 24.581 14.0102 24.4997 13.9812 24.4184C13.9579 24.4242 13.9347 24.43 13.9115 24.43C13.9057 25.4516 13.9057 26.4731 13.9057 27.4889ZM18.0035 26.6763C17.5566 26.6763 17.1155 26.6705 16.6685 26.6821C16.5873 26.6821 16.4654 26.7634 16.448 26.8272C16.4305 26.8911 16.506 27.0187 16.5757 27.0536C16.9936 27.2799 17.4173 27.4889 17.8468 27.692C17.928 27.7327 18.0557 27.7327 18.137 27.6978C18.5723 27.4947 19.0076 27.2741 19.4313 27.0478C19.4952 27.0129 19.5706 26.8852 19.5532 26.8388C19.5184 26.7634 19.4139 26.6821 19.3385 26.6821C18.8915 26.6705 18.4446 26.6763 18.0035 26.6763ZM13.9057 23.1821C13.9057 22.4044 13.9057 21.6498 13.9057 20.8953C13.244 20.9185 12.7623 21.4235 12.7681 22.0619C12.7797 22.683 13.2788 23.1821 13.9057 23.1821ZM22.0781 20.8953C22.0781 21.6672 22.0781 22.4276 22.0781 23.1821C22.7107 23.1821 23.2099 22.683 23.2215 22.0619C23.2273 21.4235 22.7456 20.9185 22.0781 20.8953ZM32.5257 23.217C32.5257 23.9947 32.5257 24.7493 32.5257 25.5038C33.1816 25.4864 33.6692 24.9756 33.6634 24.3372C33.6575 23.7219 33.1584 23.2228 32.5257 23.217ZM24.365 23.2344C24.3417 23.2112 24.3185 23.1821 24.2953 23.1589C24.1676 23.2402 24.0341 23.3156 23.918 23.4143C23.7439 23.5652 23.5872 23.7335 23.4247 23.9019C23.3608 23.9715 23.2679 24.0354 23.2447 24.1166C23.0242 24.9118 23.8194 25.6083 24.3591 25.4806C24.365 24.7377 24.365 23.9831 24.365 23.2344ZM15.3684 29.3288C15.8559 29.0386 16.2971 28.7658 16.7846 28.4756C16.4073 28.2841 16.0881 28.1215 15.7689 27.9706C15.6296 27.9068 15.0027 28.1506 14.9563 28.2841C14.9447 28.3247 14.9505 28.3827 14.9679 28.4234C15.0956 28.7078 15.2233 28.998 15.3684 29.3288ZM20.6212 29.323C20.7663 28.9922 20.894 28.6962 21.0217 28.4002C21.0391 28.3595 21.0391 28.2725 21.0217 28.2667C20.7663 28.1564 20.4877 27.93 20.2555 27.9706C19.9073 28.0287 19.5881 28.2783 19.1992 28.4698C19.6983 28.7716 20.1453 29.0386 20.6212 29.323Z" fill="#2D2D2D"/>
<path d="M27.8707 13.8896C27.8707 11.1848 27.8707 8.50902 27.8707 5.79264C28.2654 5.79264 28.6543 5.79264 29.0432 5.79264C29.049 5.76942 29.0548 5.7404 29.0548 5.71718C26.9305 4.27773 24.6146 3.2852 22.0549 2.74541C22.0549 4.54472 22.0549 6.31502 22.0549 8.09692C19.3385 8.09692 16.6569 8.09692 13.9406 8.09692C13.9406 6.32663 13.9406 4.56214 13.9406 2.74541C10.7134 3.43031 7.86932 4.80011 5.30384 6.94187C6.27895 6.94187 7.17861 6.94187 8.10149 6.94187C8.10149 9.66987 8.10149 12.3572 8.10149 15.0678C5.40832 15.0678 2.72095 15.0678 0.0161743 15.0678C0.0161743 12.3746 0.0161743 9.68728 0.0161743 6.9709C0.114846 6.96509 0.213519 6.95929 0.317995 6.95929C1.2873 6.95929 2.25081 6.95348 3.22012 6.96509C3.44648 6.96509 3.61481 6.90705 3.78893 6.75034C6.50532 4.23129 9.67444 2.54806 13.2847 1.70645C13.9289 1.54393 13.9289 1.54393 13.9289 0.876441C13.9289 0.586229 13.9289 0.301821 13.9289 0C16.6453 0 19.3327 0 22.0491 0C22.0491 0.516578 22.0491 1.02155 22.0491 1.52071C22.7572 1.70645 23.4305 1.86897 24.098 2.07211C26.5996 2.82667 28.8691 4.02814 30.9238 5.63012C31.0399 5.72298 31.214 5.78103 31.3649 5.78683C32.7869 5.79844 34.209 5.79264 35.631 5.79264C35.7355 5.79264 35.84 5.79264 35.9677 5.79264C35.9677 8.50322 35.9677 11.1848 35.9677 13.8954C33.2803 13.8896 30.5871 13.8896 27.8707 13.8896ZM31.301 10.1806C32.2529 9.08944 33.1642 8.05049 34.1103 6.9709C32.3748 6.9709 30.709 6.9709 29.0432 6.9709C29.0432 8.90371 29.0432 10.8133 29.0432 12.7287C30.976 12.7287 32.8914 12.7287 34.8068 12.7287C34.8068 11.1383 34.8068 9.5712 34.8068 7.9344C33.6402 9.26357 32.5141 10.5463 31.3649 11.8639C30.8599 11.3531 30.3782 10.8713 29.9022 10.3722C29.8616 10.3316 29.8732 10.1748 29.9196 10.1168C30.0822 9.92526 30.2737 9.76274 30.442 9.577C30.5581 9.44931 30.651 9.47833 30.7496 9.58861C30.9238 9.78595 31.0979 9.96589 31.301 10.1806ZM20.1743 1.17246C18.4388 1.17246 16.773 1.17246 15.113 1.17246C15.113 3.10527 15.113 5.01487 15.113 6.92446C17.0516 6.92446 18.967 6.92446 20.8708 6.92446C20.8708 5.3341 20.8708 3.76695 20.8708 2.14177C19.7042 3.47094 18.584 4.75368 17.4347 6.07124C16.9239 5.55466 16.4422 5.07291 15.9662 4.57374C15.9256 4.53311 15.9488 4.3764 15.9953 4.31836C16.152 4.13262 16.3377 3.97591 16.5002 3.79598C16.6221 3.66248 16.7208 3.66248 16.8311 3.79598C16.9936 3.99332 17.1619 4.18486 17.3476 4.39962C18.3228 3.29101 19.2282 2.25205 20.1743 1.17246ZM3.49872 13.0305C2.99375 12.5139 2.50039 12.0264 2.02444 11.5214C1.98962 11.4808 2.00703 11.3415 2.05346 11.2893C2.21598 11.0977 2.40752 10.9352 2.58165 10.7495C2.69193 10.6276 2.7848 10.6276 2.88928 10.7495C3.0576 10.9468 3.23173 11.1383 3.42327 11.3531C4.38677 10.2503 5.29804 9.21133 6.24993 8.12594C4.51446 8.12594 2.85445 8.12594 1.18863 8.12594C1.18863 10.0588 1.18863 11.98 1.18863 13.8896C3.12144 13.8896 5.03104 13.8896 6.95225 13.8896C6.95225 12.2992 6.95225 10.732 6.95225 9.08945C5.77979 10.4302 4.65957 11.713 3.49872 13.0305Z" fill="#2D2D2D"/>
<path d="M16.2273 11.5795C15.8442 11.5795 15.4902 11.5795 15.1129 11.5795C15.1129 11.2022 15.1129 10.8308 15.1129 10.4477C15.4844 10.4477 15.8501 10.4477 16.2273 10.4477C16.2273 10.8308 16.2273 11.2022 16.2273 11.5795Z" fill="#2D2D2D"/>
<path d="M18.5491 11.5795C18.166 11.5795 17.812 11.5795 17.4347 11.5795C17.4347 11.2022 17.4347 10.8308 17.4347 10.4477C17.8062 10.4477 18.166 10.4477 18.5491 10.4477C18.5491 10.8308 18.5491 11.2022 18.5491 11.5795Z" fill="#2D2D2D"/>
<path d="M20.8708 11.5795C20.4877 11.5795 20.1336 11.5795 19.7563 11.5795C19.7563 11.2022 19.7563 10.8308 19.7563 10.4477C20.1278 10.4477 20.4877 10.4477 20.8708 10.4477C20.8708 10.8308 20.8708 11.2022 20.8708 11.5795Z" fill="#2D2D2D"/>
</svg>
