<svg width="35" height="35" viewBox="0 0 35 35" fill="none" xmlns="http://www.w3.org/2000/svg">
<path d="M16.7134 23.8772C16.7134 20.1832 16.7134 16.5008 16.7018 12.8068C16.7018 10.0916 16.7018 7.37643 16.6901 4.6496C16.6785 3.5309 15.8628 2.70353 14.7441 2.66857C13.6953 2.64527 12.6465 2.66857 11.5977 2.66857C8.36983 2.66857 5.15358 2.65692 1.92567 2.65692C0.737058 2.66857 0.00291327 3.39107 0.00291327 4.55638V17.4913C0.00291327 21.8612 -0.00873982 26.2311 0.0145664 30.6011C0.0145664 30.9506 0.17771 31.3585 0.387465 31.6382C0.853589 32.2558 1.55277 32.3257 2.27527 32.3257C6.42377 32.3141 10.5839 32.3257 14.7441 32.3141C15.8162 32.3141 16.7018 31.4284 16.7134 30.3447C16.7251 28.1889 16.7134 26.033 16.7134 23.8772ZM4.97878 4.02033H11.6444C11.7143 4.53307 11.388 4.53307 11.0734 4.53307C9.5468 4.53307 8.00859 4.52142 6.48203 4.52142C6.10913 4.52142 5.74789 4.49811 5.37499 4.52142C4.97878 4.53307 4.94383 4.09025 4.97878 4.02033ZM15.35 5.32548C15.3384 10.1149 15.3267 14.916 15.3151 19.7054C15.3151 23.0965 15.3384 26.4992 15.35 29.8902C15.35 30.8691 15.2219 30.9973 14.243 30.9973H2.31023C1.35467 30.9973 1.17988 30.8225 1.17988 29.8902V5.13903C1.17988 4.14852 1.34302 3.98537 2.32188 3.98537H2.43841C3.49884 3.98537 3.49884 3.98537 3.79017 5.01085C3.93001 5.52358 4.17472 5.84987 4.80399 5.83822C7.05304 5.80326 9.30208 5.82656 11.5628 5.81491C12.4717 5.81491 12.6232 5.68673 12.8796 4.83605C13.1476 3.98537 13.1476 3.98537 14.0216 3.98537C15.3151 3.98537 15.35 4.03199 15.35 5.32548Z" fill="#2D2D2D"/>
<path d="M20.8736 16.862C21.5611 16.862 22.1904 16.8737 22.8313 16.862C23.2858 16.8504 23.682 16.9669 23.6703 17.503C23.6587 18.0273 23.2741 18.1439 22.808 18.1439C22.1787 18.1322 21.5378 18.1439 20.8619 18.1439C20.8619 19.2509 20.8619 20.2997 20.8619 21.3368C20.8619 24.052 20.8736 26.7788 20.8503 29.494C20.8503 29.9485 20.9551 30.1349 21.4329 30.1C21.899 30.065 22.3652 30.0767 22.8313 30.0883C23.2624 30.1 23.6353 30.2514 23.647 30.7292C23.6587 31.2303 23.3091 31.4517 22.8429 31.4517C22.0272 31.4634 21.2115 31.4634 20.3958 31.4517C19.8131 31.4401 19.5917 31.1604 19.5917 30.4845C19.5917 26.5807 19.5917 22.6769 19.5917 18.7731C19.5917 18.5867 19.5917 18.3886 19.5917 18.1206C19.1839 18.1206 18.8226 18.1206 18.4614 18.1206C18.0419 18.1206 17.7156 17.9341 17.7156 17.4913C17.7156 17.0485 18.0302 16.862 18.4614 16.862C18.8226 16.862 19.1839 16.862 19.5917 16.862C19.5917 15.9531 19.5917 15.1024 19.5917 14.2517C19.5917 11.0238 19.5917 7.80758 19.5917 4.57967C19.5917 3.7523 19.8015 3.5542 20.6288 3.5542C21.3513 3.5542 22.0622 3.5542 22.7847 3.5542C23.2391 3.5542 23.6237 3.71734 23.647 4.21843C23.6703 4.74282 23.2624 4.89431 22.8196 4.90596C22.3302 4.92926 21.8524 4.92926 21.363 4.90596C20.9901 4.89431 20.8503 5.02249 20.8503 5.40704C20.8619 8.08725 20.8619 10.7675 20.8619 13.4477C20.8736 14.5314 20.8736 15.6385 20.8736 16.862Z" fill="#2D2D2D"/>
<path d="M32.3985 20.4279C32.3985 19.752 32.3985 19.1111 32.3985 18.342C31.944 18.7498 31.5828 19.0645 31.2215 19.4024C30.8137 19.787 30.4524 19.7637 30.0679 19.3675C29.6367 18.9246 29.1706 18.5051 28.7511 18.0507C28.4481 17.736 28.3199 17.3748 28.6928 17.0252C29.0307 16.7222 29.3687 16.8387 29.6717 17.1301C29.7649 17.2233 29.8698 17.3165 29.963 17.4097C30.7787 18.2488 30.5689 18.2371 31.4662 17.4214C32.2586 16.7105 33.0511 15.9881 33.8318 15.2656C34.1581 14.9742 34.5426 14.7878 34.834 15.1723C35.067 15.487 35.0903 15.9648 34.6708 16.2328C33.8085 16.7921 33.5405 17.5496 33.657 18.5517C33.7386 19.3208 33.6803 20.1016 33.6687 20.8824C33.657 21.5582 33.4473 21.7796 32.7597 21.803C31.979 21.8263 31.2099 21.803 30.4291 21.803C28.8559 21.8146 27.2828 21.8146 25.7096 21.8263C24.7074 21.8379 24.4977 21.6282 24.4977 20.6609C24.4977 18.5051 24.4977 16.3493 24.4977 14.1935C24.4977 13.3545 24.7074 13.1447 25.5115 13.133C27.9004 13.1214 30.2893 13.133 32.6782 13.133C32.7714 13.133 32.8763 13.133 32.9695 13.1447C33.354 13.2263 33.7036 13.3428 33.6687 13.8322C33.6454 14.2867 33.3307 14.4732 32.9229 14.4965C32.5616 14.5198 32.1887 14.4848 31.8158 14.4848C29.928 14.4848 28.0519 14.4965 26.1641 14.4965C25.8611 14.4965 25.7562 14.578 25.7562 14.8927C25.7679 16.6057 25.7562 18.307 25.7446 20.02C25.7446 20.3114 25.8261 20.4395 26.1408 20.4395C28.0985 20.4279 30.0679 20.4395 32.0256 20.4395C32.1421 20.4628 32.2353 20.4395 32.3985 20.4279Z" fill="#2D2D2D"/>
<path d="M32.3869 33.794C32.3869 33.0598 32.3869 32.4073 32.3869 31.6149C31.9441 32.0111 31.6061 32.3257 31.2449 32.6403C30.7788 33.0482 30.4758 33.0365 30.033 32.617C29.6018 32.1975 29.1706 31.778 28.7395 31.3468C28.4248 31.0322 28.285 30.6943 28.6462 30.333C28.9958 29.9834 29.3454 30.0883 29.6601 30.4029C29.9747 30.7176 30.2893 31.0322 30.6622 31.4051C31.0934 31.0205 31.5012 30.6593 31.9208 30.2864C32.5384 29.7271 33.1676 29.1677 33.7736 28.5967C34.1115 28.2704 34.4844 28.1655 34.869 28.4452C35.1137 28.62 34.9855 29.3075 34.6359 29.5523C33.8552 30.0883 33.5755 30.7758 33.6804 31.7314C33.7736 32.5704 33.692 33.4327 33.692 34.2951C33.692 34.7612 33.5172 34.9826 32.9928 34.9826C30.3942 34.9593 27.7956 34.9593 25.1853 34.9826C24.6958 34.9826 24.5094 34.7845 24.5094 34.33C24.5094 31.9644 24.4977 29.5989 24.5094 27.2216C24.5094 26.6623 24.7774 26.4409 25.43 26.4409C27.5858 26.4409 29.7416 26.4409 31.8974 26.4409C32.247 26.4409 32.5966 26.4176 32.9462 26.4292C33.3657 26.4409 33.6571 26.6506 33.6687 27.0935C33.6804 27.5479 33.3774 27.7111 32.9928 27.7227C32.1422 27.746 31.2798 27.7344 30.4292 27.7344C29.0657 27.7344 27.714 27.7577 26.3506 27.7344C25.9311 27.7227 25.7679 27.8626 25.7679 28.2937C25.7912 29.9834 25.7679 31.6731 25.7912 33.3628C25.7912 33.5027 25.9893 33.759 26.1059 33.759C28.1801 33.794 30.2544 33.794 32.3869 33.794Z" fill="#2D2D2D"/>
<path d="M32.4218 5.03415C31.9208 5.47697 31.5479 5.81491 31.1866 6.1412C30.8137 6.47914 30.4641 6.46748 30.1145 6.11789C29.6601 5.66342 29.2056 5.2206 28.7511 4.76613C28.4365 4.4515 28.3316 4.10191 28.6929 3.75231C29.0541 3.40272 29.3687 3.58917 29.6601 3.85719C29.9863 4.16017 30.301 4.47481 30.6622 4.81275C30.8021 4.69621 30.9419 4.60299 31.0701 4.49811C31.9907 3.67074 32.9229 2.83172 33.8319 2.00435C34.1582 1.71302 34.4961 1.58484 34.869 1.89947C35.0904 2.09757 34.9972 2.7618 34.6826 2.97156C33.8319 3.54256 33.5522 4.28836 33.6687 5.30218C33.762 6.08293 33.7037 6.887 33.692 7.69106C33.6804 8.29702 33.4473 8.55339 32.8414 8.55339C30.3359 8.55339 27.8305 8.55339 25.3251 8.53008C24.7541 8.53008 24.5094 8.27371 24.5094 7.70271C24.4977 5.37209 24.5094 3.04148 24.5094 0.710857C24.5094 0.209774 24.7075 1.79209e-05 25.2435 1.79209e-05C27.7839 0.0233241 30.3359 0.011671 32.8763 1.79209e-05C33.2958 1.79209e-05 33.692 -0.0116351 33.6687 0.559366C33.6571 1.0721 33.3075 1.17698 32.8647 1.17698C30.7088 1.16533 28.553 1.18863 26.3972 1.16533C25.8845 1.15367 25.7446 1.29351 25.7563 1.8179C25.7912 3.42603 25.7796 5.04581 25.7679 6.65393C25.7679 7.06179 25.8378 7.24824 26.304 7.23659C28.1918 7.21328 30.0679 7.21328 31.9557 7.23659C32.317 7.23659 32.4452 7.13171 32.4335 6.77046C32.4102 6.25773 32.4218 5.73334 32.4218 5.03415Z" fill="#2D2D2D"/>
<path d="M13.1942 17.7826C13.2059 16.8504 12.7864 16.1629 11.9707 15.7783C11.353 15.487 10.6888 15.3122 10.0246 15.0675C10.1178 14.9276 10.2227 14.7994 10.3043 14.648C10.8869 13.6341 11.12 12.5621 10.6073 11.4783C9.97798 10.1382 8.59126 9.70705 7.14628 10.2897C6.03924 10.7325 5.40997 12.2125 5.80618 13.4943C5.98097 14.0537 6.26065 14.578 6.51701 15.1723C6.36552 15.1957 6.16742 15.219 5.99262 15.2539C4.55929 15.5802 3.38233 16.2794 3.37068 17.8176C3.35903 18.9829 3.35903 20.1482 3.37068 21.3135C3.37068 21.733 3.4639 22.1526 4.0116 22.1875C4.43111 22.2108 4.68748 21.8729 4.69913 21.2902C4.71078 20.1832 4.71078 19.0761 4.72244 17.9691C4.72244 17.2466 4.94385 16.9436 5.61973 16.7455C7.36769 16.2095 9.12731 16.1978 10.8986 16.7106C11.6327 16.9203 11.9357 17.3282 11.9357 18.1089C11.9357 19.181 11.9357 20.2414 11.9357 21.3135C11.9357 21.9195 12.1804 22.2458 12.5999 22.2108C13.1243 22.1526 13.2175 21.7797 13.2175 21.3252C13.1942 20.1482 13.1826 18.9713 13.1942 17.7826ZM9.26714 13.7973C9.09235 14.2634 8.75441 14.5431 8.25333 14.5198C7.70563 14.4965 7.37934 14.1236 7.20455 13.6458C7.11132 13.3778 7.06471 13.0748 7.0414 12.7951C6.97148 11.6648 7.97365 11.0355 8.98747 11.5366C9.37202 11.723 9.52351 12.0843 9.57012 12.7485C9.46525 13.1098 9.38368 13.4593 9.26714 13.7973Z" fill="#2D2D2D"/>
<path d="M8.36986 26.4176C7.33274 26.406 6.49371 27.21 6.49371 28.2238C6.49371 29.1095 7.33274 29.9368 8.26498 29.9601C9.20888 29.9835 10.0829 29.1444 10.0945 28.2122C10.0945 27.3032 9.2555 26.4176 8.36986 26.4176ZM8.28829 28.9347C7.88043 28.9347 7.54249 28.5967 7.54249 28.1889C7.54249 27.781 7.88043 27.4431 8.28829 27.4431C8.69615 27.4431 9.03409 27.781 9.03409 28.1889C9.03409 28.5967 8.69615 28.9347 8.28829 28.9347Z" fill="#2D2D2D"/>
<path d="M11.2715 20.1132C11.2715 20.5561 11.2831 21.0105 11.2715 21.4533C11.2598 21.8729 11.0733 22.1758 10.6189 22.1875C10.1761 22.1991 10.0013 21.8962 9.98961 21.5C9.9663 20.5677 9.95465 19.6355 9.9663 18.7149C9.9663 18.2837 10.1411 17.9225 10.6538 17.9574C11.1433 17.9807 11.2715 18.342 11.2715 18.7731C11.2715 19.2276 11.2715 19.6704 11.2715 20.1132Z" fill="#2D2D2D"/>
<path d="M6.62189 20.1716C6.62189 20.6144 6.63354 21.0689 6.62189 21.5117C6.61024 21.9079 6.42379 22.1992 6.00428 22.2109C5.58477 22.2342 5.3517 21.9661 5.34005 21.5583C5.31674 20.5678 5.31674 19.5773 5.34005 18.5984C5.3517 18.2255 5.54981 17.9575 5.95766 17.9808C6.37718 17.9924 6.58693 18.2721 6.59858 18.6567C6.63354 19.1577 6.62189 19.6588 6.62189 20.1716Z" fill="#2D2D2D"/>
</svg>
