<svg width="26" height="31" viewBox="0 0 26 31" fill="none" xmlns="http://www.w3.org/2000/svg">
<path d="M12.7017 11.5417C13.8431 11.5417 14.9588 11.2033 15.9078 10.5692C16.8569 9.93506 17.5965 9.03378 18.0333 7.97929C18.4701 6.9248 18.5844 5.76447 18.3617 4.64503C18.139 3.52559 17.5894 2.49732 16.7823 1.69025C15.9753 0.883181 14.947 0.333559 13.8276 0.110888C12.7081 -0.111782 11.5478 0.00250041 10.4933 0.439284C9.43881 0.876067 8.53753 1.61574 7.90341 2.56475C7.2693 3.51376 6.93085 4.6295 6.93085 5.77087C6.93234 7.30095 7.54082 8.76792 8.62274 9.84985C9.70467 10.9318 11.1716 11.5403 12.7017 11.5417V11.5417ZM12.7017 2.88544C13.2724 2.88544 13.8303 3.05467 14.3048 3.37172C14.7793 3.68878 15.1491 4.13942 15.3675 4.66667C15.5859 5.19391 15.643 5.77407 15.5317 6.33379C15.4204 6.89351 15.1456 7.40765 14.742 7.81118C14.3385 8.21472 13.8244 8.48953 13.2646 8.60087C12.7049 8.7122 12.1248 8.65506 11.5975 8.43667C11.0703 8.21828 10.6196 7.84844 10.3026 7.37393C9.98551 6.89943 9.81628 6.34156 9.81628 5.77087C9.81731 5.00592 10.1216 4.2726 10.6625 3.7317C11.2034 3.1908 11.9368 2.88647 12.7017 2.88544V2.88544Z" fill="#39AFD1"/>
<path d="M17.5231 14.4272H8.4773C6.87408 14.4213 5.31171 14.9326 4.02212 15.8851C2.73253 16.8377 1.78447 18.1807 1.31868 19.7147L0.241545 23.2133C-0.0100521 24.0321 -0.0660578 24.8984 0.0780297 25.7428C0.222117 26.5871 0.562279 27.3858 1.07117 28.0748C1.58007 28.7637 2.2435 29.3237 3.00814 29.7097C3.77279 30.0956 4.61732 30.2968 5.47385 30.2971H20.5256C21.3822 30.2969 22.2268 30.0958 22.9915 29.7099C23.7562 29.324 24.4197 28.764 24.9287 28.075C25.4376 27.386 25.7778 26.5873 25.9219 25.7429C26.0661 24.8985 26.0101 24.0321 25.7585 23.2133L24.682 19.715C24.4094 18.8438 23.9801 18.0297 23.4152 17.3126C22.0796 14.5329 18.3848 14.4272 17.5231 14.4272ZM22.6078 26.3602C22.3686 26.6875 22.0551 26.9535 21.6931 27.1363C21.3312 27.3191 20.9311 27.4134 20.5256 27.4116H5.47385C5.06873 27.4116 4.66928 27.3165 4.30762 27.1339C3.94596 26.9514 3.63219 26.6865 3.39154 26.3606C3.1509 26.0347 2.99009 25.6569 2.92207 25.2575C2.85404 24.8582 2.88069 24.4484 2.99988 24.0612L4.07629 20.5629C4.36225 19.6197 4.94492 18.794 5.73768 18.2084C6.53045 17.6228 7.491 17.3087 8.47658 17.3126H17.5224C18.508 17.3087 19.4685 17.6228 20.2613 18.2084C21.054 18.794 21.6367 19.6197 21.9227 20.5629L22.9991 24.0612C23.1205 24.4481 23.1483 24.8583 23.0803 25.258C23.0123 25.6577 22.8504 26.0352 22.6078 26.3602Z" fill="#39AFD1"/>
</svg>
