<svg width="37" height="32" viewBox="0 0 37 32" fill="none" xmlns="http://www.w3.org/2000/svg">
<path d="M0 1.35108C0.245651 0.699161 0.633024 0.188962 1.35108 0.0472406C1.5117 0.00944812 1.68177 0 1.84238 0C12.7077 0 23.5731 0 34.429 0C35.5816 0 36.2808 0.699161 36.2808 1.86128C36.2808 9.69377 36.2808 17.5168 36.2808 25.3493C36.2808 26.5209 35.5911 27.2106 34.4006 27.2106C29.3081 27.2106 24.225 27.2106 19.1324 27.2106C19.0002 27.2106 18.8773 27.2106 18.7262 27.2106C18.7262 28.3444 18.7262 29.4592 18.7262 30.6119C18.8584 30.6119 18.9907 30.6119 19.1135 30.6119C21.8157 30.6119 24.5179 30.6119 27.2295 30.6119C27.3429 30.6119 27.4657 30.6025 27.5791 30.6214C27.8625 30.678 28.042 30.867 28.0515 31.1599C28.0609 31.4717 27.8814 31.6701 27.5791 31.7362C27.4751 31.7551 27.3712 31.7457 27.2578 31.7457C21.2016 31.7457 15.1453 31.7457 9.08909 31.7457C8.48441 31.7457 8.21042 31.5662 8.21987 31.1599C8.22931 30.7725 8.48441 30.6025 9.07964 30.6025C11.7724 30.6025 14.4651 30.6025 17.1578 30.6025C17.2806 30.6025 17.4129 30.6025 17.5546 30.6025C17.5546 29.4592 17.5546 28.3538 17.5546 27.2011C17.4223 27.2011 17.2806 27.2011 17.1483 27.2011C12.1408 27.2011 7.13333 27.1822 2.12583 27.2106C1.07709 27.22 0.34958 26.861 0 25.8501C0 17.6963 0 9.5237 0 1.35108ZM18.1404 26.0768C23.5447 26.0768 28.9585 26.0768 34.3628 26.0768C34.9675 26.0768 35.1376 25.8973 35.1376 25.2926C35.1376 17.5074 35.1376 9.73156 35.1376 1.94631C35.1376 1.29439 34.9769 1.13377 34.325 1.13377C23.5542 1.13377 12.7644 1.13377 1.98411 1.13377C1.28494 1.13377 1.13377 1.28494 1.13377 1.98411C1.13377 9.73156 1.13377 17.479 1.13377 25.2265C1.13377 25.9256 1.28494 26.0768 1.98411 26.0768C7.36953 26.0768 12.755 26.0768 18.1404 26.0768Z" fill="#2D2D2D"/>
<path d="M25.2265 12.755C22.5621 12.755 19.8883 12.755 17.2239 12.755C16.6098 12.755 16.4397 12.5849 16.4397 11.9897C16.4397 8.99464 16.4397 5.99014 16.4397 2.99508C16.4397 2.46599 16.6287 2.26758 17.1672 2.26758C22.5337 2.26758 27.9097 2.26758 33.2763 2.26758C33.8148 2.26758 34.0132 2.45654 34.0132 2.98564C34.0132 6.00903 34.0132 9.03243 34.0132 12.0464C34.0132 12.5566 33.8148 12.755 33.3046 12.755C30.6119 12.755 27.9192 12.755 25.2265 12.755ZM32.8605 5.64056C32.7283 5.71614 32.6338 5.77283 32.5393 5.83897C31.8779 6.27358 31.2166 6.69875 30.5646 7.15226C30.2812 7.35067 30.0072 7.40736 29.6671 7.30343C28.949 7.08612 28.2121 6.90661 27.494 6.6893C27.2106 6.60427 27.031 6.63261 26.8232 6.85936C26.0106 7.70025 25.1698 8.51279 24.3572 9.35367C24.0832 9.63711 23.8092 9.70325 23.4408 9.54263C22.5432 9.15526 21.6362 8.77733 20.7291 8.4183C20.6063 8.37106 20.3985 8.38051 20.2945 8.4561C19.4348 9.06078 18.5939 9.6938 17.753 10.3174C17.6774 10.3741 17.5829 10.4685 17.5829 10.5536C17.564 10.9032 17.5735 11.2527 17.5735 11.5929C22.6944 11.5929 27.7774 11.5929 32.8605 11.5929C32.8605 9.60877 32.8605 7.64356 32.8605 5.64056ZM17.6018 3.4108C17.6018 5.29098 17.6018 7.13336 17.6018 9.01354C18.4049 8.4183 19.1797 7.86087 19.9355 7.27508C20.2 7.07667 20.4551 7.03888 20.7575 7.17115C21.6267 7.53963 22.4959 7.89866 23.3652 8.27658C23.6014 8.38051 23.7431 8.34272 23.9132 8.16321C24.7163 7.34122 25.5382 6.54758 26.3319 5.72559C26.6342 5.4138 26.9366 5.33822 27.3428 5.46104C28.1081 5.69725 28.8829 5.9051 29.6576 6.09407C29.8182 6.13186 30.0355 6.10352 30.1678 6.01848C30.9237 5.53663 31.6701 5.03588 32.4165 4.54458C32.9172 4.21389 32.9834 4.02493 32.8038 3.4108C27.7585 3.4108 22.6944 3.4108 17.6018 3.4108Z" fill="#2D2D2D"/>
<path d="M18.1405 23.8093C18.1405 23.0534 18.1499 22.3354 18.131 21.6173C18.131 21.5323 17.9704 21.4189 17.857 21.3716C16.9784 20.9937 16.4209 20.1339 16.4493 19.1891C16.4871 18.2443 17.1106 17.4129 18.0177 17.12C18.868 16.846 19.6333 17.035 20.2758 17.6396C20.4269 17.7814 20.5309 17.7908 20.7009 17.7058C21.3812 17.3751 22.052 17.0444 22.7417 16.7232C22.9401 16.6381 22.9779 16.5248 22.9685 16.3169C22.9118 15.0981 23.6865 14.1344 24.8676 13.9171C25.9541 13.7187 27.0028 14.38 27.3996 15.4949C27.4374 15.5894 27.5414 15.7217 27.6264 15.7311C28.2783 15.8161 28.9397 15.8728 29.6011 15.939C29.9979 15.0508 30.6498 14.5312 31.6135 14.4556C32.7 14.3706 33.6921 15.1264 33.9472 16.1846C34.2023 17.2712 33.6637 18.3671 32.6245 18.7923C32.3788 18.8962 32.3032 19.0096 32.3032 19.2742C32.3221 20.6536 32.3127 22.033 32.3127 23.4219C32.3127 23.5353 32.3127 23.6486 32.3127 23.7998C32.6811 23.7998 33.0213 23.7998 33.3614 23.7998C33.7582 23.8093 34.0039 24.0171 34.0133 24.3478C34.0228 24.6879 33.7677 24.9241 33.352 24.9241C27.9287 24.9241 22.515 24.9241 17.0917 24.9241C16.6949 24.9241 16.4493 24.7068 16.4398 24.3761C16.4304 24.036 16.6855 23.7998 17.0917 23.7904C17.4224 23.8093 17.7531 23.8093 18.1405 23.8093ZM27.3902 16.8649C27.1351 17.5357 26.7005 18.0176 26.0486 18.2632C25.8407 18.3388 25.7935 18.4427 25.7935 18.6506C25.8029 20.2757 25.7935 21.9102 25.8029 23.5353C25.8029 23.6203 25.8218 23.7148 25.8313 23.7904C27.6264 23.7904 29.3932 23.7904 31.1883 23.7904C31.1883 22.2031 31.1883 20.6347 31.1789 19.0663C31.1789 18.9907 31.075 18.8868 30.9994 18.8584C30.253 18.5655 29.7806 18.0365 29.5538 17.2712C29.5255 17.1861 29.4404 17.0822 29.3649 17.0727C28.7035 16.9972 28.0516 16.931 27.3902 16.8649ZM24.6597 23.7998C24.6597 22.0141 24.6597 20.2662 24.6502 18.5089C24.6502 18.4427 24.5652 18.3482 24.4991 18.3104C24.1495 18.1026 23.7905 17.9042 23.3842 17.668C22.7039 17.9892 21.9575 18.3577 21.2017 18.7073C21.0127 18.7923 20.9466 18.8868 20.9655 19.1041C21.0222 19.8977 20.7293 20.5591 20.0963 21.0504C19.86 21.2394 19.5766 21.3622 19.2932 21.5228C19.2932 22.2598 19.2932 23.0156 19.2932 23.7998C21.0789 23.7998 22.8457 23.7998 24.6597 23.7998ZM19.8412 19.2836C19.8506 18.6695 19.3404 18.1498 18.7263 18.1404C18.0932 18.1309 17.5736 18.6411 17.5736 19.2836C17.5736 19.8977 18.0932 20.4079 18.7074 20.4079C19.3215 20.4079 19.8317 19.9072 19.8412 19.2836ZM31.7552 17.8569C32.3694 17.8475 32.8796 17.3373 32.8701 16.7232C32.8701 16.109 32.3599 15.5988 31.7458 15.5988C31.1128 15.5988 30.6026 16.1185 30.612 16.7515C30.6215 17.3656 31.1411 17.8664 31.7552 17.8569ZM25.2171 15.032C24.603 15.032 24.0928 15.5516 24.0928 16.1657C24.0928 16.7893 24.5936 17.2901 25.2171 17.2995C25.8502 17.2995 26.3698 16.7799 26.3509 16.1468C26.3509 15.5233 25.8407 15.0225 25.2171 15.032Z" fill="#2D2D2D"/>
<path d="M7.65301 12.755C6.47199 12.755 5.29098 12.755 4.10996 12.755C2.97619 12.755 2.26758 12.0558 2.26758 10.9315C2.26758 8.65451 2.26758 6.37751 2.26758 4.09107C2.26758 2.96674 2.97619 2.26758 4.10996 2.26758C6.47199 2.26758 8.83402 2.26758 11.1961 2.26758C12.3487 2.26758 13.0384 2.96674 13.0384 4.12886C13.0384 6.38696 13.0384 8.63561 13.0384 10.8937C13.0384 12.0653 12.3393 12.755 11.1583 12.755C10.5725 12.755 9.97724 12.755 9.39146 12.755C8.80568 12.755 8.22934 12.755 7.65301 12.755ZM7.65301 3.40135C6.47199 3.40135 5.29098 3.40135 4.10996 3.40135C3.59976 3.40135 3.40135 3.59976 3.40135 4.10996C3.40135 6.36806 3.40135 8.61672 3.40135 10.8748C3.40135 11.4323 3.59032 11.6212 4.14775 11.6212C6.50034 11.6212 8.84347 11.6212 11.1961 11.6212C11.7063 11.6212 11.9047 11.4228 11.9047 10.9126C11.9047 8.64506 11.9047 6.37751 11.9047 4.10996C11.9047 3.60921 11.7063 3.40135 11.1961 3.40135C10.015 3.40135 8.83402 3.40135 7.65301 3.40135Z" fill="#2D2D2D"/>
<path d="M7.64349 24.943C6.09399 24.943 4.55395 24.943 3.00446 24.943C2.44702 24.943 2.25806 24.754 2.25806 24.1966C2.25806 23.3557 2.25806 22.5243 2.25806 21.6834C2.25806 21.1732 2.45647 20.9748 2.95722 20.9653C6.08455 20.9653 9.21188 20.9653 12.3392 20.9653C12.8211 20.9653 13.0289 21.1732 13.0289 21.655C13.0289 22.5054 13.0289 23.3557 13.0289 24.206C13.0289 24.754 12.84 24.943 12.2731 24.943C10.7425 24.943 9.19298 24.943 7.64349 24.943ZM3.42018 23.7903C6.26406 23.7903 9.0796 23.7903 11.8762 23.7903C11.8762 23.2234 11.8762 22.6754 11.8762 22.1275C9.04181 22.1275 6.23572 22.1275 3.42018 22.1275C3.42018 22.6849 3.42018 23.2234 3.42018 23.7903Z" fill="#2D2D2D"/>
<path d="M14.1722 13.5677C14.1722 10.0908 14.1722 6.60441 14.1722 3.1275C14.1722 3.01413 14.1627 2.8913 14.1816 2.77792C14.2383 2.47558 14.4178 2.28662 14.7296 2.28662C15.0414 2.28662 15.2304 2.46614 15.2965 2.76848C15.3154 2.8724 15.3059 2.97633 15.3059 3.08971C15.3059 10.1097 15.3059 17.1296 15.3059 24.159C15.3059 24.2629 15.3154 24.3763 15.2965 24.4803C15.2398 24.7731 15.0603 24.9432 14.7674 24.9527C14.4556 24.9621 14.2572 24.792 14.1911 24.4897C14.1627 24.3669 14.1816 24.2346 14.1816 24.1023C14.1722 20.5782 14.1722 17.0729 14.1722 13.5677Z" fill="#2D2D2D"/>
<path d="M7.61516 16.4398C6.05622 16.4398 4.49728 16.4398 2.93834 16.4398C2.55097 16.4398 2.31477 16.2603 2.26753 15.9485C2.22028 15.5989 2.48483 15.3155 2.90055 15.3155C3.76978 15.306 4.64845 15.3155 5.51768 15.3155C7.77578 15.3155 10.0244 15.3155 12.2825 15.3249C12.462 15.3249 12.7077 15.3533 12.8022 15.4666C12.925 15.6084 13.0006 15.8635 12.9817 16.0619C12.9439 16.3359 12.7077 16.4587 12.4243 16.4587C11.6495 16.4587 10.8653 16.4587 10.0906 16.4587C9.26858 16.4398 8.4466 16.4398 7.61516 16.4398Z" fill="#2D2D2D"/>
<path d="M5.88628 19.2742C4.92257 19.2742 3.94942 19.2742 2.98571 19.2742C2.5322 19.2742 2.2771 19.0663 2.2771 18.7167C2.2771 18.3577 2.5322 18.1404 2.97626 18.1404C4.92257 18.1404 6.86889 18.1404 8.8152 18.1404C9.25926 18.1404 9.51436 18.3577 9.50491 18.7167C9.49546 19.0663 9.24981 19.2742 8.82465 19.2742C7.84204 19.2836 6.85944 19.2742 5.88628 19.2742Z" fill="#2D2D2D"/>
<path d="M5.00743 7.36956C5.00743 6.64205 4.99799 5.9051 5.00743 5.17759C5.01688 4.58236 5.42315 4.33671 5.93335 4.62016C7.22774 5.34766 8.52213 6.08461 9.80708 6.82157C10.3362 7.12391 10.3456 7.61521 9.82597 7.91755C8.53158 8.66395 7.22774 9.41035 5.91445 10.1379C5.42315 10.4119 5.01688 10.1662 5.00743 9.59931C4.99799 8.85291 5.00743 8.10651 5.00743 7.36956ZM8.50324 7.36956C7.70015 6.91605 6.95375 6.49088 6.179 6.04682C6.179 6.95384 6.179 7.78528 6.179 8.68285C6.96319 8.24823 7.70015 7.82307 8.50324 7.36956Z" fill="#2D2D2D"/>
</svg>
