<svg width="35" height="27" viewBox="0 0 35 27" fill="none" xmlns="http://www.w3.org/2000/svg">
<path d="M31.4923 26.9231H22.1625C21.6814 26.9231 21.2367 26.6663 20.9964 26.2494C20.756 25.8326 20.7563 25.3192 20.9974 24.9027C21.3513 24.291 21.5385 23.5931 21.5385 22.8846C21.5385 20.6578 19.7268 18.8462 17.5 18.8462C15.2732 18.8462 13.4615 20.6578 13.4615 22.8846C13.4615 23.5931 13.6487 24.291 14.0026 24.9027C14.2436 25.3192 14.2439 25.8326 14.0036 26.2495C13.7632 26.6663 13.3186 26.9231 12.8375 26.9231H3.50774C3.02723 26.9231 2.58313 26.6669 2.34251 26.251C0.810048 23.6019 0 20.5759 0 17.5C0 12.8256 1.82027 8.43096 5.12562 5.12561C8.43096 1.82034 12.8255 0 17.5 0C22.1744 0 26.569 1.82034 29.8744 5.12561C33.1797 8.43089 35 12.8256 35 17.5C35 20.5758 34.19 23.6018 32.6574 26.251C32.4169 26.6669 31.9728 26.9231 31.4923 26.9231ZM24.0945 24.2308H30.6926C31.7512 22.1574 32.3077 19.8461 32.3077 17.5C32.3077 9.33497 25.665 2.69231 17.5 2.69231C9.33497 2.69231 2.69231 9.33497 2.69231 17.5C2.69231 19.8462 3.24881 22.1575 4.30736 24.2308H10.9055C10.8153 23.7894 10.7692 23.3382 10.7692 22.8846C10.7692 19.1732 13.7887 16.1538 17.5 16.1538C21.2114 16.1538 24.2308 19.1732 24.2308 22.8846C24.2308 23.3382 24.1847 23.7894 24.0945 24.2308Z" fill="#39AFD1"/>
<path d="M22.1624 26.9231H12.8375C12.357 26.9231 11.913 26.667 11.6723 26.2512C11.0815 25.2301 10.7692 24.0661 10.7692 22.8846C10.7692 19.1732 13.7886 16.1538 17.4999 16.1538C21.2113 16.1538 24.2307 19.1732 24.2307 22.8846C24.2307 24.066 23.9184 25.2301 23.3276 26.2511C23.0869 26.667 22.6429 26.9231 22.1624 26.9231ZM13.6927 24.2308H21.3072C21.4595 23.8003 21.5384 23.3447 21.5384 22.8846C21.5384 20.6578 19.7267 18.8461 17.4999 18.8461C15.2731 18.8461 13.4615 20.6578 13.4615 22.8846C13.4615 23.3447 13.5404 23.8003 13.6927 24.2308Z" fill="#39AFD1"/>
<path d="M17.5 6.73076C18.2434 6.73076 18.8461 6.12807 18.8461 5.38461C18.8461 4.64115 18.2434 4.03845 17.5 4.03845C16.7565 4.03845 16.1538 4.64115 16.1538 5.38461C16.1538 6.12807 16.7565 6.73076 17.5 6.73076Z" fill="#39AFD1"/>
<path d="M26.0669 10.2793C26.8103 10.2793 27.413 9.67662 27.413 8.93316C27.413 8.1897 26.8103 7.58701 26.0669 7.58701C25.3234 7.58701 24.7207 8.1897 24.7207 8.93316C24.7207 9.67662 25.3234 10.2793 26.0669 10.2793Z" fill="#39AFD1"/>
<path d="M29.6153 18.8461C30.3588 18.8461 30.9615 18.2435 30.9615 17.5C30.9615 16.7565 30.3588 16.1538 29.6153 16.1538C28.8719 16.1538 28.2692 16.7565 28.2692 17.5C28.2692 18.2435 28.8719 18.8461 29.6153 18.8461Z" fill="#39AFD1"/>
<path d="M5.38461 18.8461C6.12807 18.8461 6.73076 18.2435 6.73076 17.5C6.73076 16.7565 6.12807 16.1538 5.38461 16.1538C4.64115 16.1538 4.03845 16.7565 4.03845 17.5C4.03845 18.2435 4.64115 18.8461 5.38461 18.8461Z" fill="#39AFD1"/>
<path d="M8.93313 10.2793C9.67659 10.2793 10.2793 9.67662 10.2793 8.93316C10.2793 8.1897 9.67659 7.58701 8.93313 7.58701C8.18967 7.58701 7.58698 8.1897 7.58698 8.93316C7.58698 9.67662 8.18967 10.2793 8.93313 10.2793Z" fill="#39AFD1"/>
<path d="M17.5 18.8461C16.7565 18.8461 16.1538 18.2435 16.1538 17.5V9.42306C16.1538 8.67958 16.7565 8.0769 17.5 8.0769C18.2434 8.0769 18.8461 8.67958 18.8461 9.42306V17.5C18.8461 18.2435 18.2434 18.8461 17.5 18.8461Z" fill="#39AFD1"/>
</svg>
