<svg width="35" height="35" viewBox="0 0 35 35" fill="none" xmlns="http://www.w3.org/2000/svg">
<path d="M9.78082 33.3073C9.46343 33.5227 9.15171 33.9137 8.82866 33.9251C7.13404 33.9818 5.42809 34.0271 3.73915 33.9194C1.59679 33.7834 0.111874 32.1568 0.0268601 30.0088C-0.00714555 29.1643 -0.0128132 28.3085 0.0325277 27.464C0.174218 24.8172 2.22589 22.7826 4.867 22.6635C5.76248 22.6239 6.65797 22.6182 7.55345 22.6522C9.14605 22.7032 10.4949 22.5729 11.8778 21.3543C14.1165 19.3763 20.9687 20.0905 23.1337 22.1421C23.4284 22.4198 23.9215 22.6182 24.3296 22.6352C25.8825 22.6919 27.4411 22.6239 28.994 22.6692C31.7258 22.7486 33.7888 24.7832 33.9532 27.498C33.9645 27.685 33.9475 27.8777 33.9645 28.0648C34.3272 32.7519 32.2076 34.2821 28.0929 33.9761C27.1067 33.9024 26.1092 34.0158 25.1287 33.9307C24.8057 33.9024 24.5109 33.5113 24.2049 33.2846C24.2786 33.1373 24.3522 32.9843 24.4259 32.8369H29.4418C29.4418 30.9496 29.4078 29.2153 29.4701 27.4867C29.4814 27.2203 29.7365 26.9596 29.9518 26.6989C30.0482 26.5799 30.2126 26.5459 30.3486 26.6195C30.3486 26.6195 30.3486 26.6195 30.3542 26.6195C30.4619 26.6762 30.5356 26.7896 30.5356 26.9086V32.6782C31.9242 32.3552 32.6383 31.5617 32.78 30.3715C32.9047 29.306 32.899 28.1951 32.7743 27.1296C32.5816 25.4407 31.1817 23.9728 29.5381 23.8537C27.7641 23.7234 25.9789 23.8254 24.3466 23.8254C24.3466 26.3192 24.4033 28.7166 24.3296 31.1083C24.2672 33.228 22.788 34.1291 19.9258 33.8684V25.0383C20.8213 24.6755 20.9744 25.1176 20.9687 25.8771C20.946 28.1328 20.9573 30.3942 20.9573 32.6442C22.5046 32.8029 23.1734 32.2928 23.2074 30.8929C23.2471 29.0566 23.2584 27.2146 23.2017 25.3783C23.1337 23.168 21.5298 21.5867 19.3137 21.5244C17.7608 21.479 16.2022 21.4733 14.6493 21.53C12.4389 21.6037 10.8633 23.185 10.7897 25.4123C10.733 27.2033 10.75 28.9943 10.7783 30.7852C10.801 32.2361 11.3281 32.6895 12.9944 32.7519V25.299C12.9944 25.2026 13.034 25.112 13.102 25.0496L13.1077 25.0439C13.2267 24.9306 13.4138 24.9193 13.5441 25.0156C13.8162 25.214 14.1222 25.4123 14.1279 25.6164C14.1902 28.3368 14.1619 31.0629 14.1619 33.7664C11.039 34.3331 9.6448 33.2053 9.63913 30.2241C9.63346 28.1215 9.63913 26.0131 9.63913 23.8254C7.98419 23.8254 6.20456 23.7801 4.42493 23.8537C3.89784 23.8764 3.33674 24.1711 2.87767 24.4772C1.04703 25.7014 0.389587 29.9521 1.77248 31.6637C2.12388 32.0944 2.66797 32.3665 3.42176 32.9389C3.42176 30.8476 3.38775 29.17 3.4501 27.4923C3.46143 27.2713 3.62013 27.0616 3.79015 26.8462C3.96018 26.6309 4.2549 26.5685 4.50427 26.6819V32.7462H9.4691C9.56545 32.9389 9.67313 33.1259 9.78082 33.3073Z" fill="#2D2D2D"/>
<path d="M14.7286 4.61782C13.4081 5.16758 12.2859 5.63232 11.175 6.09707C10.3135 5.39428 9.54275 4.41945 8.55658 4.0964C8.12018 3.95471 7.23603 5.0939 6.58425 5.68333C4.14718 7.8767 7.75745 8.08073 7.74045 9.68466C7.34938 10.6085 6.86197 11.7703 6.33488 13.0286C5.58109 13.0286 4.78195 13.0626 3.98849 13.0172C3.13268 12.9719 2.76428 13.3119 2.84363 14.1677C2.97399 15.613 3.08167 17.0582 3.20636 18.6055C2.27687 18.4638 1.75545 17.8914 1.72711 16.8769C1.69877 15.936 1.70444 14.9895 1.72144 14.0487C1.74411 12.4618 2.27687 11.929 3.8298 11.8894C4.39089 11.878 4.95198 11.8894 5.53008 11.8894C5.87013 11.0959 6.18185 10.3704 6.49357 9.63932C6.34621 9.45796 6.23286 9.30493 6.10817 9.16891C3.86947 6.81119 3.86947 6.78285 6.21019 4.44212C6.44256 4.20975 6.67494 3.97738 6.91297 3.74501C8.21086 2.47546 9.00432 2.42445 10.2455 3.74501C10.9767 4.52147 11.5718 4.81052 12.6429 4.2891C13.4364 3.9037 13.6178 3.48997 13.6121 2.70783C13.5951 0.355776 13.9635 0.0157198 16.3042 0.0157198C16.3495 0.0157198 16.4006 0.0157198 16.4459 0.0157198C19.6651 0.0610607 20.4189 -0.636056 20.4472 3.75068C21.7451 4.69717 22.8956 5.00322 24.0858 3.43896C24.834 2.45846 25.9051 2.61149 26.7949 3.4843C27.3334 4.01139 27.8661 4.54414 28.3989 5.08256C29.8611 6.56181 29.9178 7.20792 28.4272 8.59082C27.6564 9.30493 27.5034 9.86603 27.9568 10.8635C28.3422 11.7193 28.7729 11.929 29.6288 11.912C31.8788 11.878 32.2585 12.2918 32.2642 14.5191C32.2642 15.2729 32.2755 16.0267 32.2585 16.7805C32.2415 17.812 31.7711 18.4581 30.6943 18.6112C30.8416 17.3303 30.9606 16.0777 31.142 14.8309C31.346 13.4253 30.853 12.7905 29.3794 13.0116C28.8296 13.0966 28.2572 13.0229 27.6621 13.0229C27.1577 11.8214 26.6703 10.6652 26.1658 9.48063C26.8516 8.63049 27.8661 7.81435 28.1722 6.78851C28.3139 6.31244 27.1067 5.39428 26.4436 4.74251C26.1035 4.41379 25.5424 3.97738 25.2024 4.06806C24.7206 4.19275 24.3465 4.74817 23.9328 5.13357C23.5587 5.4793 23.1904 5.84202 22.89 6.1254C21.6544 5.61532 20.5266 5.14491 19.3364 4.65183C19.3194 4.54414 19.2684 4.36278 19.2627 4.17575C19.1663 0.860194 19.0133 0.707168 15.6298 1.17758C15.2954 1.22292 14.8306 1.75568 14.774 2.11274C14.6379 2.94587 14.7286 3.80168 14.7286 4.61782Z" fill="#2D2D2D"/>
<path d="M9.15168 15.0973C9.03832 10.8466 12.6939 7.32132 17.1373 7.37799C21.4107 7.43467 24.9983 11.0619 24.7943 15.1426C23.9385 15.5507 23.8365 15.0746 23.7004 14.3492C23.0033 10.6935 20.3339 8.45484 16.8256 8.50585C13.5497 8.55686 10.9596 10.8296 10.2455 14.2301C10.1605 14.6495 9.82612 15.0123 9.60508 15.3977C9.45773 15.3013 9.3047 15.1993 9.15168 15.0973Z" fill="#2D2D2D"/>
<path d="M13.6008 16.3896C13.6064 14.5192 15.1367 13.0173 17.0297 13.0343C18.866 13.0513 20.3396 14.5079 20.3736 16.3329C20.4076 18.1805 18.8603 19.7731 17.0127 19.7958C15.1764 19.8185 13.6008 18.2429 13.6008 16.3896ZM16.9447 18.6623C18.1405 18.6849 19.2117 17.6478 19.2344 16.4349C19.257 15.1994 18.2709 14.1848 17.024 14.1678C15.7658 14.1452 14.757 15.1143 14.7343 16.3555C14.7116 17.5684 15.7431 18.6396 16.9447 18.6623Z" fill="#2D2D2D"/>
<path d="M7.35504 15.3013C9.25369 15.2956 10.7669 16.7975 10.7556 18.6792C10.7443 20.5268 9.15167 22.0911 7.31537 22.0571C5.51873 22.0231 4.01682 20.5098 3.98848 18.7132C3.95447 16.8372 5.46772 15.307 7.35504 15.3013ZM7.3267 16.4348C6.07416 16.4575 5.09366 17.4606 5.11633 18.7019C5.139 19.9147 6.20451 20.9519 7.40605 20.9292C8.60758 20.9066 9.63909 19.8297 9.61642 18.6225C9.59941 17.3813 8.58491 16.4121 7.3267 16.4348Z" fill="#2D2D2D"/>
<path d="M23.2187 18.7018C23.196 16.8259 24.7093 15.3013 26.5966 15.3013C28.4386 15.3013 29.9235 16.7238 29.9858 18.5488C30.0482 20.3908 28.5292 22.006 26.6759 22.0571C24.8453 22.1137 23.2414 20.5551 23.2187 18.7018ZM28.8523 18.7132C28.8806 17.4776 27.9001 16.4575 26.6533 16.4348C25.3951 16.4065 24.3806 17.3699 24.3522 18.6112C24.3239 19.8184 25.3497 20.8952 26.5513 20.9292C27.7471 20.9575 28.824 19.9204 28.8523 18.7132Z" fill="#2D2D2D"/>
<path d="M19.155 32.8879C19.1154 34.0385 19.1154 34.0328 15.8395 33.9648C15.148 33.9478 14.4453 34.0045 14.8647 32.8879C16.2532 32.8879 17.6418 32.8879 19.155 32.8879Z" fill="#2D2D2D"/>
</svg>
