<svg width="32" height="33" viewBox="0 0 32 33" fill="none" xmlns="http://www.w3.org/2000/svg">
<path d="M12.8855 17.5713C13.8122 17.5713 14.7182 17.2965 15.4887 16.7816C16.2593 16.2667 16.8599 15.5349 17.2145 14.6787C17.5692 13.8226 17.6619 12.8804 17.4811 11.9715C17.3004 11.0626 16.8541 10.2276 16.1988 9.57234C15.5435 8.91704 14.7086 8.47077 13.7996 8.28997C12.8907 8.10917 11.9486 8.20197 11.0924 8.55661C10.2362 8.91126 9.50438 9.51184 8.98951 10.2824C8.47464 11.0529 8.19983 11.9589 8.19983 12.8856C8.20104 14.128 8.6951 15.3191 9.57357 16.1976C10.452 17.076 11.6432 17.5701 12.8855 17.5713V17.5713ZM12.8855 10.5428C13.3489 10.5428 13.8018 10.6802 14.1871 10.9376C14.5724 11.1951 14.8727 11.561 15.05 11.989C15.2273 12.4171 15.2737 12.8882 15.1833 13.3427C15.0929 13.7971 14.8698 14.2146 14.5421 14.5423C14.2145 14.8699 13.797 15.093 13.3426 15.1834C12.8881 15.2738 12.417 15.2274 11.9889 15.0501C11.5608 14.8728 11.1949 14.5725 10.9375 14.1872C10.6801 13.8019 10.5427 13.349 10.5427 12.8856C10.5435 12.2645 10.7906 11.6691 11.2298 11.2299C11.669 10.7907 12.2644 10.5436 12.8855 10.5428V10.5428Z" fill="#39AFD1"/>
<path d="M31.188 20.5818C31.5747 20.0639 31.833 19.4616 31.9418 18.8245C32.0506 18.1873 32.0067 17.5335 31.8137 16.9166L31.0701 14.4971C30.721 13.3496 30.0112 12.3452 29.0462 11.6329C28.0811 10.9206 26.9122 10.5383 25.7127 10.5428H20.4565C20.1458 10.5428 19.8478 10.6662 19.6282 10.8859C19.4085 11.1056 19.2851 11.4035 19.2851 11.7142C19.2851 12.0249 19.4085 12.3228 19.6282 12.5425C19.8478 12.7622 20.1458 12.8856 20.4565 12.8856H25.7127C26.4107 12.8832 27.0909 13.1058 27.6524 13.5204C28.2139 13.935 28.6268 14.5195 28.83 15.1872L29.5736 17.6056C29.6557 17.8724 29.674 18.1547 29.6271 18.4298C29.5803 18.7049 29.4695 18.9652 29.3037 19.1897C29.138 19.4143 28.9218 19.5968 28.6727 19.7226C28.4236 19.8484 28.1484 19.914 27.8693 19.9141H17.1287C17.0956 19.9141 17.0678 19.9302 17.035 19.933C16.9563 19.9299 16.8802 19.9141 16.8004 19.9141H9.45556C8.15382 19.9094 6.88525 20.3245 5.83816 21.0979C4.79107 21.8713 4.02129 22.9618 3.64309 24.2074L2.76851 27.0481C2.56423 27.7128 2.51875 28.4163 2.63574 29.1018C2.75274 29.7874 3.02893 30.4359 3.44213 30.9953C3.85533 31.5548 4.394 32.0094 5.01486 32.3228C5.63572 32.6362 6.32143 32.7995 7.0169 32.7997H19.2382C19.9337 32.7996 20.6195 32.6363 21.2404 32.323C21.8613 32.0096 22.4 31.5549 22.8133 30.9955C23.2265 30.4361 23.5028 29.7875 23.6198 29.102C23.7368 28.4164 23.6913 27.7129 23.487 27.0481L22.6131 24.2076C22.3916 23.5003 22.0431 22.8392 21.5844 22.257H27.8693C28.5155 22.2599 29.1532 22.1097 29.7301 21.8185C30.307 21.5273 30.8066 21.1035 31.188 20.5818V20.5818ZM20.9289 29.6032C20.7346 29.869 20.4801 30.0849 20.1862 30.2333C19.8923 30.3817 19.5674 30.4583 19.2382 30.4569H7.0169C6.68796 30.4569 6.36362 30.3796 6.06997 30.2314C5.77632 30.0832 5.52155 29.8681 5.32616 29.6035C5.13077 29.3389 5.0002 29.0321 4.94497 28.7079C4.88974 28.3836 4.91138 28.0509 5.00815 27.7365L5.88214 24.8961C6.11433 24.1302 6.58743 23.4598 7.23112 22.9843C7.87481 22.5088 8.65473 22.2538 9.45497 22.257H16.7998C17.6 22.2538 18.3799 22.5089 19.0236 22.9843C19.6673 23.4598 20.1404 24.1302 20.3726 24.8961L21.2466 27.7365C21.3451 28.0506 21.3677 28.3837 21.3125 28.7083C21.2573 29.0328 21.1258 29.3397 20.9289 29.6035V29.6032Z" fill="#39AFD1"/>
<path d="M22.8426 8.19993C23.6535 8.19993 24.4462 7.95948 25.1205 7.50897C25.7947 7.05846 26.3202 6.41813 26.6305 5.66896C26.9408 4.91979 27.022 4.09542 26.8638 3.3001C26.7056 2.50479 26.3151 1.77424 25.7418 1.20085C25.1684 0.627464 24.4378 0.23698 23.6425 0.0787815C22.8472 -0.0794166 22.0228 0.00177645 21.2737 0.312093C20.5245 0.62241 19.8842 1.14791 19.4336 1.82215C18.9831 2.49639 18.7427 3.28907 18.7427 4.09997C18.744 5.18695 19.1764 6.22903 19.945 6.99764C20.7136 7.76626 21.7557 8.19863 22.8426 8.19993ZM22.8426 2.34284C23.1902 2.34284 23.5299 2.44589 23.8189 2.63897C24.1078 2.83205 24.333 3.10647 24.466 3.42754C24.599 3.74862 24.6338 4.10192 24.566 4.44277C24.4982 4.78362 24.3309 5.09671 24.0851 5.34245C23.8394 5.58818 23.5263 5.75554 23.1854 5.82333C22.8446 5.89113 22.4913 5.85634 22.1702 5.72334C21.8491 5.59035 21.5747 5.36513 21.3816 5.07618C21.1886 4.78722 21.0855 4.4475 21.0855 4.09997C21.086 3.63411 21.2713 3.18748 21.6007 2.85807C21.9302 2.52866 22.3768 2.34337 22.8426 2.34284V2.34284Z" fill="#39AFD1"/>
<path d="M0 4.68568C0 4.99636 0.123417 5.29431 0.343101 5.51399C0.562784 5.73368 0.860739 5.8571 1.17142 5.8571H3.51426V8.19993C3.51426 8.51061 3.63767 8.80857 3.85736 9.02825C4.07704 9.24793 4.375 9.37135 4.68568 9.37135C4.99636 9.37135 5.29431 9.24793 5.51399 9.02825C5.73368 8.80857 5.8571 8.51061 5.8571 8.19993V5.8571H8.19993C8.51061 5.8571 8.80857 5.73368 9.02825 5.51399C9.24793 5.29431 9.37135 4.99636 9.37135 4.68568C9.37135 4.375 9.24793 4.07704 9.02825 3.85736C8.80857 3.63767 8.51061 3.51426 8.19993 3.51426H5.8571V1.17142C5.8571 0.860739 5.73368 0.562784 5.51399 0.343101C5.29431 0.123417 4.99636 0 4.68568 0C4.375 0 4.07704 0.123417 3.85736 0.343101C3.63767 0.562784 3.51426 0.860739 3.51426 1.17142V3.51426H1.17142C0.860739 3.51426 0.562784 3.63767 0.343101 3.85736C0.123417 4.07704 0 4.375 0 4.68568V4.68568Z" fill="#39AFD1"/>
</svg>
