<svg width="42" height="36" viewBox="0 0 42 36" fill="none" xmlns="http://www.w3.org/2000/svg">
<path d="M12.8182 36C12.3824 35.7014 11.8981 35.4592 11.5188 35.096C10.4776 34.1033 9.47672 33.0621 8.46781 32.037C7.96739 31.5285 7.93511 31.3187 8.2176 30.673C8.51624 29.9869 8.41938 29.3573 7.91896 28.8489C7.44276 28.3646 6.77284 28.2516 6.09485 28.5421C5.41687 28.8327 5.22316 28.8004 4.69852 28.2839C3.6089 27.2023 2.52735 26.1288 1.43772 25.0392C0.525669 24.1272 0.517598 23.207 1.42965 22.295C8.12882 15.6039 14.828 8.91279 21.5271 2.2217C22.302 1.44686 23.2302 1.42264 24.0454 2.14906C24.5135 2.56877 24.9655 3.01269 25.4417 3.47275C26.1439 2.77055 26.83 2.07642 27.5241 1.39036C28.3232 0.591303 29.3321 0.57516 30.1311 1.36615C31.2853 2.51227 32.4314 3.67453 33.5695 4.82873C33.9569 5.21615 33.9811 5.49057 33.7229 6.0717C33.2709 7.08868 33.8036 8.20252 34.877 8.3478C35.216 8.39623 35.5954 8.2913 35.9263 8.17024C36.459 7.97652 36.7415 7.99267 37.1289 8.38009C38.2428 9.47778 39.3485 10.5674 40.4543 11.6732C41.4148 12.6337 41.4148 13.5457 40.4543 14.5062C33.8036 21.1489 27.1528 27.7996 20.5021 34.4423C19.5658 35.3785 18.6296 35.3705 17.6933 34.4342C17.3139 34.0548 16.9346 33.6755 16.4503 33.1831C16.2082 33.4737 15.9822 33.7723 15.7239 34.0387C15.2719 34.5149 14.8199 34.9992 14.3276 35.435C14.0531 35.6772 13.698 35.8144 13.3751 36C13.1895 36 13.0039 36 12.8182 36ZM13.1411 34.1598C19.8564 27.4606 26.604 20.7211 33.4161 13.9331C32.4879 13.0211 31.5355 12.109 30.6073 11.1728C30.2926 10.858 29.9536 10.745 29.5177 10.8176C29.1868 10.866 28.8397 10.9064 28.5169 10.866C26.6605 10.6078 25.587 8.98544 25.9986 7.08061C26.0632 6.7739 25.9906 6.59634 25.7726 6.37841C25.1431 5.77307 24.5458 5.14351 23.9324 4.52202C23.5853 4.16688 23.2383 3.81982 22.8347 3.40818C21.8823 4.3848 20.9783 5.32107 20.0662 6.24927C19.9048 6.4107 19.8241 6.53177 19.8887 6.79812C20.0582 7.49225 19.4851 8.14602 18.9282 7.89581C18.5004 7.7021 18.3228 7.89581 18.0807 8.13795C13.3187 12.9 8.54045 17.6701 3.76225 22.4403C3.35869 22.8438 2.94705 23.2474 2.53542 23.659C3.54433 24.6679 4.50481 25.6203 5.46529 26.5808C5.49758 26.6131 5.52179 26.6535 5.55408 26.6615C5.76393 26.718 5.98186 26.8391 6.17557 26.8149C6.87777 26.71 7.5719 26.6615 8.23374 26.9602C9.61393 27.5817 10.2677 28.9376 9.94486 30.4954C9.88836 30.7618 9.88029 30.9797 10.0982 31.1895C11.1233 32.1742 12.1241 33.167 13.1411 34.1598ZM19.0089 33.1751C25.8211 26.4436 32.5848 19.7525 39.3243 13.0856C38.3638 12.109 37.4518 11.1808 36.5397 10.2446C36.2411 9.93785 35.886 9.88135 35.4662 9.96206C34.5461 10.1396 33.6986 9.95399 32.9722 9.34057C32.0279 8.54151 31.7938 7.50032 31.9795 6.31384C32.0117 6.09592 32.0279 5.78114 31.8987 5.64392C30.9221 4.62694 29.9051 3.64225 28.8801 2.63334C28.1375 3.34361 27.3869 4.06195 26.6282 4.78837C26.9268 5.07086 27.2093 5.32107 27.4838 5.58743C27.9761 6.0717 28.0084 6.27348 27.742 6.91112C27.4353 7.65367 27.5241 8.28323 28.0165 8.77558C28.5249 9.28407 29.1787 9.37286 29.9132 9.04193C30.4621 8.79172 30.7203 8.83208 31.1481 9.25179C32.2781 10.3656 33.4081 11.4795 34.53 12.6014C35.3936 13.465 35.3936 14.4336 34.5219 15.2891C34.1506 15.6523 33.7309 15.9752 33.3677 16.2899C33.6906 16.9276 34.2394 17.3957 33.5937 17.9607C33.1579 18.332 32.8269 18.2755 32.2135 17.8154C27.4273 22.5694 22.641 27.3153 17.8386 32.0774C18.2744 32.489 18.6941 32.8845 19.0089 33.1751Z" fill="#39AFD1"/>
<path d="M27.4111 16.2173C27.4272 15.5716 27.9196 15.2568 28.541 15.4667C29.1383 15.6684 29.7679 16.3707 29.6145 17.0083C29.5338 17.3715 29.0334 17.7024 28.6783 17.6136C28.0245 17.4441 27.3949 16.75 27.4111 16.2173Z" fill="#39AFD1"/>
<path d="M24.7637 11.9314C24.7718 12.5771 24.239 12.9565 23.666 12.6498C23.3109 12.4561 22.9315 12.2059 22.7216 11.8749C22.5683 11.6328 22.5844 11.197 22.6813 10.9064C22.7862 10.5835 23.3189 10.4705 23.6579 10.5916C24.2713 10.8095 24.7556 11.3987 24.7637 11.9314Z" fill="#39AFD1"/>
<path d="M24.9896 13.7556C25.03 13.0857 25.482 12.7789 26.0793 13.0614C26.4102 13.2148 26.7088 13.4569 26.9671 13.7152C27.2577 14.0139 27.2657 14.6111 27.0478 14.8694C26.7492 15.2165 26.2649 15.3133 25.8613 15.0066C25.4416 14.6918 24.9493 14.3932 24.9896 13.7556Z" fill="#39AFD1"/>
<path d="M22.3424 9.3002C22.3504 10.1073 21.7935 10.4786 21.164 10.2123C20.4375 9.89748 20.0663 9.37284 20.1712 8.79171C20.2761 8.21058 20.72 7.94423 21.2608 8.18636C21.8016 8.4285 22.2132 8.80785 22.3424 9.3002Z" fill="#39AFD1"/>
</svg>
