<svg width="31" height="36" viewBox="0 0 31 36" fill="none" xmlns="http://www.w3.org/2000/svg">
<path d="M9.20629 10.9155C11.4024 10.9155 13.563 10.9155 15.7532 10.9155C15.7532 10.7853 15.7532 10.6728 15.7532 10.5545C15.7532 8.76677 15.7592 6.985 15.7473 5.19732C15.7473 4.8895 15.8184 4.62313 15.9782 4.36267C16.7181 3.15509 17.4403 1.93568 18.1743 0.72218C18.6124 -0.00591718 19.3049 2.33781e-06 19.743 0.734019C20.4829 1.96527 21.2347 3.19653 21.9569 4.43962C22.0812 4.6468 22.1522 4.9191 22.1522 5.1618C22.17 6.985 22.1581 8.81413 22.1581 10.6373C22.1581 10.7557 22.1581 10.8682 22.1581 11.0162C22.3061 11.0162 22.4186 11.0162 22.537 11.0162C23.6203 11.0221 24.7094 10.9747 25.7927 11.0458C28.0362 11.1878 29.8061 13.0643 29.812 15.3137C29.8298 20.3927 29.8298 25.4716 29.812 30.5564C29.8061 32.9361 27.8527 34.8481 25.4731 34.854C18.7781 34.8599 12.0772 34.8658 5.38229 34.854C2.56461 34.8421 0.196815 32.4862 0.190895 29.6567C0.179056 23.3346 0.173137 17.0126 0.190895 10.6906C0.196815 7.90845 2.58237 5.55841 5.37045 5.54065C6.31757 5.53473 7.26469 5.54065 8.21181 5.54065C8.92215 5.54065 9.20629 5.8307 9.20629 6.54696C9.20629 7.89069 9.20629 9.22849 9.20629 10.5722C9.20629 10.6788 9.20629 10.7853 9.20629 10.9155ZM9.20629 12.5493C9.20629 12.6677 9.20629 12.7802 9.20629 12.8986C9.20629 16.8942 9.20629 20.8899 9.20629 24.8855C9.20629 25.5367 8.89847 25.8445 8.24733 25.8445C7.27061 25.8445 6.29389 25.8267 5.31718 25.8504C3.45846 25.8978 1.86611 27.4901 1.801 29.3429C1.72404 31.5331 3.37558 33.2261 5.58947 33.2261C12.1364 33.2261 18.6893 33.2261 25.2363 33.2261C26.9707 33.2261 28.1427 32.0481 28.1427 30.3078C28.1427 28.4432 28.1427 26.5785 28.1427 24.7139C28.1427 21.5943 28.1487 18.4807 28.1368 15.3611C28.1309 13.9167 27.0832 12.7388 25.6566 12.6381C24.6029 12.5671 23.5492 12.6085 22.4896 12.5967C22.3831 12.5967 22.2765 12.5967 22.1463 12.5967C22.1463 12.8571 22.1463 13.0821 22.1463 13.307C22.1463 16.3674 22.1522 19.4219 22.1463 22.4822C22.1404 24.7908 19.8614 26.3358 17.7363 25.4775C16.6944 25.0572 15.7177 23.9739 15.7296 22.3165C15.7592 19.1969 15.7355 16.0833 15.7355 12.9637C15.7355 12.8394 15.7355 12.7151 15.7355 12.5375C13.5571 12.5493 11.4024 12.5493 9.20629 12.5493ZM7.53699 24.1989C7.53699 18.4984 7.53699 12.8453 7.53699 7.16851C6.85033 7.16851 6.19326 7.16259 5.53028 7.16851C3.4111 7.18627 1.81284 8.79045 1.81284 10.9096C1.81284 15.7103 1.81284 20.517 1.81284 25.3177C1.81284 25.4124 1.81284 25.5071 1.81284 25.6373C1.88979 25.59 1.91939 25.5781 1.94899 25.5545C3.06185 24.5777 4.37006 24.1575 5.84401 24.193C6.40045 24.2048 6.9628 24.1989 7.53699 24.1989ZM20.5066 19.7001C20.5125 19.6113 20.5184 19.5462 20.5184 19.4751C20.5184 14.781 20.5184 10.0868 20.5125 5.39266C20.5125 5.27427 20.4711 5.13812 20.4119 5.03749C19.9738 4.28572 19.5299 3.54578 19.0859 2.79992C19.0504 2.74073 18.9971 2.68745 18.9379 2.6105C18.4585 3.40371 17.9849 4.16733 17.535 4.94278C17.4521 5.08485 17.3929 5.26835 17.3929 5.4341C17.387 10.0809 17.387 14.7218 17.387 19.3686C17.387 19.4751 17.387 19.5817 17.387 19.7001C18.4407 19.7001 19.4529 19.7001 20.5066 19.7001ZM20.5007 21.3694C19.4529 21.3694 18.4348 21.3694 17.4166 21.3694C17.4166 21.8488 17.3752 22.3165 17.4285 22.7723C17.5173 23.5359 18.1743 24.0746 18.9439 24.0805C19.7134 24.0805 20.4001 23.5537 20.4888 22.8078C20.5421 22.3402 20.5007 21.8607 20.5007 21.3694Z" fill="#39AFD1"/>
<path d="M18.9557 0.177585C19.2398 0.177585 19.524 0.361089 19.7489 0.734017C20.4829 1.96527 21.2347 3.19653 21.9569 4.43962C22.0812 4.6468 22.1522 4.9191 22.1522 5.1618C22.17 6.985 22.1581 8.81413 22.1581 10.6373C22.1581 10.7557 22.1581 10.8682 22.1581 11.0162C22.2528 11.0162 22.3298 11.0162 22.4067 11.0162C22.4482 11.0162 22.4896 11.0162 22.537 11.0162C22.608 11.0162 22.6731 11.0162 22.7442 11.0162C23.2828 11.0162 23.8156 11.0043 24.3543 11.0043C24.8337 11.0043 25.3132 11.0103 25.7927 11.0399C28.0362 11.1819 29.8061 13.0584 29.812 15.3078C29.8298 20.3867 29.8298 25.4657 29.812 30.5505C29.8061 32.9302 27.8527 34.8421 25.473 34.8481C21.9924 34.854 18.5117 34.854 15.037 34.854C11.8168 34.854 8.6025 34.854 5.3823 34.8481C2.56462 34.8421 0.196823 32.4862 0.190904 29.6567C0.179065 23.3346 0.173145 17.0126 0.190904 10.6906C0.196823 7.90845 2.58238 5.55841 5.37046 5.54065C5.72563 5.54065 6.08672 5.53473 6.44188 5.53473C7.03383 5.53473 7.61986 5.53473 8.20589 5.53473C8.91623 5.53473 9.20037 5.82478 9.20037 6.54104C9.20037 7.88477 9.20037 9.22257 9.20037 10.5663C9.20037 10.6728 9.20037 10.7794 9.20037 10.9155C11.3965 10.9155 13.5571 10.9155 15.7473 10.9155C15.7473 10.7853 15.7473 10.6729 15.7473 10.5545C15.7473 8.76677 15.7532 6.985 15.7414 5.19732C15.7414 4.8895 15.8124 4.62313 15.9723 4.36267C16.7122 3.15509 17.4344 1.93567 18.1684 0.722178C18.3933 0.361089 18.6715 0.177585 18.9557 0.177585ZM17.387 19.7001C18.4407 19.7001 19.4529 19.7001 20.5007 19.7001C20.5066 19.6113 20.5125 19.5462 20.5125 19.4751C20.5125 14.781 20.5125 10.0868 20.5066 5.39266C20.5066 5.27427 20.4652 5.13812 20.406 5.03749C19.9679 4.28571 19.524 3.54578 19.08 2.79992C19.0445 2.74073 18.9912 2.68745 18.932 2.6105C18.4525 3.40371 17.979 4.16732 17.5291 4.94278C17.4462 5.08485 17.387 5.26835 17.387 5.4341C17.3811 10.0809 17.3811 14.7218 17.3811 19.3686C17.387 19.4751 17.387 19.5817 17.387 19.7001ZM1.81284 25.6373C1.8898 25.59 1.91939 25.5781 1.94899 25.5545C3.02042 24.6133 4.27535 24.193 5.67827 24.193C5.73155 24.193 5.79074 24.193 5.84402 24.193C6.0512 24.1989 6.2643 24.1989 6.47148 24.1989C6.82073 24.1989 7.1759 24.193 7.53699 24.193C7.53699 18.4925 7.53699 12.8394 7.53699 7.16259C7.10487 7.16259 6.68458 7.16259 6.27022 7.16259C6.0216 7.16259 5.7789 7.16259 5.53028 7.16259C3.41111 7.18035 1.81284 8.78453 1.81284 10.9037C1.81284 15.7044 1.81284 20.5111 1.81284 25.3118C1.81284 25.4124 1.81284 25.5071 1.81284 25.6373ZM8.09342 25.8386C7.57843 25.8386 7.05751 25.8327 6.54252 25.8327C6.13407 25.8327 5.72563 25.8327 5.31718 25.8445C3.45846 25.8919 1.86612 27.4842 1.801 29.337C1.72405 31.5272 3.37559 33.2202 5.58948 33.2202C8.59066 33.2202 11.5978 33.2202 14.6049 33.2202C18.1506 33.2202 21.6964 33.2202 25.2422 33.2202C26.9766 33.2202 28.1487 32.0422 28.1487 30.3019C28.1487 28.4373 28.1487 26.5726 28.1487 24.708C28.1487 21.5884 28.1546 18.4747 28.1427 15.3552C28.1368 13.9108 27.0891 12.7328 25.6625 12.6322C25.1356 12.5967 24.6088 12.5908 24.082 12.5908C23.6735 12.5908 23.271 12.5967 22.8625 12.5967C22.7382 12.5967 22.6198 12.5967 22.4955 12.5967C22.4541 12.5967 22.4186 12.5967 22.3771 12.5967C22.3061 12.5967 22.2351 12.5967 22.1522 12.5967C22.1522 12.8571 22.1522 13.0821 22.1522 13.307C22.1522 16.3674 22.1581 19.4219 22.1522 22.4822C22.1463 24.3528 20.6487 25.7202 18.9557 25.7202C18.5591 25.7202 18.1447 25.6433 17.7422 25.4834C16.7004 25.0631 15.7236 23.9799 15.7355 22.3224C15.7651 19.2028 15.7414 16.0892 15.7414 12.9696C15.7414 12.8453 15.7414 12.721 15.7414 12.5434C13.5453 12.5434 11.3847 12.5434 9.19445 12.5434C9.19445 12.6618 9.19445 12.7743 9.19445 12.8927C9.19445 16.8883 9.19445 20.884 9.19445 24.8796C9.19445 25.5308 8.88663 25.8386 8.23549 25.8386C8.19405 25.8386 8.1467 25.8386 8.09342 25.8386ZM18.9438 24.0805C19.7134 24.0805 20.3941 23.5478 20.4829 22.8078C20.5421 22.3461 20.4948 21.8666 20.4948 21.3753C19.447 21.3753 18.4288 21.3753 17.4107 21.3753C17.4107 21.8548 17.3693 22.3224 17.4225 22.7782C17.5113 23.5359 18.1743 24.0746 18.9438 24.0805ZM18.9557 0C18.6005 0 18.269 0.224941 18.0263 0.627467C17.7659 1.06551 17.4995 1.50355 17.239 1.94159C16.7832 2.70521 16.3038 3.49842 15.8361 4.27388C15.6585 4.56393 15.5816 4.85991 15.5816 5.20324C15.5875 6.53512 15.5875 7.89661 15.5875 9.20482C15.5875 9.6547 15.5875 10.1046 15.5875 10.5545V10.738H9.38387V10.5663V9.38832C9.38387 8.4412 9.38387 7.48816 9.38387 6.54104C9.38387 5.71823 9.02278 5.35714 8.21181 5.35714C7.92768 5.35714 7.63762 5.35714 7.35349 5.35714C7.05159 5.35714 6.7497 5.35714 6.4478 5.35714C6.03344 5.35714 5.69603 5.35714 5.37046 5.36306C2.47583 5.38082 0.0251578 7.81965 0.0133189 10.6906C-0.00443962 16.7463 -0.00443962 22.9499 0.0133189 29.6626C0.0192383 31.0774 0.58159 32.4211 1.60566 33.4451C2.62973 34.4692 3.96754 35.0316 5.3823 35.0375C8.46635 35.0434 11.6274 35.0434 15.037 35.0434C18.269 35.0434 21.6846 35.0434 25.479 35.0375C27.9592 35.0375 29.9837 33.0249 29.9955 30.5624C30.0133 25.5959 30.0133 20.4696 29.9955 15.3197C29.9896 12.9755 28.1487 11.0221 25.8105 10.8741C25.3902 10.8504 24.9403 10.8386 24.3602 10.8386C24.0938 10.8386 23.8156 10.8386 23.5551 10.8445C23.2947 10.8445 23.0224 10.8504 22.7501 10.8504C22.679 10.8504 22.6139 10.8504 22.5429 10.8504C22.5015 10.8504 22.46 10.8504 22.4127 10.8504H22.3416V10.6492C22.3416 10.217 22.3416 9.77901 22.3416 9.34688C22.3416 7.97948 22.3416 6.56472 22.3298 5.17364C22.3298 4.90134 22.2469 4.59353 22.1108 4.36267C21.5721 3.43331 21.0097 2.50395 20.4652 1.59826C20.2757 1.28453 20.0863 0.970797 19.8969 0.657064C19.6483 0.23086 19.3109 0 18.9557 0ZM17.5646 19.5225V19.3686V17.4033C17.5646 13.4787 17.5646 9.42384 17.5705 5.4341C17.5705 5.30387 17.6179 5.14996 17.6889 5.03157C18.0263 4.45738 18.3637 3.90095 18.7189 3.31492C18.7959 3.18469 18.8728 3.06038 18.9557 2.93015L19.08 3.13733C19.4707 3.78848 19.8732 4.4633 20.258 5.1322C20.3053 5.21508 20.3349 5.31571 20.3349 5.39858C20.3408 9.96251 20.3408 14.6034 20.3408 19.0845V19.4811C20.3408 19.4929 20.3408 19.5107 20.3408 19.5284H17.5646V19.5225ZM1.99043 25.2881C1.99043 23.9088 1.99043 22.5237 1.99043 21.1444C1.99043 17.794 1.99043 14.3252 1.99043 10.9155C1.99043 8.897 3.51174 7.36385 5.53028 7.35201C5.7493 7.35201 5.98608 7.35201 6.2643 7.35201C6.47148 7.35201 6.67866 7.35201 6.88585 7.35201C7.03975 7.35201 7.19366 7.35201 7.35349 7.35201V24.0272C7.22918 24.0272 7.11079 24.0272 6.9924 24.0272C6.81481 24.0272 6.64315 24.0272 6.46556 24.0272C6.22286 24.0272 6.02752 24.0272 5.8381 24.0213C5.7789 24.0213 5.72563 24.0213 5.66643 24.0213C4.26351 24.0154 3.02042 24.4416 1.99043 25.2881ZM9.38387 12.7269H15.5757V12.7979V12.9755C15.5757 13.8931 15.5757 14.8224 15.5816 15.7222C15.5875 17.8887 15.5875 20.1263 15.5697 22.3224C15.5638 23.1215 15.7828 23.8674 16.209 24.4712C16.576 24.998 17.1029 25.4183 17.6889 25.6492C18.1033 25.8149 18.5354 25.8978 18.9675 25.8978C19.8495 25.8978 20.6842 25.5545 21.3235 24.927C21.9746 24.2877 22.3357 23.4175 22.3416 22.4822C22.3476 20.3453 22.3476 18.1669 22.3476 16.0655C22.3476 15.148 22.3476 14.2245 22.3476 13.307V12.7743H22.3949C22.4363 12.7743 22.4719 12.7743 22.5133 12.7743C22.6376 12.7743 22.756 12.7743 22.8803 12.7743C23.0816 12.7743 23.2887 12.7743 23.49 12.7743C23.6913 12.7743 23.8925 12.7743 24.0997 12.7743C24.5614 12.7743 25.112 12.7802 25.6684 12.8157C26.9825 12.9045 27.977 13.9996 27.9829 15.3611C27.9888 17.575 27.9888 19.8303 27.9888 22.0087C27.9888 22.9084 27.9888 23.8082 27.9888 24.7139V26.3299C27.9888 27.6559 27.9888 28.9818 27.9888 30.3078C27.9888 31.9475 26.8937 33.0485 25.2599 33.0485H23.0638C20.2521 33.0485 17.4344 33.0485 14.6226 33.0485C11.6214 33.0485 8.61434 33.0485 5.60724 33.0485C4.57725 33.0485 3.64197 32.6638 2.96714 31.9712C2.30416 31.2845 1.96083 30.3552 1.99043 29.3489C2.04962 27.5908 3.58277 26.0695 5.32902 26.028C5.68419 26.0221 6.07488 26.0162 6.55435 26.0162C6.81481 26.0162 7.06935 26.0162 7.32981 26.0162C7.59027 26.0162 7.8448 26.0162 8.10526 26.0162H8.25325C9.00502 26.0162 9.38979 25.6314 9.38979 24.8796C9.38979 21.8844 9.38979 18.8891 9.38979 15.8938V12.8986V12.7269H9.38387ZM17.5942 21.547H20.3231C20.3231 21.6417 20.329 21.7364 20.329 21.8311C20.3408 22.1626 20.3468 22.4763 20.3112 22.7782C20.2343 23.4175 19.6423 23.897 18.9438 23.897H18.9379C18.2394 23.897 17.6771 23.4116 17.6001 22.7486C17.5646 22.4467 17.5764 22.1448 17.5824 21.8193C17.5883 21.7305 17.5883 21.6417 17.5942 21.547Z" fill="#39AFD1"/>
</svg>
