<svg width="34" height="31" viewBox="0 0 34 31" fill="none" xmlns="http://www.w3.org/2000/svg">
<path d="M26.2027 18.904C26.2027 22.3267 26.1914 25.738 26.2027 29.1607C26.2027 29.9087 25.9874 30.498 25.2507 30.7927C25.0694 30.872 24.854 30.906 24.65 30.906C19.6067 30.906 14.5634 30.906 9.52004 30.906C8.22804 30.906 7.66138 30.3507 7.66138 29.036C7.66138 26.2367 7.66138 23.4487 7.66138 20.6494C7.66138 20.434 7.66138 20.1507 7.77471 20.0034C7.91071 19.822 8.18271 19.652 8.39804 19.6634C8.56804 19.6747 8.78338 19.924 8.87404 20.1167C8.96471 20.3094 8.94204 20.5587 8.94204 20.7854C8.95338 23.5054 8.96471 26.2254 8.95338 28.9454C8.95338 29.478 9.13471 29.6707 9.67871 29.6707C13.2714 29.648 16.8527 29.648 20.4454 29.648C21.7487 29.648 23.052 29.648 24.3554 29.682C24.7747 29.6934 24.922 29.546 24.922 29.1267C24.8994 26.0667 24.888 23.0067 24.888 19.9467C24.888 16.0707 24.8994 12.206 24.8994 8.33001C24.8994 7.89935 25.0694 7.53668 25.5114 7.51401C25.9987 7.49135 26.18 7.87668 26.18 8.33001C26.18 9.97335 26.18 11.6167 26.18 13.26C26.2027 15.1187 26.2027 17.0114 26.2027 18.904Z" fill="#2D2D2D"/>
<path d="M16.9433 8.57923C15.334 8.57923 13.736 8.59056 12.1267 8.56789C11.6507 8.55656 11.5147 8.72656 11.5147 9.19123C11.5374 11.1972 11.5374 13.1919 11.5147 15.1979C11.5147 15.6059 11.6734 15.7419 12.0474 15.7419C12.6707 15.7419 13.294 15.7306 13.9174 15.7419C14.3367 15.7532 14.7447 15.8552 14.7333 16.3879C14.722 16.8979 14.3253 17.0452 13.8947 17.0339C13.0334 17.0112 12.1607 17.0339 11.3107 16.8639C10.4494 16.6939 10.166 15.9346 10.2907 14.9826C10.5287 13.1352 10.5174 11.2652 10.2907 9.40656C10.132 8.08056 10.7214 7.27589 11.9227 7.26456C15.266 7.24189 18.6093 7.24189 21.9413 7.26456C22.9953 7.26456 23.664 8.00123 23.664 9.03256C23.664 10.9819 23.664 12.9199 23.664 14.8692C23.664 16.4219 23.018 17.0679 21.454 17.0679C19.8447 17.0679 18.2467 17.0566 16.6373 17.0452C16.5467 17.0452 16.422 17.0792 16.354 17.0339C16.2973 16.9999 16.252 16.9546 16.1953 16.9206C15.81 16.6259 15.844 16.0139 16.2633 15.7759C16.2633 15.7759 16.2633 15.7759 16.2747 15.7759C16.4787 15.6626 16.7847 15.7192 17.0567 15.7192C18.5867 15.7306 20.1167 15.7192 21.6467 15.7532C22.202 15.7646 22.3607 15.5379 22.3493 15.0052C22.3267 13.0446 22.3267 11.0839 22.3493 9.11189C22.3493 8.63589 22.134 8.53389 21.726 8.54523C20.1167 8.55656 18.5187 8.54523 16.9093 8.54523C16.9433 8.55656 16.9433 8.56789 16.9433 8.57923Z" fill="#2D2D2D"/>
<path d="M33.9999 17.34C33.9999 20.4906 33.9999 23.6526 33.9999 26.8033C33.9999 27.6193 33.5012 28.1973 32.6626 28.2086C31.0419 28.254 29.4099 28.254 27.7892 28.2426C27.3699 28.2426 26.9959 28.0613 26.9959 27.5513C26.9959 27.0186 27.4039 26.9733 27.8006 26.9733C29.2739 26.962 30.7472 26.9506 32.2206 26.9733C32.7079 26.9846 32.8779 26.826 32.8779 26.3273C32.8666 20.3433 32.8666 14.3593 32.8779 8.3753C32.8779 7.88797 32.6966 7.80863 32.2886 7.81997C30.8152 7.8313 29.3419 7.84263 27.8686 7.80863C27.6079 7.80863 27.3019 7.6953 27.1206 7.5253C26.8032 7.20797 27.0412 6.65263 27.5172 6.61863C28.0612 6.5733 28.6166 6.58463 29.1606 6.58463C30.3846 6.58463 31.6199 6.5733 32.8439 6.61863C33.6146 6.65263 33.9999 7.12863 33.9999 7.8993C33.9999 11.0386 33.9999 14.1893 33.9999 17.34Z" fill="#2D2D2D"/>
<path d="M0 17.3173C0 14.144 0 10.9706 0 7.79729C0 7.15129 0.396667 6.62995 1.02 6.61862C2.788 6.57329 4.56733 6.58462 6.34667 6.59595C6.74333 6.59595 7.01533 6.84529 6.97 7.24195C6.92467 7.63862 6.61867 7.84262 6.19933 7.83129C4.73733 7.81995 3.28667 7.84262 1.836 7.79729C1.24667 7.77462 1.122 7.96729 1.122 8.53395C1.14467 14.484 1.13333 20.434 1.122 26.3726C1.122 26.826 1.292 26.9733 1.72267 26.962C2.96933 26.9393 4.216 26.928 5.46267 26.928C5.72333 26.928 5.99533 26.928 6.256 26.962C6.64133 27.0073 7.04933 27.1773 6.92467 27.608C6.85667 27.8686 6.46 28.1633 6.17667 28.1973C5.474 28.288 4.74867 28.254 4.02333 28.254C3.20733 28.254 2.40267 28.2426 1.58667 28.2313C0.51 28.22 0 27.71 0 26.6673C0 23.5506 0 20.434 0 17.3173Z" fill="#2D2D2D"/>
<path d="M7.68402 11.6506C7.68402 9.63329 7.68402 7.61596 7.68402 5.59862C7.68402 4.45396 8.27335 3.83062 9.41802 3.81929C12.8294 3.80796 16.252 3.80796 19.6634 3.81929C19.8334 3.81929 20.026 3.81929 20.162 3.89862C20.332 4.01196 20.5474 4.20462 20.5587 4.36329C20.57 4.55596 20.434 4.85062 20.264 4.95262C20.06 5.08862 19.7654 5.11129 19.516 5.11129C16.218 5.13396 12.9087 5.14529 9.61069 5.13396C9.14602 5.13396 8.98735 5.25862 8.99869 5.74596C9.02135 9.61062 9.01002 13.4866 9.01002 17.3513C9.01002 17.6346 9.04402 17.952 8.91935 18.1786C8.80602 18.4053 8.50002 18.6886 8.29602 18.666C8.09202 18.6546 7.88802 18.3146 7.72935 18.088C7.66135 17.986 7.70669 17.7933 7.70669 17.646C7.68402 15.6513 7.68402 13.6566 7.68402 11.6506Z" fill="#2D2D2D"/>
<path d="M12.5686 24.8199C12.5686 25.3639 12.58 25.8059 12.5686 26.2593C12.5573 26.6106 12.7046 26.7126 13.0446 26.7013C14.348 26.6899 15.6513 26.6899 16.9546 26.6899C17.1246 26.6899 17.3286 26.6446 17.4533 26.7239C17.6573 26.8486 17.918 27.0413 17.9406 27.2339C17.9633 27.4379 17.7706 27.7326 17.5893 27.8573C17.3853 27.9933 17.0906 27.9933 16.83 27.9933C15.4926 27.9933 14.144 27.9933 12.8066 27.9706C11.8546 27.9593 11.322 27.3699 11.3333 26.4293C11.3446 25.9193 11.3333 25.4093 11.3446 24.8993C11.356 24.0946 11.8206 23.5846 12.6253 23.5733C14.5746 23.5506 16.5126 23.5619 18.462 23.5506C19.3346 23.5506 20.196 23.5166 21.0686 23.5279C22.134 23.5506 22.644 24.0833 22.644 25.1486C22.644 25.6019 22.6553 26.0553 22.644 26.5086C22.6213 27.2906 22.0886 27.8799 21.318 27.9366C20.774 27.9819 20.2186 27.9593 19.6746 27.9479C19.244 27.9366 18.9153 27.7213 18.9153 27.2679C18.9153 26.8259 19.278 26.6899 19.6746 26.6786C20.1053 26.6673 20.5586 26.7466 20.978 26.6559C21.8393 26.4746 21.2613 25.7606 21.3973 25.3073C21.4766 25.0466 21.4313 24.7859 21.0233 24.7859C18.224 24.8199 15.436 24.8199 12.5686 24.8199Z" fill="#2D2D2D"/>
<path d="M24.718 6.78866C22.9273 6.89066 21.25 5.34933 21.25 3.37733C21.25 1.57533 22.9047 -0.0226726 24.6953 -5.89168e-06C26.5313 0.0113274 28.0273 1.55266 28.0727 3.41133C28.118 5.47399 26.1913 6.98133 24.718 6.78866ZM26.7807 3.42266C26.8373 2.16466 25.8853 1.31466 24.5933 1.28066C23.4713 1.24666 22.5533 2.20999 22.5533 3.34333C22.5533 4.65799 23.4147 5.56466 24.6613 5.56466C25.908 5.55333 26.7807 4.68066 26.7807 3.42266Z" fill="#2D2D2D"/>
<path d="M30.6453 14.756C30.6453 13.328 30.6453 11.9566 30.6453 10.4946C29.988 10.4946 29.3306 10.4946 28.6846 10.4946C28.322 10.4946 27.9707 10.5173 27.608 10.506C27.234 10.4946 26.9507 10.268 27.0187 9.9053C27.064 9.6673 27.3473 9.30463 27.54 9.30463C28.7073 9.2593 29.8746 9.2593 31.042 9.30463C31.5293 9.3273 31.9033 9.85996 31.9146 10.4153C31.926 11.8886 31.9373 13.362 31.9146 14.8353C31.9033 15.538 31.4273 16.014 30.736 16.0366C29.7953 16.0593 28.8433 16.0593 27.9027 16.0706C27.7893 16.0706 27.642 16.0933 27.574 16.0366C27.3587 15.8326 27.064 15.6286 27.0187 15.3793C26.9393 14.994 27.268 14.824 27.6307 14.8126C28.458 14.79 29.2966 14.79 30.124 14.7786C30.2713 14.756 30.4186 14.756 30.6453 14.756Z" fill="#2D2D2D"/>
<path d="M3.26398 10.4833C3.26398 11.8546 3.25264 13.1579 3.28664 14.4499C3.28664 14.5633 3.53598 14.7446 3.67198 14.7559C4.19331 14.7899 4.72598 14.7559 5.25864 14.7559C5.57598 14.7559 5.90464 14.7333 6.22198 14.7673C6.60731 14.8013 6.96998 14.9486 6.94731 15.4019C6.93598 15.8553 6.58464 16.0366 6.16531 16.0366C5.16798 16.0479 4.17064 16.0593 3.16198 16.0253C2.48198 16.0139 2.05131 15.5493 2.05131 14.8693C2.03998 13.3733 2.03998 11.8886 2.03998 10.3926C2.03998 9.73528 2.47064 9.27062 3.11664 9.25928C4.11398 9.23662 5.11131 9.24795 6.11998 9.24795C6.56198 9.24795 6.94731 9.41795 6.93598 9.90528C6.92464 10.4153 6.51664 10.4946 6.07464 10.4946C5.15664 10.4833 4.23864 10.4833 3.26398 10.4833Z" fill="#2D2D2D"/>
<path d="M30.6793 23.3126C30.6793 22.7913 30.6567 22.3833 30.6907 21.9639C30.7133 21.5673 30.5773 21.4313 30.1807 21.4426C29.41 21.4653 28.6393 21.4653 27.8687 21.4539C27.438 21.4426 26.9847 21.3973 27.0187 20.8079C27.0527 20.2866 27.4493 20.2073 27.8687 20.1959C28.73 20.1846 29.6027 20.1619 30.464 20.1733C31.4273 20.1846 31.926 20.6833 31.9373 21.6353C31.9373 22.2019 31.9487 22.7686 31.9373 23.3353C31.9147 24.1059 31.4613 24.5593 30.702 24.5706C29.7387 24.5819 28.7753 24.5706 27.8233 24.5706C27.3813 24.5706 27.0073 24.4573 27.0073 23.9359C27.0073 23.4033 27.3927 23.3126 27.8233 23.3126C28.7527 23.3239 29.6933 23.3126 30.6793 23.3126Z" fill="#2D2D2D"/>
<path d="M3.26399 23.3353C4.24999 23.3353 5.15666 23.3353 6.05199 23.3353C6.59599 23.3353 6.99266 23.6073 6.94733 23.97C6.89066 24.4687 6.52799 24.582 6.08599 24.5707C5.14533 24.5593 4.20466 24.5707 3.25266 24.5707C2.43666 24.5593 2.05133 24.1627 2.03999 23.358C2.02866 22.712 2.02866 22.0773 2.03999 21.4313C2.05133 20.6947 2.48199 20.23 3.22999 20.2073C4.20466 20.1733 5.19066 20.1733 6.16533 20.1733C6.59599 20.1733 6.92466 20.3887 6.93599 20.8307C6.95866 21.284 6.59599 21.4427 6.21066 21.454C5.40599 21.4767 4.58999 21.488 3.78533 21.454C3.39999 21.4427 3.22999 21.5333 3.25266 21.9413C3.28666 22.372 3.26399 22.8027 3.26399 23.3353Z" fill="#2D2D2D"/>
<path d="M17.0567 22.2926C15.5267 22.2926 14.008 22.2926 12.478 22.2926C12.2967 22.2926 12.07 22.2926 11.934 22.1906C11.7754 22.0773 11.594 21.862 11.5827 21.6806C11.5714 21.4993 11.7074 21.25 11.8547 21.1366C12.0134 21.0233 12.274 21.0006 12.4894 21.0006C15.4474 20.9893 18.4054 21.0006 21.3747 21.0006C21.4087 21.0006 21.454 21.0006 21.488 21.0006C22.134 21.012 22.5647 21.284 22.5534 21.6806C22.542 22.1113 22.1454 22.3266 21.4654 22.3153C19.992 22.304 18.5187 22.3153 17.0567 22.3153C17.0567 22.304 17.0567 22.2926 17.0567 22.2926Z" fill="#2D2D2D"/>
<path d="M17.0567 18.5413C18.5867 18.5413 20.1167 18.5413 21.6467 18.5413C22.2247 18.5413 22.5874 18.7793 22.5307 19.1646C22.4627 19.6519 22.1227 19.7766 21.6694 19.7766C18.6321 19.7766 15.5947 19.7879 12.5461 19.7993C12.4327 19.7993 12.3194 19.7993 12.2061 19.7879C11.8207 19.7426 11.5601 19.5499 11.5714 19.1419C11.5714 18.7113 11.8434 18.5526 12.2401 18.5526C13.8494 18.5413 15.4474 18.5413 17.0567 18.5413Z" fill="#2D2D2D"/>
<path d="M28.8207 18.53C28.424 18.53 28.0274 18.5413 27.6307 18.53C27.2454 18.5073 26.9167 18.326 27.0074 17.9066C27.0641 17.6573 27.37 17.3173 27.5854 17.2946C28.4127 17.2266 29.24 17.2493 30.0674 17.306C30.43 17.3286 30.6907 17.578 30.668 17.9973C30.6454 18.4053 30.3507 18.53 29.9994 18.5413C29.614 18.5413 29.2174 18.53 28.8207 18.53Z" fill="#2D2D2D"/>
<path d="M5.15669 18.5186C4.78269 18.5186 4.40869 18.5413 4.02336 18.5186C3.66069 18.496 3.40002 18.3033 3.40002 17.918C3.38869 17.4986 3.69469 17.306 4.05736 17.2833C4.79402 17.2493 5.53069 17.2493 6.25602 17.2833C6.64136 17.306 6.97002 17.51 6.94736 17.952C6.92469 18.3713 6.59602 18.5073 6.23336 18.5186C5.87069 18.5413 5.50802 18.53 5.15669 18.5186C5.15669 18.5186 5.15669 18.53 5.15669 18.5186Z" fill="#2D2D2D"/>
</svg>
