<svg width="36" height="21" viewBox="0 0 36 21" fill="none" xmlns="http://www.w3.org/2000/svg">
<path d="M6.12452 18.2551C9.24407 15.5887 12.1318 13.1015 15.1775 10.4983C12.1528 7.90573 9.26515 5.42906 6.35638 2.93131C6.20883 3.08939 6.13506 3.14209 6.0929 3.2264C5.80835 3.86928 5.48164 5.08127 5.24978 5.06019C3.9324 4.96534 4.46989 3.80605 4.48043 3.08939C4.51205 1.28722 5.77673 0.0330761 7.61052 0.0225371C15.989 -0.00908002 24.357 -0.00908002 32.7356 0.0330761C34.5904 0.0436151 35.8973 1.19237 35.9289 3.05778C36.0237 8.01112 36.0237 12.9539 35.9289 17.9073C35.8973 19.7938 34.601 20.9636 32.7566 20.9636C24.3781 21.0057 16.0101 21.0057 7.6316 20.9741C5.34463 20.9636 3.78486 18.6977 4.46989 16.5161C4.55421 16.2421 4.94415 15.8838 5.18655 15.8732C5.45002 15.8732 5.85051 16.1999 5.94536 16.474C6.12452 16.9061 6.07183 17.4119 6.12452 18.2551ZM7.4419 1.71932C11.6154 5.30259 15.4726 8.63292 19.3932 11.9C19.7199 12.174 20.5946 12.153 20.9951 11.9C21.9225 11.3204 22.7129 10.5194 23.5455 9.79222C26.6018 7.168 29.6582 4.54378 32.9569 1.71932C24.357 1.71932 16.0944 1.71932 7.4419 1.71932ZM32.999 19.2984C29.8268 16.5794 26.9286 14.0921 24.0619 11.6365C20.3522 14.2608 20.3522 14.2608 16.3158 11.6787C13.4597 14.1238 10.5825 16.6004 7.42082 19.2984C16.0839 19.2984 24.336 19.2984 32.999 19.2984ZM34.2742 2.73107C31.0915 5.47121 28.2038 7.94789 25.2318 10.4983C28.2881 13.112 31.1652 15.5781 34.2742 18.2234C34.2742 12.9539 34.2742 8.04274 34.2742 2.73107Z" fill="#2D2D2D"/>
<path d="M7.33649 11.784C7.44188 11.7945 7.54727 11.8367 7.65266 11.9105C8.15853 12.2477 8.11637 13.0381 7.54727 13.27C7.49457 13.2911 7.43134 13.3122 7.37864 13.3122C5.13383 13.3754 2.87848 13.3754 0.633669 13.3122C0.549357 13.3122 0.454506 13.27 0.370194 13.2173C-0.12514 12.9117 -0.125141 12.1634 0.380733 11.8683C0.454506 11.8262 0.528279 11.7945 0.602052 11.7945C1.67703 11.6786 6.19827 11.6681 7.33649 11.784Z" fill="#2D2D2D"/>
<path d="M2.92063 9.2126C2.84686 9.20206 2.78363 9.17044 2.70985 9.13882C2.25667 8.87535 2.17236 8.22193 2.56231 7.85306C2.63608 7.77929 2.72039 7.72659 2.79416 7.72659C4.41717 7.65282 6.04018 7.65282 7.66319 7.72659C7.91613 7.73713 8.32715 7.94791 8.32715 8.58025C8.32715 8.74888 7.90559 9.18098 7.63158 9.2126C6.86223 9.29691 3.70052 9.31799 2.92063 9.2126Z" fill="#2D2D2D"/>
</svg>
