<svg width="45" height="22" viewBox="0 0 45 22" fill="none" xmlns="http://www.w3.org/2000/svg">
<path d="M27.4542 0H2.25445C1.00198 0 0 1.05208 0 2.30455V18.8873C0 20.1398 1.00198 21.1918 2.30455 21.1918H27.4542C28.7067 21.1918 29.7588 20.1899 29.7588 18.8873V2.30455C29.7087 1.05208 28.7067 0 27.4542 0ZM2.25445 2.20435H27.4041C27.4542 2.20435 27.4542 2.25445 27.4542 2.25445V17.5847L19.0877 11.3725L18.0356 12.174L26.0013 18.8873H4.4087L11.9736 12.5247L10.9216 11.7231L2.20435 18.1859V2.30455C2.20435 2.25445 2.20435 2.20435 2.25445 2.20435Z" fill="#39AFD1"/>
<path d="M14.8293 13.176L14.8794 13.2261L25.851 5.00989V3.40672L14.8293 10.7212L3.8576 3.40672V5.00989L14.7792 13.2261L14.8293 13.176Z" fill="#39AFD1"/>
<path d="M41.8939 6.86355H31.9242C31.323 6.86355 30.822 6.36256 30.822 5.76137C30.822 5.16018 31.323 4.65919 31.9242 4.65919H41.8939C42.4951 4.65919 42.9961 5.16018 42.9961 5.76137C42.9961 6.36256 42.4951 6.86355 41.8939 6.86355Z" fill="#39AFD1"/>
<path d="M43.8978 12.3744H33.9281C33.3269 12.3744 32.8259 11.8734 32.8259 11.2723C32.8259 10.6711 33.3269 10.1701 33.9281 10.1701H43.8978C44.499 10.1701 45 10.6711 45 11.2723C45 11.8734 44.5491 12.3744 43.8978 12.3744Z" fill="#39AFD1"/>
<path d="M41.8939 17.8853H31.9242C31.323 17.8853 30.822 17.3843 30.822 16.7831C30.822 16.1819 31.323 15.681 31.9242 15.681H41.8939C42.4951 15.681 42.9961 16.1819 42.9961 16.7831C42.9961 17.3843 42.4951 17.8853 41.8939 17.8853Z" fill="#39AFD1"/>
</svg>
