<svg width="44" height="26" viewBox="0 0 44 26" fill="none" xmlns="http://www.w3.org/2000/svg">
<path d="M43.6573 21.7474C43.7754 15.69 43.7754 9.54402 43.6573 3.4719C43.6277 1.40353 42.1946 0.0443221 40.0228 0.0443221C34.6451 0.014774 29.0753 0 23.4464 0C18.8073 0 13.9762 0.014774 9.08602 0.0295481C7.00288 0.0443221 5.5698 1.44785 5.52548 3.51622C5.52548 3.72306 5.49593 3.94467 5.45161 4.18105C5.37774 4.65382 5.30387 5.12659 5.51071 5.39252C5.61413 5.52549 5.82096 5.61413 6.10167 5.64368C6.23463 5.46639 6.44147 4.87543 6.58921 4.4913C6.7074 4.16628 6.8256 3.84125 6.94379 3.57532C7.00288 3.45712 7.07675 3.38325 7.1654 3.29461C7.20972 3.25029 7.25404 3.20596 7.31314 3.14687L7.5052 2.94003L7.72681 3.13209C10.9475 5.85052 14.4047 8.80532 18.6005 12.4102L18.8664 12.6318L18.6005 12.8534C16.739 14.449 14.8774 16.0298 13.0898 17.5811C11.2726 19.1471 9.3815 20.7575 7.46088 22.4122L7.01766 22.7963L6.97334 22.2054C6.95856 21.8951 6.94379 21.6292 6.94379 21.3928C6.92901 20.8314 6.91424 20.4325 6.78127 20.1075V20.0927V20.0779C6.69263 19.8415 6.3085 19.546 6.13122 19.5313C5.98348 19.546 5.59935 19.8711 5.52548 20.1075C5.14136 21.3337 5.34819 22.6338 6.10167 23.6532C6.8256 24.6431 7.93365 25.2045 9.13034 25.2045C14.0058 25.2193 18.8517 25.234 23.4907 25.234C29.1196 25.234 34.6894 25.2193 40.0524 25.1897C42.2094 25.2193 43.6277 23.8601 43.6573 21.7474ZM42.2094 2.42294V3.073V22.1463V22.7816L41.7219 22.3679C38.767 19.8563 36.0339 17.5072 33.1381 15.0252C32.296 14.316 31.4539 13.5921 30.597 12.8534L30.3311 12.6318L30.597 12.4102L32.0005 11.2135C35.1031 8.55416 38.3091 5.79142 41.7366 2.85139L42.2094 2.42294ZM10.785 3.84125C10.0907 3.25029 9.39628 2.64455 8.68712 2.03882L8.08139 1.52173H8.87919H40.2888H41.0866L40.4808 2.03882C36.418 5.51071 32.5915 8.80532 28.898 11.9817C28.6468 12.2033 28.3957 12.425 28.1593 12.6466C27.391 13.3409 26.608 14.0501 25.7216 14.5967C25.4409 14.774 24.9829 14.8922 24.5249 14.8922C24.2442 14.8922 23.7271 14.8479 23.4021 14.582C19.2358 11.1101 15.1286 7.57908 10.785 3.84125ZM8.84964 23.7566H8.05184L8.65758 23.2395C11.0953 21.1564 13.4148 19.1767 15.6457 17.2561C16.9754 16.1037 18.2902 14.9809 19.6051 13.858L19.7676 13.7103L19.9597 13.8285C22.3826 15.3798 23.6089 16.1628 24.7022 16.1628C25.8102 16.1628 26.9331 15.365 29.1639 13.7842L29.356 13.6512L29.5333 13.7989C31.6164 15.5866 33.7143 17.3743 35.8713 19.2358C37.3783 20.5359 38.9296 21.8508 40.5252 23.2248L41.1309 23.7419H40.3479H8.84964V23.7566Z" fill="#2D2D2D"/>
<path d="M8.89397 15.7639C9.1008 15.6753 9.24854 15.4832 9.26332 15.2469C9.29286 14.9957 9.17467 14.7445 8.96784 14.6116C8.87919 14.5525 8.79055 14.5082 8.71668 14.5082C8.11094 14.4491 6.61877 14.4047 4.80156 14.4047V14.1093V14.4047C2.83661 14.4047 1.10805 14.4491 0.487543 14.5229H0.472769H0.457995C0.443221 14.5229 0.413673 14.5229 0.325029 14.582C0.132966 14.7002 0.014774 14.9071 0 15.1434C0 15.3946 0.118192 15.6014 0.310255 15.7344C0.398899 15.7935 0.457995 15.8083 0.472769 15.8083C1.84675 15.8526 3.23551 15.8674 4.6095 15.8674C5.98348 15.8674 7.38701 15.8526 8.74623 15.8083C8.80532 15.7935 8.83487 15.7935 8.89397 15.7639Z" fill="#2D2D2D"/>
<path d="M6.01299 10.8442C7.35742 10.8442 8.61321 10.8147 9.07121 10.7556C9.2485 10.7408 9.60307 10.3862 9.66217 10.2532C9.6474 9.54409 9.14508 9.51454 9.13031 9.51454C8.14045 9.47022 7.13581 9.44067 6.14595 9.44067C5.15609 9.44067 4.15146 9.47022 3.1616 9.51454C3.14682 9.51454 3.11728 9.54409 3.07295 9.58841C2.91044 9.73615 2.83657 9.95776 2.86612 10.1794C2.89566 10.401 3.01386 10.593 3.19115 10.6965L3.22069 10.7112C3.27979 10.7408 3.32411 10.7556 3.36843 10.7556C3.75256 10.8147 4.74242 10.8442 6.01299 10.8442Z" fill="#2D2D2D"/>
</svg>
