<svg width="32" height="32" viewBox="0 0 32 32" fill="none" xmlns="http://www.w3.org/2000/svg">
<path d="M10.6775 27.2259C3.70855 26.6611 0.0322561 20.9069 0.000288307 16.165C-0.0423354 10.2616 4.64627 5.08287 10.6882 4.80582C10.6882 3.94269 10.6882 3.07956 10.6882 2.21643C10.6882 0.511484 11.1677 0.0213118 12.8513 0.0213118C16.9219 0.0213118 20.9818 0.0213118 25.0523 0C25.6065 0 26.022 0.170495 26.4163 0.575419C28.0999 2.28037 29.7942 3.97466 31.4992 5.65829C31.8402 5.98862 32 6.35092 32 6.83044C31.9893 14.5879 31.9893 22.3561 31.9893 30.1136C31.9893 31.3817 31.3926 31.9677 30.1246 31.9677C24.2638 31.9677 18.4031 31.9677 12.5423 31.9677C11.2742 31.9677 10.6882 31.3817 10.6775 30.1136C10.6775 29.1759 10.6775 28.2169 10.6775 27.2259ZM11.7538 15.483C12.0415 15.483 12.2333 15.483 12.4251 15.483C15.462 15.483 18.499 15.483 21.5359 15.483C22.2818 15.483 22.431 15.6109 22.399 16.3462C22.2285 20.0651 20.6301 23.0061 17.6252 25.1906C16.0055 26.3627 14.162 26.9488 12.1907 27.1726C11.8497 27.2152 11.7431 27.3431 11.7538 27.6734C11.7751 28.4406 11.7538 29.1972 11.7644 29.9644C11.7751 30.8276 11.8816 30.9341 12.7554 30.9341C18.467 30.9341 24.1892 30.9341 29.9008 30.9341C30.8598 30.9341 30.9344 30.8595 30.9344 29.9112C30.9344 22.4733 30.9344 15.0355 30.9344 7.59767C30.9344 7.40586 30.9344 7.22471 30.9344 6.96897C30.6787 6.96897 30.4869 6.96897 30.2951 6.96897C29.1549 6.96897 28.0253 6.97962 26.8852 6.96897C25.681 6.95831 25.095 6.36158 25.0843 5.15746C25.0737 4.00662 25.0523 2.84513 25.0843 1.69429C25.095 1.22543 24.9564 1.09756 24.4876 1.09756C20.6195 1.11887 16.7514 1.10822 12.8726 1.10822C11.839 1.10822 11.7538 1.19346 11.7538 2.22709C11.7538 6.43617 11.7538 10.6453 11.7538 14.8543C11.7538 15.0355 11.7538 15.2273 11.7538 15.483ZM4.46512 23.443C7.03319 25.9791 11.7538 27.1513 15.9202 24.9668C19.7031 22.9848 21.408 18.9142 21.2056 16.538C21.0031 16.538 20.8006 16.538 20.5875 16.538C17.753 16.538 14.9079 16.5486 12.0734 16.538C11.6259 16.538 11.3062 16.6659 10.9972 16.9855C9.08978 18.9142 7.16106 20.8323 5.23234 22.7397C4.99791 22.9848 4.74217 23.1979 4.46512 23.443ZM10.6882 5.98862C7.76845 5.93534 3.59133 7.91734 1.83311 12.233C0.192095 16.2609 1.53474 20.5872 3.72986 22.6864C3.79379 22.6332 3.86839 22.5799 3.93232 22.5266C6.07416 20.3741 8.22665 18.2323 10.3578 16.0691C10.5496 15.8667 10.6669 15.5044 10.6669 15.2166C10.6988 13.2986 10.6882 11.3805 10.6882 9.46245C10.6882 8.32227 10.6882 7.17143 10.6882 5.98862ZM26.1392 2.13118C26.1392 3.17546 26.1179 4.25171 26.1606 5.32796C26.1712 5.51976 26.4483 5.83944 26.6188 5.8501C27.727 5.89272 28.8245 5.87141 29.9754 5.87141C28.6647 4.60335 27.4073 3.37792 26.1392 2.13118Z" fill="#2D2D2D"/>
<path d="M18.6587 14.4175C16.9857 14.4175 15.3234 14.4175 13.6504 14.4175C12.9258 14.4175 12.8086 14.3003 12.8086 13.5863C12.8086 10.251 12.8086 6.91573 12.8086 3.56977C12.8086 2.82386 12.9471 2.68533 13.725 2.69599C18.7333 2.74927 23.4538 6.75589 24.3063 11.7109C24.4022 12.2863 24.4662 12.8724 24.5088 13.4585C24.5621 14.3429 24.4768 14.4175 23.6137 14.4281C21.962 14.4175 20.3104 14.4175 18.6587 14.4175ZM13.9275 13.3093C17.0923 13.3093 20.2145 13.3093 23.3473 13.3093C23.4432 8.35428 18.5628 3.76158 13.9275 3.88945C13.9275 7.01163 13.9275 10.1445 13.9275 13.3093Z" fill="#2D2D2D"/>
<path d="M25.0843 29.8685C22.4203 29.8792 20.2891 27.7586 20.2785 25.084C20.2678 22.4307 22.4203 20.2889 25.0736 20.2782C27.695 20.2782 29.8475 22.42 29.8582 25.0414C29.8795 27.7054 27.7483 29.8579 25.0843 29.8685ZM28.7926 25.0947C28.8139 23.0594 27.1302 21.3438 25.095 21.3331C23.0597 21.3225 21.3441 23.0061 21.3334 25.0307C21.3228 27.0767 22.9957 28.7816 25.031 28.7923C27.077 28.8136 28.7819 27.1299 28.7926 25.0947Z" fill="#2D2D2D"/>
<path d="M25.6277 10.1124C25.6277 9.76078 25.6277 9.46241 25.6277 9.13208C27.0236 9.13208 28.3982 9.13208 29.8048 9.13208C29.8048 9.46241 29.8048 9.77144 29.8048 10.1124C28.4195 10.1124 27.0449 10.1124 25.6277 10.1124Z" fill="#2D2D2D"/>
<path d="M25.6277 13.2987C25.6277 12.9577 25.6277 12.6593 25.6277 12.329C27.0236 12.329 28.3876 12.329 29.8048 12.329C29.8048 12.638 29.8048 12.947 29.8048 13.2987C28.4408 13.2987 27.0556 13.2987 25.6277 13.2987Z" fill="#2D2D2D"/>
<path d="M25.6384 15.5044C27.0344 15.5044 28.3983 15.5044 29.8049 15.5044C29.8049 15.8241 29.8049 16.1331 29.8049 16.4847C28.4409 16.4847 27.0557 16.4847 25.6384 16.4847C25.6384 16.1757 25.6384 15.8667 25.6384 15.5044Z" fill="#2D2D2D"/>
<path d="M22.0048 25.5209C22.3458 25.2225 22.5908 24.9987 22.8466 24.7643C23.2302 25.1479 23.5818 25.4996 23.9122 25.8299C24.8819 24.9241 25.8302 24.0397 26.8106 23.1233C27.0237 23.3577 27.2901 23.6348 27.5032 23.8692C26.5229 24.8815 25.5638 25.8725 24.5941 26.8529C24.104 27.343 23.9122 27.3324 23.4007 26.8529C22.9531 26.416 22.5056 25.9897 22.0048 25.5209Z" fill="#2D2D2D"/>
</svg>
