<svg width="37" height="36" viewBox="0 0 37 36" fill="none" xmlns="http://www.w3.org/2000/svg">
<path d="M33.5569 1.53754C32.9443 1.53754 32.3316 1.53754 31.731 1.53754C31.1905 1.53754 30.65 1.53754 30.1094 1.53754C29.2686 1.53754 29.0043 1.18919 29.2926 0.384384C29.3527 0.228228 29.5809 0.024024 29.7491 0.024024C31.695 0 33.653 0 35.635 0C35.8392 0 36.0073 0.168168 36.0073 0.372372V6.35435C36.0073 6.69069 35.7431 6.96697 35.4187 7.003C34.9142 7.03904 34.698 6.83483 34.698 6.30631C34.722 5.15315 34.71 3.98799 34.71 2.69069C34.4818 2.88288 34.3256 2.97898 34.2055 3.11111C30.686 6.63063 27.1545 10.1501 23.635 13.6937C23.2746 14.0661 22.9022 14.2222 22.3737 14.2222C18.5659 14.1982 14.7701 14.1982 10.9623 14.2222C10.6259 14.2222 10.2175 14.3784 9.95327 14.6066C7.05837 17.1051 4.1875 19.6276 1.31663 22.1381C0.800115 22.5826 0.716031 22.5706 0.151466 21.8859C-0.18487 21.4775 0.103418 21.2733 0.391707 21.021C3.3827 18.4264 6.34967 15.7958 9.35267 13.2132C9.64096 12.961 10.0854 12.7808 10.4698 12.7808C14.2295 12.7447 17.9893 12.7568 21.7611 12.7688C22.2896 12.7688 22.662 12.6126 23.0223 12.2402C26.3256 8.92492 29.6289 5.60961 32.9443 2.30631C33.1605 2.09009 33.4007 1.88589 33.6169 1.68168C33.5929 1.60961 33.5929 1.60961 33.5569 1.53754Z" fill="#2D2D2D"/>
<path d="M5.76107 25.4054C8.05537 25.6096 8.60792 25.8138 8.90822 26.1021C9.11242 26.2943 9.56888 26.5706 9.54486 26.7748C9.50882 27.051 9.1845 27.3874 8.89621 27.5195C7.45477 28.1561 5.91723 28.2522 4.37969 28.0961C3.40672 28 2.43375 27.7237 1.4848 27.4474C1.25657 27.3874 0.944257 27.027 0.956269 26.8228C0.980293 26.5706 1.25657 26.2703 1.49681 26.1261C2.66197 25.4775 3.97128 25.5616 5.76107 25.4054Z" fill="#2D2D2D"/>
<path d="M30.674 13.4775C31.9113 13.4295 33.1725 13.4174 34.3017 14.018C34.5659 14.1622 34.8782 14.4625 34.9143 14.7268C34.9383 14.931 34.5899 15.2553 34.3377 15.3874C33.1845 15.988 31.9113 16.0841 30.662 16.0601C29.5569 16.0361 28.4518 15.7718 27.3587 15.5916C27.1305 15.5556 26.9143 15.4234 26.7101 15.3033C26.1575 14.955 26.1455 14.3784 26.7701 14.1021C27.3947 13.8138 28.0794 13.6096 28.7641 13.5015C29.3887 13.3934 30.0374 13.4775 30.674 13.4775Z" fill="#2D2D2D"/>
<path d="M17.9412 23.3033C16.68 23.2072 15.3707 23.2793 14.2055 22.6426C13.9533 22.5105 13.653 22.1862 13.653 21.9579C13.653 21.7297 13.9653 21.4054 14.2055 21.2853C15.743 20.5766 17.3767 20.5165 19.0223 20.6967C19.9232 20.7928 20.8121 21.057 21.677 21.3213C21.9172 21.3934 22.2055 21.7537 22.2175 22.006C22.2295 22.2102 21.9172 22.4985 21.677 22.6306C20.5238 23.2673 19.2265 23.2072 17.9412 23.3033Z" fill="#2D2D2D"/>
<path d="M5.37669 33.033C3.9833 32.9009 2.67399 32.8648 1.50883 32.2042C1.25657 32.06 1.01633 31.7958 0.908226 31.5195C0.824142 31.3273 0.920238 31.015 1.01633 30.7988C1.04036 30.7387 1.41273 30.8108 1.60492 30.8709C4.03135 31.7117 6.44576 31.7117 8.8842 30.8829C8.8842 30.8829 8.8842 30.8829 8.89621 30.8829C9.23255 30.7748 9.5809 31.063 9.55687 31.4114C9.54486 31.6156 9.50883 31.7958 9.41273 31.8678C8.89621 32.2402 8.2836 32.5405 7.65898 32.6967C6.87819 32.9129 6.06138 32.9369 5.37669 33.033Z" fill="#2D2D2D"/>
<path d="M30.662 18.5465C29.4127 18.4865 28.2115 18.3423 27.0704 17.8498C26.6139 17.6456 26.2295 17.3934 26.2175 16.8168C26.2055 16.3483 26.4217 16.1441 26.8421 16.3243C28.68 17.0931 30.5779 17.1171 32.4878 16.8529C33.0403 16.7808 33.5689 16.5766 34.1094 16.4685C34.1094 16.4685 34.1094 16.4685 34.1214 16.4685C34.5659 16.3724 34.9502 16.8168 34.8181 17.2492C34.7941 17.3453 34.746 17.4294 34.686 17.4895C34.3737 17.8018 33.8812 18.018 33.4247 18.1261C32.5238 18.2943 31.5869 18.4024 30.662 18.5465Z" fill="#2D2D2D"/>
<path d="M30.734 33.033C29.3286 32.9009 28.0313 32.8528 26.8542 32.2042C26.6379 32.0841 26.3977 31.8919 26.3256 31.6757C26.3016 31.6036 26.2896 31.5195 26.2896 31.4354C26.2776 31.063 26.6499 30.7748 26.9983 30.8949C26.9983 30.8949 26.9983 30.8949 27.0103 30.8949C29.4247 31.7237 31.8271 31.7117 34.2415 30.8949H34.2536C34.5899 30.7868 34.9382 31.039 34.9142 31.3874C34.9022 31.6036 34.8782 31.8078 34.7701 31.8799C34.2536 32.2522 33.6289 32.5525 33.0163 32.7087C32.2355 32.9129 31.4187 32.9489 30.734 33.033Z" fill="#2D2D2D"/>
<path d="M31.1064 20.949C29.2806 20.8649 27.9953 20.7448 26.8181 20.0961C26.6019 19.976 26.3857 19.7718 26.3136 19.5556C26.2896 19.4835 26.2776 19.4114 26.2776 19.3394C26.2776 18.967 26.6379 18.6787 26.9983 18.7988C26.9983 18.7988 26.9983 18.7988 27.0103 18.7988C29.1485 19.5676 31.3106 19.5436 33.4968 19.0511C33.7491 18.991 33.9773 18.8469 34.2295 18.7988C34.2295 18.7988 34.2295 18.7988 34.2415 18.7988C34.6139 18.7147 34.9382 19.0511 34.8902 19.4234C34.8662 19.5676 34.8421 19.6997 34.7701 19.8078C34.6139 20.0601 34.2415 20.2643 33.9292 20.3364C32.8241 20.6126 31.719 20.8168 31.1064 20.949Z" fill="#2D2D2D"/>
<path d="M18.0373 33.033C16.6199 32.9009 15.3226 32.8529 14.1574 32.1922C13.9772 32.0841 13.737 31.9399 13.689 31.7718C13.6529 31.6757 13.6409 31.5676 13.6409 31.4595C13.6169 31.0871 13.9772 30.7748 14.3376 30.8949C14.3376 30.8949 14.3376 30.8949 14.3496 30.8949C16.752 31.7117 19.1544 31.7117 21.5568 30.8949C21.5568 30.8949 21.5568 30.8949 21.5688 30.8949C21.9292 30.7748 22.2896 31.0991 22.2535 31.4715C22.2415 31.6517 22.2055 31.8078 22.1094 31.8679C21.5929 32.2402 20.9802 32.5405 20.3676 32.7087C19.5628 32.9129 18.734 32.949 18.0373 33.033Z" fill="#2D2D2D"/>
<path d="M9.64093 33.7057C9.70099 34.2102 9.32861 34.5345 8.89618 34.6907C8.1154 34.9549 7.29858 35.1952 6.48177 35.2913C5.14843 35.4474 3.79108 35.4474 2.49378 35.027C2.06135 34.8949 1.62892 34.7147 1.25654 34.4624C1.05234 34.3183 0.908194 33.982 0.860146 33.7177C0.788074 33.2372 1.06435 33.033 1.50879 33.2252C3.45474 34.054 5.47276 34.018 7.50279 33.7057C8.00729 33.6336 8.48777 33.4054 8.96825 33.2372C9.43672 33.069 9.62891 33.1892 9.64093 33.7057Z" fill="#2D2D2D"/>
<path d="M22.3257 33.7057C22.3858 34.2102 22.0134 34.5345 21.581 34.6787C20.7882 34.9429 19.9834 35.1832 19.1666 35.2793C17.8212 35.4354 16.4639 35.4234 15.1546 35.015C14.7461 34.8829 14.3137 34.7267 13.9774 34.4745C13.7612 34.3063 13.605 33.97 13.557 33.6817C13.4849 33.2372 13.7612 33.045 14.1816 33.2252C16.1275 34.054 18.1455 34.018 20.1876 33.7177C20.6921 33.6456 21.1726 33.4054 21.6651 33.2372C22.1335 33.0691 22.3137 33.1892 22.3257 33.7057Z" fill="#2D2D2D"/>
<path d="M17.9413 25.8018C16.596 25.7297 15.2987 25.5615 14.1095 24.9129C13.9293 24.8168 13.7131 24.6486 13.653 24.4684C13.629 24.3844 13.617 24.3003 13.617 24.2042C13.605 23.8078 13.9893 23.5075 14.3617 23.6276C14.3617 23.6276 14.3617 23.6276 14.3737 23.6276C16.7401 24.4324 19.0944 24.4324 21.4728 23.6396C21.4728 23.6396 21.4728 23.6396 21.4848 23.6396C21.8692 23.5195 22.2536 23.8438 22.2176 24.2522C22.2056 24.4204 22.1695 24.5645 22.0734 24.6366C21.665 24.985 21.1365 25.2492 20.608 25.3814C19.7311 25.6096 18.8302 25.6817 17.9413 25.8018Z" fill="#2D2D2D"/>
<path d="M30.6019 25.8138C29.2806 25.7417 27.9953 25.5616 26.8181 24.949C26.638 24.8529 26.3977 24.6967 26.3497 24.5165C26.3256 24.4204 26.3136 24.3243 26.3136 24.2162C26.3016 23.8198 26.686 23.5195 27.0704 23.6517C27.0704 23.6517 27.0704 23.6517 27.0824 23.6517C29.0764 24.3844 31.0944 24.3724 33.1485 23.9399C33.4968 23.8679 33.8331 23.7117 34.1815 23.6517C34.1815 23.6517 34.1815 23.6517 34.1935 23.6517C34.6019 23.5796 34.9623 23.9399 34.8902 24.3484C34.8662 24.4805 34.8301 24.6006 34.7461 24.6727C34.3617 25.009 33.8331 25.2733 33.3286 25.3934C32.4277 25.5976 31.5148 25.6697 30.6019 25.8138Z" fill="#2D2D2D"/>
<path d="M5.23248 30.6186C4.01926 30.5826 2.8541 30.4385 1.77302 29.9219C1.41266 29.7538 1.02827 29.4054 0.89614 29.0451C0.667911 28.4805 1.02827 28.1802 1.59284 28.4204C2.69794 28.9009 3.86311 29.0331 5.04028 29.0451C6.3616 29.0571 7.67091 28.961 8.92016 28.4445C8.9562 28.4325 8.98022 28.4204 9.01626 28.4204C9.30455 28.3844 9.5568 28.6367 9.54479 28.937C9.53278 29.1772 9.49674 29.3934 9.37662 29.5015C9.01626 29.8379 8.49974 30.0901 8.01926 30.1982C7.09434 30.4024 6.1574 30.4865 5.23248 30.6186Z" fill="#2D2D2D"/>
<path d="M30.626 30.6186C29.4007 30.5826 28.2236 30.4024 27.1065 29.9339C26.662 29.7417 26.2416 29.5015 26.2416 28.9129C26.2296 28.4084 26.4338 28.2162 26.9022 28.4084C28.632 29.1531 30.4458 29.1531 32.2596 28.9489C32.9083 28.8769 33.5329 28.6366 34.1695 28.5045C34.1695 28.5045 34.1695 28.5045 34.1815 28.5045C34.5899 28.4204 34.9503 28.7928 34.8782 29.1892C34.8542 29.3333 34.8062 29.4534 34.7221 29.5375C34.3857 29.8618 33.8812 30.0901 33.4128 30.1982C32.4758 30.4024 31.5509 30.4865 30.626 30.6186Z" fill="#2D2D2D"/>
<path d="M32.0793 35.2192C31.1304 35.4354 30.1454 35.4354 29.2085 35.2192C28.4757 35.0631 27.743 34.8949 27.0223 34.7027C26.5658 34.5826 26.2295 34.2463 26.2295 33.6937C26.2295 33.2252 26.4457 33.033 26.8541 33.2012C28.776 34.018 30.77 34.018 32.7881 33.7057C33.2565 33.6336 33.701 33.4294 34.1694 33.3213C34.5778 33.2252 34.9502 33.5856 34.8781 34.006C34.8661 34.1021 34.8301 34.1982 34.7941 34.2823C34.698 34.4985 34.3736 34.6667 34.1214 34.7387C33.4487 34.9189 32.776 35.0751 32.0793 35.2192Z" fill="#2D2D2D"/>
<path d="M17.9532 30.6186C16.728 30.5946 15.5508 30.4024 14.4217 29.934C13.9893 29.7538 13.5929 29.5256 13.5448 28.973C13.4968 28.4084 13.725 28.1922 14.2535 28.4084C15.695 29.0331 17.1965 29.1171 18.722 29.009C19.6229 28.937 20.5118 28.6847 21.4127 28.5286C21.701 28.4805 22.1935 28.3964 22.2415 28.5045C22.4337 28.8889 22.3737 29.3574 21.9652 29.6096C21.5809 29.8499 21.1604 30.0901 20.728 30.1862C19.8151 30.3904 18.8782 30.4865 17.9532 30.6186Z" fill="#2D2D2D"/>
<path d="M26.9502 27.4114C26.686 27.3393 26.4217 27.027 26.3136 26.7628C26.3016 26.7267 26.2896 26.7027 26.2896 26.6667C26.2175 26.2703 26.6259 25.9339 27.0103 26.0541C27.0223 26.0541 27.0223 26.0541 27.0343 26.0661C29.4247 26.8949 31.8151 26.8829 34.2055 26.0781C34.2055 26.0781 34.2055 26.0781 34.2175 26.0781C34.5899 25.958 34.9502 26.2823 34.9022 26.6667C34.8782 26.8589 34.8421 27.027 34.734 27.0991C34.1695 27.4715 33.5088 27.7598 32.8481 27.9279C32.1394 28.1081 31.3827 28.1081 30.6499 28.1802C30.6019 28.2282 28.1514 27.7598 26.9502 27.4114Z" fill="#2D2D2D"/>
<path d="M14.2536 27.4114C14.0134 27.3393 13.7491 27.0991 13.653 26.8708C13.629 26.8108 13.617 26.7387 13.6049 26.6666C13.5689 26.2702 13.9653 25.9579 14.3377 26.078C14.3377 26.078 14.3377 26.078 14.3497 26.078C16.7401 26.8949 19.1305 26.8829 21.5209 26.078C21.5209 26.078 21.5209 26.078 21.5329 26.078C21.9052 25.9579 22.2656 26.2823 22.2176 26.6666C22.1935 26.8588 22.1575 27.015 22.0614 27.075C21.4728 27.4594 20.8001 27.7597 20.1155 27.9279C19.4068 28.1081 18.65 28.1081 17.9173 28.1802C17.9052 28.2282 15.4548 27.7477 14.2536 27.4114Z" fill="#2D2D2D"/>
<path d="M30.9022 23.3033C30.3496 23.3754 29.7971 23.3513 29.2565 23.2192C28.4998 23.027 27.743 22.8468 26.9983 22.6186C26.5058 22.4745 26.2175 22.0901 26.2295 21.5255C26.2415 21.1051 26.4817 20.973 26.8181 21.1171C28.8001 21.9459 30.8541 21.994 32.9322 21.6096C33.3646 21.5255 33.773 21.3573 34.1934 21.2612C34.5898 21.1772 34.9502 21.5135 34.8901 21.9099C34.8661 22.042 34.8301 22.1622 34.746 22.2582C34.4817 22.5706 34.0253 22.7988 33.6169 22.8829C32.728 23.051 31.8391 23.1712 30.9022 23.3033Z" fill="#2D2D2D"/>
</svg>
