<svg width="32" height="32" viewBox="0 0 32 32" fill="none" xmlns="http://www.w3.org/2000/svg">
<path d="M19.2482 0.0636939C19.261 0.0636939 19.2673 0.0636939 19.2801 0.0636939C23.4648 0.0828021 26.866 3.49043 26.8724 7.66875C26.8724 11.8598 23.4456 15.2929 19.2673 15.2929C19.2673 15.2929 19.2673 15.2929 19.261 15.2929C15.0635 15.2929 11.6495 11.8726 11.6495 7.68149C11.6495 3.46495 15.0508 0.0636939 19.2482 0.0636939ZM19.2482 0C17.2036 0 15.2737 0.796174 13.8279 2.2484C12.382 3.70062 11.5858 5.62418 11.5795 7.68149C11.5795 9.72607 12.3756 11.6496 13.8279 13.1018C15.2801 14.5541 17.21 15.3566 19.2546 15.3566H19.261C21.2992 15.3566 23.2227 14.5541 24.6813 13.0955C26.1335 11.6369 26.9361 9.71333 26.9361 7.66875C26.9361 3.45858 23.503 0.0191082 19.2801 0H19.2482Z" fill="#39AFD1"/>
<path d="M15.0445 31.2228C14.4777 31.1527 13.9108 31.089 13.3503 30.9999C11.4395 30.7069 9.75794 29.8916 8.21655 28.7515C7.70063 28.3693 7.1847 27.9935 6.6242 27.5795C6.61783 27.7387 6.61146 27.8406 6.60509 27.9425C6.60509 28.5285 6.61146 29.1081 6.59872 29.6941C6.58598 30.1909 6.31847 30.4776 5.83439 30.4839C4.16561 30.4967 2.5032 30.4967 0.834417 30.4839C0.318496 30.4776 0.0637207 30.1782 0.0637207 29.605C0.0637207 26.9426 0.0637207 24.2801 0.0637207 21.6114C0.0637207 20.0318 0.0637207 18.4458 0.0637207 16.8662C0.0637207 16.2356 0.318496 15.9872 0.955436 15.9808C2.52868 15.9808 4.09555 15.9808 5.66879 15.9808C6.35668 15.9808 6.59872 16.2292 6.60509 16.9235C6.60509 17.0827 6.60509 17.242 6.60509 17.4458C6.74522 17.4458 6.85987 17.4458 6.96814 17.4458C8.92355 17.4649 10.8726 17.535 12.7898 17.9681C14.0127 18.242 15.1592 18.6878 16.1464 19.484C16.2484 19.5668 16.414 19.5923 16.5541 19.5923C18.5923 19.5986 20.6305 19.6114 22.6687 19.5923C23.8152 19.5795 24.6432 20.0572 25.1655 21.07C25.1782 21.0954 25.2037 21.1209 25.2356 21.1591C25.6241 20.9681 26.0063 20.7706 26.3948 20.5795C27.5795 19.9808 28.8152 19.7642 30.1209 20.1146C30.9808 20.3439 31.6878 20.7833 31.8725 21.7133C32.0636 22.6751 31.8597 23.5923 31.0699 24.2165C30.1464 24.9426 29.1719 25.6113 28.1846 26.2483C25.7324 27.8343 23.1974 29.2674 20.4522 30.2801C19.2738 30.7132 18.07 31.0444 16.8152 31.1527C16.7515 31.1591 16.6942 31.1846 16.6369 31.2037C16.1019 31.2228 15.5732 31.2228 15.0445 31.2228ZM6.61783 19.0063C6.61783 18.9872 6.61783 18.9999 6.61783 19.0063C6.61146 21.1974 6.60509 23.3821 6.61146 25.5668C6.61146 25.6687 6.707 25.7961 6.79617 25.8661C7.31846 26.2674 7.85349 26.6496 8.37578 27.0445C9.31845 27.7515 10.2611 28.4712 11.363 28.9107C14 29.968 16.6687 30.019 19.3566 29.1018C23.2483 27.7706 26.7069 25.6368 29.9999 23.2165C30.14 23.1145 30.2865 22.9681 30.3438 22.8088C30.5795 22.1846 30.5285 21.8025 29.9935 21.6368C29.4012 21.4458 28.7961 21.363 28.1782 21.5286C27.1719 21.7897 26.2674 22.2738 25.3884 22.8088C25.3056 22.8598 25.2483 22.9617 25.2101 23.0509C24.7579 24.1018 23.9744 24.6942 22.8279 24.7005C19.3757 24.7196 15.9299 24.7069 12.4777 24.7069C11.9554 24.7069 11.6305 24.4012 11.6433 23.9489C11.6497 23.5094 11.9617 23.2356 12.4777 23.2165C12.5605 23.2165 12.6496 23.2165 12.7324 23.2165C14.7261 23.2165 16.7261 23.2165 18.7197 23.2165C20.1018 23.2165 21.4776 23.2165 22.8598 23.2165C23.3948 23.2165 23.7706 22.9362 23.9107 22.4585C24.1273 21.7133 23.6114 21.0827 22.7834 21.0827C20.5732 21.0827 18.3694 21.0891 16.1592 21.0763C15.949 21.0763 15.6815 21.0254 15.5414 20.8916C14.8152 20.2037 13.9235 19.8534 12.9872 19.5986C11.6688 19.2356 10.3184 19.0891 8.96177 19.0127C8.19107 18.9744 7.414 19.0063 6.61783 19.0063ZM1.54779 28.9871C2.75161 28.9871 3.92357 28.9871 5.10828 28.9871C5.10828 25.14 5.10828 21.3184 5.10828 17.4776C3.91084 17.4776 2.7325 17.4776 1.54779 17.4776C1.54779 21.3247 1.54779 25.14 1.54779 28.9871Z" fill="#39AFD1"/>
<path d="M3.29935 15.9872C4.08915 15.9872 4.87896 15.9872 5.66876 15.9872C6.35666 15.9872 6.59869 16.2356 6.60506 16.9299C6.60506 17.0891 6.60506 17.2483 6.60506 17.4522C6.69423 17.4522 6.77067 17.4522 6.8471 17.4522C6.89169 17.4522 6.9299 17.4522 6.96812 17.4522C8.92352 17.4713 10.8726 17.5413 12.7897 17.9744C14.0127 18.2483 15.1592 18.6942 16.1464 19.4904C16.2483 19.5732 16.4139 19.5986 16.5541 19.5986C17.7642 19.605 18.9744 19.605 20.1846 19.605C21.0126 19.605 21.8407 19.605 22.6687 19.5923C22.6814 19.5923 22.6942 19.5923 22.7069 19.5923C23.8343 19.5923 24.6496 20.0636 25.1718 21.07C25.1846 21.0955 25.2101 21.1209 25.2419 21.1591C25.6304 20.9681 26.0126 20.7706 26.4011 20.5795C27.2037 20.1783 28.0253 19.949 28.8725 19.949C29.2865 19.949 29.7005 19.9999 30.1272 20.1146C30.9871 20.3439 31.6941 20.7834 31.8788 21.7133C32.0699 22.6751 31.8661 23.5923 31.0763 24.2165C30.1527 24.9426 29.1782 25.6114 28.1909 26.2483C25.7387 27.8343 23.2037 29.2674 20.4585 30.2801C19.2802 30.7132 18.0763 31.0445 16.8216 31.1527C16.7579 31.1591 16.7006 31.1846 16.6432 31.2037C16.1146 31.2037 15.5795 31.2037 15.0509 31.2037C14.484 31.1336 13.9171 31.0699 13.3566 30.9808C11.4458 30.6878 9.76428 29.8725 8.22289 28.7324C7.70697 28.3502 7.19105 27.9744 6.63054 27.5604C6.62417 27.7196 6.6178 27.8215 6.61143 27.9234C6.61143 28.5094 6.6178 29.089 6.60506 29.675C6.59232 30.1718 6.32481 30.4585 5.84073 30.4648C4.9745 30.4712 4.11463 30.4712 3.24839 30.4712C2.44585 30.4712 1.6433 30.4712 0.84076 30.4648C0.31847 30.4776 0.0636939 30.1782 0.0636939 29.605C0.0636939 26.9426 0.0636939 24.2802 0.0636939 21.6114C0.0636939 20.0318 0.0636939 18.4458 0.0636939 16.8662C0.0636939 16.2356 0.31847 15.9872 0.955409 15.9808C1.73884 15.9872 2.52228 15.9872 3.29935 15.9872ZM1.54776 28.9871C2.75158 28.9871 3.92355 28.9871 5.10825 28.9871C5.10825 25.14 5.10825 21.3184 5.10825 17.4776C3.91081 17.4776 2.73247 17.4776 1.54776 17.4776C1.54776 21.3247 1.54776 25.14 1.54776 28.9871ZM6.6178 19.0063C6.6178 18.9999 6.6178 18.9936 6.6178 18.9936C6.6178 18.9999 6.6178 18.9999 6.6178 19.0063C6.61143 21.1974 6.60506 23.3821 6.61143 25.5668C6.61143 25.6687 6.70697 25.7961 6.79614 25.8661C7.31843 26.2674 7.85346 26.6496 8.37575 27.0445C9.31842 27.7515 10.2611 28.4712 11.363 28.9107C12.7643 29.4712 14.1719 29.7515 15.5859 29.7515C16.8407 29.7515 18.0955 29.5349 19.3566 29.1018C23.2483 27.7706 26.7069 25.6368 29.9998 23.2165C30.14 23.1146 30.2865 22.9681 30.3438 22.8088C30.5795 22.1846 30.5285 21.8025 29.9935 21.6369C29.6177 21.5158 29.2355 21.4394 28.8534 21.4394C28.6304 21.4394 28.4075 21.4649 28.1782 21.5222C27.1718 21.7833 26.2674 22.2674 25.3884 22.8025C25.3056 22.8534 25.2483 22.9553 25.2101 23.0445C24.7578 24.0954 23.9744 24.6878 22.8279 24.6942C21.261 24.7005 19.7005 24.7069 18.1337 24.7069C16.2483 24.7069 14.363 24.7005 12.4776 24.7005C11.9554 24.7005 11.6305 24.3948 11.6433 23.9426C11.6496 23.5031 11.9617 23.2292 12.4776 23.2101C12.5095 23.2101 12.5477 23.2101 12.5796 23.2101C12.6305 23.2101 12.6815 23.2101 12.7324 23.2101C14.726 23.2101 16.726 23.2101 18.7197 23.2101C18.726 23.2101 18.726 23.2101 18.7324 23.2101C19.5031 23.2101 20.2738 23.2101 21.0445 23.2101C21.6496 23.2101 22.2547 23.2101 22.8598 23.2101C23.3948 23.2101 23.7706 22.9298 23.9107 22.4521C24.1273 21.7069 23.6113 21.0763 22.7833 21.0763C22.3247 21.0763 21.8725 21.0763 21.4139 21.0763C20.9171 21.0763 20.4266 21.0763 19.9298 21.0763C18.6751 21.0763 17.4139 21.0763 16.1592 21.07C15.949 21.07 15.6815 21.019 15.5413 20.8853C14.8152 20.1974 13.9235 19.847 12.9872 19.5923C11.6687 19.2292 10.3184 19.0827 8.96174 19.0063C8.66875 18.9872 8.37575 18.9872 8.08276 18.9872C7.59869 18.9936 7.11461 19.0063 6.6178 19.0063ZM3.29935 15.9235C2.51591 15.9235 1.73884 15.9235 0.955409 15.9235C0.286623 15.9235 0 16.2101 0 16.8725C0 18.0063 0 19.1592 0 20.2802V21.6177V23.7005C0 25.6368 0 27.6368 0 29.605C0 30.2164 0.286623 30.5413 0.834391 30.5476C1.6242 30.554 2.43311 30.554 3.24202 30.554C4.09552 30.554 4.96813 30.554 5.83437 30.5476C6.35029 30.5413 6.65602 30.2355 6.66239 29.6941C6.66876 29.3056 6.66876 28.9171 6.66876 28.5349C6.66876 28.3375 6.66876 28.14 6.66876 27.9426C6.66876 27.8789 6.67513 27.8152 6.67513 27.7324C6.67513 27.726 6.67513 27.7133 6.67513 27.7069C6.82162 27.8152 6.96175 27.9171 7.10188 28.0254C7.46493 28.2929 7.82162 28.554 8.17193 28.8152C9.85982 30.0572 11.5477 30.796 13.3311 31.0763C13.7197 31.1336 14.1146 31.1846 14.4967 31.2292C14.6751 31.2483 14.8534 31.2737 15.0318 31.2929H15.0381H15.0445H16.6369H16.6432H16.6496C16.6687 31.2865 16.6878 31.2801 16.7069 31.2738C16.7451 31.261 16.777 31.2483 16.8152 31.2419C17.9426 31.1464 19.1018 30.8725 20.4712 30.3693C22.8725 29.4839 25.3311 28.2037 28.2164 26.3311C29.4139 25.554 30.3056 24.9235 31.1018 24.2929C31.8597 23.6942 32.1463 22.8088 31.9298 21.726C31.7642 20.8853 31.1909 20.363 30.1336 20.0763C29.7132 19.9617 29.2865 19.9044 28.8597 19.9044C28.0317 19.9044 27.2164 20.1146 26.3566 20.5413C26.0954 20.6751 25.8279 20.8088 25.5668 20.9362L25.2483 21.0955C25.2355 21.0827 25.2228 21.07 25.2164 21.0572C24.6941 20.0381 23.8661 19.5413 22.6942 19.5413H22.6559C21.9043 19.5477 21.0954 19.5541 20.1719 19.5541C19.2101 19.5541 18.2292 19.5477 17.2802 19.5477H16.5413C16.3821 19.5477 16.2483 19.5095 16.1719 19.4521C15.2738 18.726 14.1974 18.242 12.7897 17.9235C10.7898 17.4713 8.73244 17.4139 6.95538 17.4012C6.91716 17.4012 6.87258 17.4012 6.82799 17.4012H6.71971H6.64965V17.2738C6.64965 17.1528 6.64965 17.0509 6.64965 16.9426C6.64328 16.2101 6.37576 15.9362 5.64965 15.9362C4.87896 15.9235 4.08915 15.9235 3.29935 15.9235ZM1.61146 17.5477H5.04456V28.9298H1.61146V17.5477ZM6.6815 19.07C6.91079 19.07 7.14009 19.0636 7.36302 19.0636C7.59869 19.0572 7.84709 19.0572 8.08276 19.0572C8.42034 19.0572 8.70059 19.0636 8.95537 19.0764C10.0636 19.14 11.5222 19.2611 12.9617 19.656C13.7834 19.8789 14.7197 20.2101 15.4904 20.9362C15.6814 21.1209 16.0445 21.1337 16.1528 21.1337C17.3439 21.14 18.5222 21.14 19.9235 21.14H20.6623H21.4012C21.8598 21.14 22.312 21.14 22.7706 21.14C23.1591 21.14 23.4967 21.2929 23.7005 21.554C23.8852 21.7961 23.9298 22.1082 23.8343 22.433C23.7069 22.8853 23.3438 23.14 22.847 23.14C22.3184 23.14 21.7451 23.14 21.0317 23.14C20.6432 23.14 20.261 23.14 19.8725 23.14C19.484 23.14 19.1018 23.14 18.7133 23.14H18.7005H16.0381H12.7133C12.6878 23.14 12.6624 23.14 12.6369 23.14C12.6114 23.14 12.5859 23.14 12.5604 23.14C12.5222 23.14 12.4904 23.14 12.4522 23.14C11.9044 23.1591 11.5668 23.4585 11.5605 23.9298C11.5541 24.1528 11.6305 24.3502 11.7706 24.4967C11.9299 24.6623 12.1719 24.7515 12.4585 24.7515H13.5732C15.0636 24.7515 16.605 24.7579 18.1209 24.7579C19.8789 24.7579 21.4139 24.7515 22.8152 24.7451C23.9553 24.7387 24.7769 24.1719 25.2547 23.0572C25.2992 22.9553 25.3566 22.8789 25.4075 22.847C26.1782 22.3757 27.1081 21.847 28.1782 21.5732C28.3884 21.5158 28.6113 21.4904 28.8406 21.4904C29.1846 21.4904 29.5476 21.554 29.9616 21.6814C30.1591 21.7451 30.2865 21.8407 30.3502 21.9681C30.433 22.1464 30.4075 22.4012 30.2737 22.777C30.21 22.9426 30.0444 23.0827 29.9489 23.1528C26.0636 26.0063 22.6878 27.8789 19.3247 29.0317C18.0763 29.4585 16.8152 29.675 15.5732 29.675C14.1655 29.675 12.7579 29.3948 11.3757 28.8406C10.3184 28.4139 9.38849 27.7196 8.49677 27.0508L8.4076 26.9808C8.19104 26.8215 7.97448 26.6559 7.75792 26.5031C7.45219 26.2738 7.13372 26.0445 6.82162 25.8024C6.74519 25.7451 6.66239 25.6305 6.66239 25.554C6.65602 23.6751 6.66239 21.7706 6.66239 19.9235L6.6815 19.07Z" fill="#39AFD1"/>
<path d="M26.8725 7.66874C26.8725 11.8598 23.4458 15.2929 19.2611 15.2929C15.0637 15.2929 11.6497 11.8725 11.6497 7.68148C11.6497 3.45857 15.07 0.0445779 19.2802 0.0636861C23.4649 0.0827943 26.8725 3.49042 26.8725 7.66874ZM25.3948 7.66874C25.3948 4.28023 22.6687 1.54776 19.2738 1.53502C15.8853 1.52228 13.1337 4.25475 13.1274 7.64327C13.121 11.0573 15.8471 13.8088 19.2483 13.8216C22.6369 13.8279 25.3884 11.0827 25.3948 7.66874Z" fill="#39AFD1"/>
<path d="M19.2482 0.0636939C19.261 0.0636939 19.2673 0.0636939 19.2801 0.0636939C23.4648 0.0828021 26.866 3.49043 26.8724 7.66875C26.8724 11.8598 23.4456 15.2929 19.2673 15.2929C19.2673 15.2929 19.2673 15.2929 19.261 15.2929C15.0635 15.2929 11.6495 11.8726 11.6495 7.68149C11.6495 3.46495 15.0508 0.0636939 19.2482 0.0636939ZM19.2546 13.8216C22.6431 13.8216 25.3883 11.0764 25.3883 7.67512C25.3883 4.2866 22.6622 1.55413 19.2673 1.54139C19.261 1.54139 19.2482 1.54139 19.2418 1.54139C15.8597 1.54139 13.1272 4.26749 13.1209 7.64964C13.1145 11.0636 15.8406 13.8152 19.2418 13.828C19.2482 13.8216 19.2546 13.8216 19.2546 13.8216ZM19.2482 0C17.2036 0 15.2737 0.796174 13.8279 2.2484C12.382 3.70062 11.5858 5.62418 11.5795 7.68149C11.5795 9.72607 12.3756 11.6496 13.8279 13.1018C15.2801 14.5541 17.21 15.3566 19.2546 15.3566H19.261C21.2992 15.3566 23.2227 14.5541 24.6749 13.0955C26.1272 11.6369 26.9297 9.71333 26.9297 7.66875C26.9361 3.45858 23.503 0.0191082 19.2801 0H19.2482ZM19.2546 13.7579H19.2355C17.6049 13.7515 16.0826 13.1146 14.9425 11.9681C13.8024 10.8152 13.1782 9.28021 13.1782 7.64964C13.1846 4.31845 15.9043 1.60509 19.2355 1.60509H19.261C22.6049 1.61783 25.3246 4.34393 25.3246 7.67512C25.3246 11.0254 22.6049 13.7579 19.2546 13.7579Z" fill="#39AFD1"/>
<path d="M20.6623 4.97449C20.6623 5.25474 20.6623 5.50315 20.6623 5.7834C20.9872 5.7834 21.2865 5.77703 21.5923 5.7834C21.9426 5.78977 22.1592 5.96811 22.1592 6.24837C22.1592 6.52862 21.9426 6.70696 21.5923 6.71333C21.5413 6.71333 21.484 6.7197 21.433 6.71333C20.8853 6.6369 20.5159 6.74518 20.2356 7.3439C19.8853 8.08912 19.1464 8.43944 18.2483 8.50313C18.3566 8.62415 18.4267 8.70695 18.5031 8.78339C19.1464 9.43306 19.7834 10.0827 20.4267 10.7324C20.6942 10.9999 20.7197 11.2738 20.5031 11.484C20.2929 11.6878 20.019 11.656 19.7515 11.3885C18.8216 10.4458 17.8917 9.49676 16.9554 8.56046C16.7643 8.36938 16.6305 8.16556 16.7388 7.8853C16.8534 7.58594 17.1019 7.5732 17.3694 7.5732C17.7515 7.5732 18.1337 7.57957 18.5095 7.52861C18.9617 7.46492 19.2866 7.19104 19.5477 6.72607C19.2356 6.72607 18.9872 6.72607 18.7388 6.72607C18.2483 6.72607 17.7643 6.73244 17.2738 6.72607C16.9235 6.7197 16.7006 6.54136 16.7006 6.26747C16.7006 5.98722 16.9171 5.80251 17.2675 5.80251C17.949 5.79614 18.6241 5.80251 19.3057 5.80251C19.4203 5.80251 19.535 5.80251 19.6751 5.80251C19.6751 5.52862 19.6751 5.28022 19.6751 4.99359C19.4076 4.99359 19.1337 4.99359 18.8598 4.99359C18.3057 4.99359 17.7579 4.99996 17.2038 4.99359C16.9171 4.98723 16.7197 4.80888 16.7069 4.56048C16.6878 4.3057 16.8917 4.08914 17.1783 4.05729C17.2292 4.05092 17.2866 4.05092 17.3375 4.05092C18.7388 4.05092 20.1401 4.05092 21.5413 4.05092C21.605 4.05092 21.6687 4.04455 21.7324 4.05729C21.9936 4.10825 22.1528 4.26111 22.1655 4.535C22.1783 4.7834 21.9744 4.98086 21.6942 4.99359C21.3502 4.98723 21.0127 4.97449 20.6623 4.97449Z" fill="#39AFD1"/>
<path d="M21.6113 4.03183C21.6495 4.03183 21.6941 4.03183 21.7324 4.0382C21.9935 4.08915 22.1527 4.24202 22.1655 4.5159C22.1782 4.76431 21.9744 4.96176 21.6941 4.9745C21.5604 4.98087 21.4266 4.98087 21.2929 4.98087C21.089 4.98087 20.8789 4.98087 20.6687 4.98087C20.6687 5.26112 20.6687 5.50953 20.6687 5.78978C20.8661 5.78978 21.0572 5.78978 21.2483 5.78978C21.3693 5.78978 21.4839 5.78978 21.605 5.78978C21.9553 5.79615 22.1718 5.97449 22.1718 6.25474C22.1718 6.535 21.9553 6.71334 21.605 6.71971C21.5731 6.71971 21.5413 6.71971 21.5094 6.71971C21.4903 6.71971 21.4712 6.71971 21.4457 6.71334C21.3438 6.7006 21.2546 6.69423 21.1655 6.69423C20.7642 6.69423 20.4776 6.85347 20.2483 7.34391C19.898 8.08913 19.1591 8.43945 18.261 8.50314C18.3693 8.62416 18.4394 8.70696 18.5158 8.78339C19.1591 9.43307 19.7961 10.0828 20.4394 10.7324C20.7069 10.9999 20.7324 11.2738 20.5158 11.484C20.4266 11.5732 20.3247 11.6178 20.2164 11.6178C20.0699 11.6178 19.9171 11.5413 19.7706 11.3885C18.8406 10.4458 17.9107 9.49677 16.9744 8.56047C16.7833 8.36938 16.6496 8.16556 16.7579 7.88531C16.8725 7.58595 17.1209 7.57321 17.3884 7.57321C17.7706 7.57321 18.1527 7.57958 18.5285 7.52862C18.9808 7.46493 19.3056 7.19105 19.5668 6.72608C19.382 6.72608 19.2164 6.72608 19.0636 6.72608C18.9617 6.72608 18.8598 6.72608 18.7578 6.72608C18.7515 6.72608 18.7515 6.72608 18.7451 6.72608C18.4648 6.72608 18.1782 6.72608 17.898 6.72608C17.6942 6.72608 17.4967 6.72608 17.2929 6.72608C16.9426 6.71971 16.7196 6.54137 16.7196 6.26748C16.7196 5.98723 16.9362 5.80252 17.2865 5.80252C17.5731 5.80252 17.8661 5.80252 18.1527 5.80252C18.5349 5.80252 18.9171 5.80252 19.2992 5.80252C19.3056 5.80252 19.312 5.80252 19.3183 5.80252C19.3566 5.80252 19.3948 5.80252 19.433 5.80252C19.5094 5.80252 19.5922 5.80252 19.6878 5.80252C19.6878 5.52863 19.6878 5.28023 19.6878 4.9936C19.5222 4.9936 19.3566 4.9936 19.1973 4.9936C19.0891 4.9936 18.9808 4.9936 18.8725 4.9936C18.8661 4.9936 18.8661 4.9936 18.8598 4.9936C18.5477 4.9936 18.2292 4.9936 17.9171 4.9936C17.6814 4.9936 17.4521 4.9936 17.2164 4.98724C16.9298 4.98087 16.7324 4.80252 16.7196 4.55412C16.7005 4.29934 16.9043 4.08278 17.191 4.05093C17.2292 4.04456 17.2738 4.04456 17.312 4.04456C17.3247 4.04456 17.3375 4.04456 17.3502 4.04456C18.0508 4.04456 18.7515 4.04456 19.4521 4.04456C20.1527 4.04456 20.8534 4.04456 21.554 4.04456C21.5667 4.03183 21.5859 4.03183 21.6113 4.03183ZM21.6113 3.96813C21.5986 3.96813 21.5859 3.96813 21.5731 3.96813H21.5413C20.8406 3.96813 20.14 3.96813 19.4394 3.96813C18.7387 3.96813 18.0381 3.96813 17.3375 3.96813H17.3184H17.2993C17.261 3.96813 17.2164 3.96813 17.1719 3.9745C16.8534 4.01272 16.6241 4.25475 16.6432 4.54775C16.6623 4.83437 16.898 5.03819 17.2037 5.03819C17.4075 5.03819 17.6305 5.04456 17.9043 5.04456C18.0636 5.04456 18.2164 5.04456 18.3757 5.04456C18.5349 5.04456 18.6878 5.04456 18.847 5.04456H18.8534H18.8598H19.1846H19.433H19.6177V5.72609H19.5413H19.4266H19.312H19.2929C19.1018 5.72609 18.9107 5.72609 18.7196 5.72609C18.5285 5.72609 18.3375 5.72609 18.1464 5.72609C17.8088 5.72609 17.5349 5.72609 17.2801 5.72609C16.898 5.72609 16.6559 5.93627 16.6496 6.25474C16.6496 6.56684 16.9043 6.77704 17.2801 6.77704C17.4585 6.77704 17.6496 6.77704 17.8852 6.77704C18.0254 6.77704 18.1655 6.77704 18.312 6.77704C18.4521 6.77704 18.5922 6.77704 18.7387 6.77704H18.7451H18.7515H19.0572H19.2865H19.4521C19.2037 7.17831 18.9043 7.39487 18.5158 7.45219C18.2101 7.49678 17.8852 7.49678 17.5731 7.49678C17.5094 7.49678 17.4457 7.49678 17.3821 7.49678C17.1336 7.49678 16.8279 7.50315 16.6942 7.84709C16.5731 8.17193 16.7324 8.39486 16.9298 8.59231C17.6241 9.28658 18.3247 9.99995 19.0062 10.6878C19.2483 10.9299 19.4903 11.1783 19.726 11.4203C19.8852 11.5796 20.0572 11.6687 20.2164 11.6687C20.3438 11.6687 20.4585 11.6178 20.5604 11.5159C20.6687 11.414 20.7196 11.2929 20.7196 11.1655C20.7196 11.0063 20.6432 10.8407 20.4776 10.6815C20.1527 10.3566 19.8343 10.0254 19.5094 9.70059C19.191 9.37575 18.8725 9.05728 18.554 8.73244C18.5031 8.68148 18.4585 8.63053 18.4012 8.56683C18.3948 8.56047 18.3884 8.5541 18.3884 8.54773C19.3247 8.45219 19.9871 8.03818 20.3056 7.36302C20.5094 6.9299 20.7578 6.75156 21.1655 6.75156C21.2483 6.75156 21.3374 6.75793 21.4394 6.77067C21.4585 6.77067 21.4839 6.77704 21.5094 6.77704C21.5285 6.77704 21.5476 6.77704 21.5731 6.77704C21.5859 6.77704 21.5986 6.77704 21.6113 6.77704C21.9999 6.77067 22.2419 6.56685 22.2419 6.24838C22.2419 5.92991 21.9999 5.72609 21.6113 5.71972C21.5031 5.71972 21.3948 5.71972 21.2546 5.71972C21.1591 5.71972 21.0699 5.71972 20.9744 5.71972C20.898 5.71972 20.8215 5.71972 20.7451 5.71972V5.04456C20.8279 5.04456 20.9171 5.04456 20.9999 5.04456C21.1018 5.04456 21.2037 5.04456 21.3056 5.04456C21.4585 5.04456 21.5922 5.04456 21.7069 5.03819C21.8661 5.03182 22.0126 4.96813 22.1145 4.85985C22.2037 4.76431 22.2483 4.64329 22.2419 4.50953C22.2292 4.22291 22.0572 4.03183 21.7578 3.9745C21.6941 3.96813 21.6495 3.96813 21.6113 3.96813Z" fill="#39AFD1"/>
</svg>
