<svg width="34" height="34" viewBox="0 0 34 34" fill="none" xmlns="http://www.w3.org/2000/svg">
<path d="M29.4883 19.5134H29.3383V19.6634V21.6363V21.7863H29.4883C31.5045 21.7863 33.15 20.1408 33.15 18.1245V4.51171C33.15 2.49546 31.5045 0.85 29.4883 0.85H15.9149C13.8987 0.85 12.2532 2.49546 12.2532 4.51171V4.66171H12.4032H14.3761H14.5261V4.51171C14.5261 3.76849 15.1271 3.16233 15.9149 3.16233H29.4883C30.2366 3.16233 30.8771 3.76844 30.8771 4.55117V18.1245C30.8771 18.8728 30.271 19.5134 29.4883 19.5134Z" fill="#39AFD1" stroke="#39AFD1" stroke-width="0.3"/>
<path d="M23.7668 25.1558H23.6168V25.3058V27.2787V27.4287H23.7668C25.7831 27.4287 27.4286 25.7832 27.4286 23.767V10.1936C27.4286 8.17733 25.7831 6.53187 23.7668 6.53187H10.1935C8.17722 6.53187 6.53176 8.17733 6.53176 10.1936V10.3436H6.68176H8.65464H8.80464V10.1936C8.80464 9.44531 9.41075 8.80475 10.1935 8.80475H23.7668C24.5151 8.80475 25.1557 9.41086 25.1557 10.1936V23.767C25.1557 24.5152 24.5496 25.1558 23.7668 25.1558Z" fill="#39AFD1" stroke="#39AFD1" stroke-width="0.3"/>
<path d="M4.51171 33.1105H18.0851C20.1013 33.1105 21.7468 31.4651 21.7468 29.4488V15.8755C21.7468 13.8592 20.1013 12.2138 18.0851 12.2138H4.51171C2.49546 12.2138 0.85 13.8592 0.85 15.8755V29.4488C0.85 31.4651 2.49546 33.1105 4.51171 33.1105ZM3.12287 15.8755C3.12287 15.1272 3.72898 14.4866 4.51171 14.4866H18.0851C18.8334 14.4866 19.4739 15.0927 19.4739 15.8755V29.4488C19.4739 30.1971 18.8678 30.8377 18.0851 30.8377H4.51171C3.76344 30.8377 3.12287 30.2316 3.12287 29.4488V15.8755Z" fill="#39AFD1" stroke="#39AFD1" stroke-width="0.3"/>
</svg>
