<svg width="34" height="36" viewBox="0 0 34 36" fill="none" xmlns="http://www.w3.org/2000/svg">
<path d="M32.4939 14.9801C32.5055 14.7466 32.5172 14.5948 32.5172 14.443C32.5172 11.489 32.5055 8.52335 32.5289 5.56937C32.5289 5.12569 32.4355 4.96222 31.9451 4.9739C30.1237 5.00893 28.2906 4.98558 26.3757 4.98558C26.3757 5.25412 26.3757 5.47596 26.3757 5.70948C26.3757 10.228 26.3757 14.7349 26.3757 19.2534C26.3757 20.5144 26.2823 20.6078 25.0097 20.5962C24.9513 20.5962 24.9046 20.6195 24.8228 20.6429C24.9162 21.1566 24.9746 21.6703 25.0914 22.1724C25.4533 23.7369 25.2432 25.2665 24.8462 26.7843C24.3908 28.5007 23.8304 30.1937 23.4334 31.9334C23.27 32.6573 23.3984 33.4396 23.3867 34.1985C23.375 34.9924 23.34 35.0391 22.5811 35.0391C20.6195 35.0391 18.6463 35.0391 16.6848 35.0391C16.3345 35.0391 15.9842 35.0508 15.9842 34.5838C15.9842 34.1168 16.2411 33.8716 16.7198 33.8716C18.3544 33.8716 19.989 33.8716 21.6237 33.8716C21.7521 33.8716 21.8805 33.8716 22.1024 33.8716C22.1024 33.603 22.1257 33.3695 22.1024 33.1477C21.9506 31.8283 22.4643 30.6374 22.7679 29.3997C23.1532 27.7651 23.6202 26.1422 23.8888 24.4842C24.1223 23.0831 23.7136 21.7054 23.3634 20.351C23.2349 19.8606 23.1298 19.3585 22.9314 18.9032C22.8379 18.693 22.5227 18.4595 22.3125 18.4595C22.1024 18.4595 21.8922 18.7397 21.6937 18.9148C21.647 18.9615 21.6587 19.09 21.612 19.125C21.3785 19.3118 21.0982 19.6621 20.8881 19.6271C20.6546 19.592 20.4444 19.2184 20.3043 18.9499C20.1875 18.7163 20.2809 18.3427 20.1292 18.1909C19.9423 18.0041 19.557 17.864 19.3235 17.9341C19.09 17.9924 18.8331 18.3077 18.7631 18.5646C18.6463 18.9615 18.4478 19.2301 18.0625 19.1834C17.6422 19.1367 17.4437 18.8331 17.4671 18.3894C17.4787 18.1793 17.4904 17.9574 17.4554 17.7473C17.4087 17.3036 17.1051 17.0934 16.6965 17.0817C16.2761 17.0701 16.0076 17.2802 15.9375 17.7239C15.8908 18.0275 15.8792 18.3544 15.739 18.6113C15.4939 19.1016 14.9217 19.0783 14.6999 18.5762C14.5831 18.3194 14.5481 18.0158 14.5481 17.7239C14.5364 15.8791 14.5481 14.0227 14.5364 12.1779C14.5364 11.3956 14.3496 11.0687 13.9059 11.057C13.4389 11.0453 13.2404 11.3956 13.2404 12.1896C13.2404 16.4863 13.2404 20.7946 13.2404 25.0913C13.2404 25.2898 13.3105 25.535 13.2171 25.6635C13.0419 25.9087 12.7967 26.2239 12.5515 26.2589C12.2129 26.3056 11.9678 26.0137 11.9678 25.6168C11.9678 24.3674 11.9678 23.1298 11.9561 21.8805C11.9561 21.7054 11.9794 21.5302 11.9444 21.3551C11.8627 20.9698 11.6408 20.5728 11.2322 20.6779C10.9636 20.7479 10.6367 21.1099 10.5667 21.4018C10.4032 22.0907 10.3565 22.8262 10.2748 23.5385C10.158 24.7177 10.0529 25.897 9.92449 27.0762C9.8194 28.057 10.1463 28.8743 10.8586 29.5398C11.3956 30.0419 11.9327 30.5556 12.5165 31.011C13.0419 31.4196 13.3222 31.8633 13.2404 32.5522C13.1937 32.9725 13.2287 33.3929 13.2287 33.8949C13.579 33.8949 13.8709 33.8716 14.1511 33.8949C14.5598 33.9299 14.7933 34.2102 14.77 34.5955C14.7466 34.9808 14.4664 35.0742 14.1044 35.0508C13.579 35.0275 13.0536 35.0158 12.5282 35.0508C12.0728 35.0859 11.9327 34.8757 11.9327 34.4787C11.9327 33.8949 11.9678 33.3111 11.9094 32.7273C11.8743 32.4354 11.7226 32.1085 11.5241 31.8984C10.8469 31.2095 10.0646 30.614 9.42243 29.8784C8.65182 29.0027 8.45333 27.9286 8.59344 26.7727C8.83863 24.7527 9.03712 22.7212 9.27064 20.6195C8.95539 20.6195 8.6635 20.6195 8.38328 20.6195C7.55429 20.6195 7.32078 20.386 7.32078 19.5337C7.32078 18.693 7.29743 17.864 7.33245 17.0234C7.34413 16.5213 7.2624 16.3111 6.66693 16.3345C4.85718 16.3929 3.04743 16.3578 1.23767 16.3578C0.280256 16.3578 -0.0233154 16.0659 -0.0233154 15.0852C3.62191e-05 10.9636 3.622e-05 6.86538 0.011712 2.75549C0.011712 1.86813 0.373663 1.54121 1.2727 1.54121C3.08245 1.54121 4.89221 1.54121 6.70196 1.54121C6.88877 1.54121 7.08726 1.54121 7.27407 1.54121C7.3091 1.4478 7.34413 1.4011 7.35581 1.34272C7.42586 0 7.42586 0 8.79193 0C14.3379 0 19.884 0 25.43 0C26.3407 0 26.364 0.0350274 26.3874 0.957418C26.3874 1.13255 26.4108 1.29602 26.4224 1.51786C26.6209 1.52953 26.7844 1.54121 26.9478 1.54121C28.9094 1.54121 30.8826 1.54121 32.8441 1.54121C33.6147 1.54121 33.9884 1.90316 34 2.68544C34.0117 6.85371 34.0117 11.0103 34 15.1786C34 16.0192 33.6614 16.3345 32.8091 16.3345C31.373 16.3462 29.9252 16.3462 28.489 16.3228C28.1972 16.3228 27.8702 16.206 27.6484 16.0426C27.5316 15.9492 27.4966 15.5288 27.6017 15.4121C27.7885 15.2019 28.1037 15.0034 28.3606 15.0034C29.5632 14.9567 30.7775 14.9801 31.9801 14.9801C32.1202 14.9801 32.272 14.9801 32.4939 14.9801ZM25.0447 19.2651C25.0447 14.5247 25.0447 9.78434 25.0447 5.0206C24.9162 5.00893 24.8228 4.99725 24.7294 4.99725C19.557 4.99725 14.3847 5.00893 9.20059 4.98558C8.73355 4.98558 8.6635 5.14904 8.6635 5.55769C8.67517 9.97115 8.67517 14.3846 8.67517 18.8098C8.67517 18.9615 8.68685 19.1133 8.69852 19.2885C9.79605 19.2885 10.8469 19.2885 11.9444 19.2885C11.9444 19.1133 11.9444 18.9849 11.9444 18.8565C11.9444 16.4863 11.9678 14.1044 11.9444 11.7342C11.9327 10.66 12.7267 10.0179 13.3572 9.81937C14.1862 9.55082 15.1319 9.92445 15.5989 10.7651C15.7858 11.092 15.9726 11.1271 16.2878 11.1271C17.6656 11.1154 19.055 11.1154 20.4327 11.1271C21.3434 11.1271 21.9973 11.7809 22.0206 12.6916C22.0323 13.0652 22.0323 13.4272 22.0206 13.8008C21.9856 14.6882 21.3201 15.3887 20.4327 15.4121C19.5337 15.4354 18.6463 15.4238 17.7473 15.4238C17.2919 15.4238 16.9533 15.2019 16.9417 14.7582C16.93 14.2795 17.3153 14.1277 17.759 14.1277C18.5412 14.1277 19.3118 14.1161 20.0941 14.1277C20.5728 14.1394 20.783 13.9409 20.748 13.4622C20.7363 13.2871 20.7363 13.112 20.748 12.9368C20.7713 12.5749 20.6312 12.3997 20.2459 12.3997C18.9382 12.4114 17.6422 12.3997 16.3345 12.4114C16.1944 12.4114 15.9492 12.5865 15.9375 12.6799C15.9142 13.7074 15.9142 14.7232 15.9142 15.8207C16.965 15.669 17.8057 15.8674 18.4362 16.6731C18.4712 16.7198 18.6113 16.7081 18.693 16.6848C19.6621 16.4279 20.5495 16.5446 21.215 17.3386C22.4176 16.8365 23.4684 17.1168 24.0406 18.1092C24.1923 18.3777 24.2857 18.6813 24.3675 18.9732C24.4842 19.3702 24.7061 19.3935 25.0447 19.2651ZM7.3091 14.9567C7.3091 11.6291 7.3091 8.33654 7.3091 5.0206C7.12229 5.00893 6.9705 4.99725 6.81872 4.99725C5.23081 4.99725 3.63122 5.0206 2.04331 4.98558C1.5646 4.9739 1.44784 5.11401 1.45951 5.56937C1.47119 8.52335 1.47119 11.4773 1.47119 14.4313C1.47119 14.5948 1.49454 14.7699 1.50622 14.9684C3.4444 14.9567 5.34756 14.9567 7.3091 14.9567ZM25.0447 1.16758C24.8812 1.16758 24.7878 1.16758 24.6944 1.16758C20.4094 1.16758 16.136 1.16758 11.851 1.16758C10.952 1.16758 10.0646 1.17926 9.16556 1.15591C8.80361 1.14423 8.62847 1.23764 8.6635 1.64629C8.69852 2.08997 8.7102 2.54533 8.6635 2.98901C8.61679 3.51442 8.78026 3.67788 9.32902 3.67788C14.2679 3.65453 19.2068 3.66621 24.1456 3.66621C24.4259 3.66621 24.7178 3.66621 25.033 3.66621C25.0447 2.82555 25.0447 2.03159 25.0447 1.16758ZM26.4107 3.63118C28.4774 3.63118 30.4856 3.63118 32.5289 3.63118C32.5055 3.33929 32.4939 3.09409 32.4822 2.87225C30.4156 2.87225 28.4307 2.87225 26.4107 2.87225C26.4107 3.1408 26.4107 3.36264 26.4107 3.63118ZM1.50622 3.64286C3.46776 3.64286 5.37092 3.64286 7.32078 3.64286C7.32078 3.36264 7.32078 3.12912 7.32078 2.86058C5.37092 2.86058 3.45608 2.86058 1.50622 2.86058C1.50622 3.12912 1.50622 3.35096 1.50622 3.64286Z" fill="#2D2D2D"/>
<path d="M29.2947 8.6635C28.8043 8.6635 28.3256 8.67517 27.8352 8.6635C27.4149 8.64014 27.0879 8.42998 27.1113 7.99797C27.1346 7.58932 27.4616 7.3558 27.8819 7.3558C28.816 7.34413 29.75 7.34413 30.6841 7.3558C31.1044 7.36748 31.4197 7.58932 31.4313 8.02132C31.443 8.46501 31.1161 8.6635 30.6958 8.67517C30.2287 8.67517 29.7617 8.6635 29.2947 8.6635Z" fill="#2D2D2D"/>
<path d="M29.2479 10.8935C28.8042 10.8935 28.3489 10.9169 27.9052 10.8818C27.4848 10.8585 27.0995 10.6717 27.1112 10.193C27.1346 9.74927 27.5082 9.53911 27.9285 9.52743C28.8276 9.51576 29.7149 9.51576 30.614 9.52743C31.046 9.53911 31.4079 9.7376 31.4196 10.2046C31.4429 10.6833 31.0576 10.8585 30.6373 10.8818C30.182 10.9052 29.7149 10.8935 29.2479 10.8935Z" fill="#2D2D2D"/>
<path d="M12.7968 5.65108C13.4039 5.65108 13.9994 5.6394 14.6065 5.65108C15.1553 5.66276 15.4355 5.91962 15.4472 6.46839C15.4589 7.14559 15.4589 7.82278 15.4472 8.51166C15.4355 9.0254 15.1319 9.31729 14.6416 9.32897C13.3806 9.35232 12.1196 9.35232 10.8586 9.32897C10.3682 9.31729 10.0646 9.04875 10.0646 8.52333C10.0646 7.84614 10.053 7.16894 10.0646 6.48006C10.0763 5.87292 10.3098 5.65108 10.9286 5.6394C11.5475 5.6394 12.1663 5.65108 12.7968 5.65108ZM14.1045 7.98625C14.1045 7.6243 14.1045 7.30905 14.1045 6.95877C13.1938 6.95877 12.3064 6.95877 11.419 6.95877C11.419 7.32072 11.419 7.64765 11.419 7.98625C12.3181 7.98625 13.1704 7.98625 14.1045 7.98625Z" fill="#2D2D2D"/>
<path d="M20.0941 6.79534C20.9114 6.79534 21.7287 6.74864 22.5343 6.81869C22.8262 6.84204 23.2232 7.11059 23.3516 7.37913C23.5501 7.76444 23.1882 8.10303 22.581 8.12639C21.752 8.14974 20.9114 8.13806 20.0824 8.13806C19.2534 8.13806 18.4127 8.14974 17.5838 8.13806C17.1401 8.12639 16.6497 8.04466 16.673 7.47254C16.6964 6.9588 17.1167 6.79534 17.5838 6.79534C18.4244 6.78366 19.2534 6.79534 20.0941 6.79534Z" fill="#2D2D2D"/>
<path d="M4.40184 10.8935C3.95816 10.8935 3.5028 10.9052 3.05912 10.8935C2.61544 10.8702 2.19511 10.7067 2.21846 10.193C2.24181 9.74928 2.61544 9.53911 3.04744 9.52743C3.94648 9.51576 4.83384 9.51576 5.73288 9.52743C6.16489 9.53911 6.52684 9.74928 6.53852 10.2046C6.55019 10.6833 6.16489 10.8585 5.74456 10.8702C5.30088 10.9052 4.84552 10.8935 4.40184 10.8935Z" fill="#2D2D2D"/>
<path d="M4.39021 8.66346C3.89982 8.66346 3.42112 8.67514 2.93073 8.66346C2.53375 8.65179 2.21851 8.44162 2.21851 8.03297C2.21851 7.61264 2.53375 7.35577 2.94241 7.35577C3.88815 7.33242 4.84557 7.33242 5.80298 7.35577C6.22331 7.35577 6.53856 7.58929 6.53856 8.02129C6.53856 8.46497 6.19996 8.65179 5.79131 8.66346C5.32427 8.67514 4.85724 8.66346 4.39021 8.66346Z" fill="#2D2D2D"/>
<path d="M16.8832 1.79803C17.8173 1.79803 18.7513 1.79803 19.6854 1.79803C20.1291 1.79803 20.4794 1.93814 20.4677 2.4402C20.456 2.91891 20.1291 3.10573 19.6737 3.10573C17.8056 3.10573 15.9491 3.10573 14.081 3.10573C13.6373 3.10573 13.3104 2.93059 13.2987 2.4402C13.2871 1.91479 13.649 1.80971 14.081 1.80971C15.0151 1.79803 15.9491 1.79803 16.8832 1.79803Z" fill="#2D2D2D"/>
</svg>
