<svg width="33" height="32" viewBox="0 0 33 32" fill="none" xmlns="http://www.w3.org/2000/svg">
<path d="M15.3182 28.0336C15.723 28.7754 15.7337 28.7857 15.0626 29.3523C14.1997 30.0838 13.3795 30.8874 12.4208 31.4952C11.1531 32.2988 9.37415 32.0722 8.23433 31.0934C7.59519 30.5474 7.0093 29.9498 6.41276 29.3626C4.71902 27.7245 3.04659 26.0658 1.32089 24.4587C0.25564 23.4696 -0.202416 22.2951 0.0852009 20.9352C0.21303 20.3171 0.617824 19.7092 1.04392 19.2044C1.67242 18.4626 2.42874 17.8342 3.12115 17.1439C3.35551 16.907 3.5366 16.9482 3.74965 17.1542C4.86816 18.236 5.97601 19.3177 7.10517 20.3892C7.35018 20.6262 7.29692 20.7807 7.08387 20.9867C6.5619 21.4813 6.03993 21.9758 5.53926 22.4806C5.12382 22.8927 5.13447 23.109 5.54991 23.5211C5.98667 23.9435 6.43407 24.3556 6.87082 24.7677C7.20105 24.2526 7.47801 23.7066 7.85085 23.2224C8.43673 22.4703 9.29958 22.1406 10.2157 21.9655C11.1531 21.78 12.1012 21.6358 13.0386 21.471C13.1025 21.4607 13.1664 21.4194 13.4008 21.2031C13.2623 21.1619 13.1132 21.1413 13.0066 21.0692C11.9627 20.3892 11.3022 19.4517 10.9507 18.2875C10.8975 18.1227 10.7164 17.9578 10.5459 17.8754C9.62981 17.4221 9.1824 16.7421 9.20371 15.7325C9.23567 14.6817 9.20371 13.6411 9.21436 12.5903C9.24632 9.69528 10.6524 7.59358 13.3688 6.42941C16.4474 5.121 20.0692 6.25427 21.8375 9.16986C22.5406 10.334 22.8069 11.5909 22.8069 12.9096C22.8069 14.6301 22.8069 16.3403 22.8069 18.0609C22.8069 19.359 22.1145 20.0492 20.7829 20.0389C20.3142 20.0286 19.984 20.1522 19.6751 20.5025C19.3981 20.8116 19.0253 21.0486 18.5992 21.3988C19.2064 21.5122 19.707 21.6049 20.1971 21.7079C21.2623 21.9346 22.3702 21.9655 23.3395 22.563C24.245 23.1296 24.7243 23.9641 25.0546 24.9017C25.3422 25.7259 25.6085 26.5604 25.8961 27.3845C26.0985 27.9512 26.0453 28.0233 25.3955 28.0233C22.221 28.0233 19.0359 28.0233 15.8615 28.0233C15.6911 28.0336 15.5206 28.0336 15.3182 28.0336ZM21.4221 13.9605C22.1891 12.2915 20.9853 9.26258 19.0466 7.99538C16.8522 6.56334 13.8269 6.87241 11.984 8.71655C10.759 9.95284 9.88547 13.1054 10.5353 13.9811C11.0359 13.3732 11.0359 13.332 11.7283 13.3114C13.1664 13.2496 14.3382 12.6315 15.3715 11.7249C15.9787 11.1891 15.9787 11.1788 16.6072 11.7455C17.6298 12.6521 18.7803 13.2702 20.1971 13.3114C20.7084 13.3217 21.209 13.3526 21.3688 13.9605C21.3795 13.9605 21.4114 13.9605 21.4221 13.9605ZM24.4048 26.7973C24.1917 26.1689 23.9893 25.6434 23.8189 25.1077C23.4674 24.026 22.7749 23.3563 21.5819 23.1709C20.6764 23.0369 19.7603 22.903 18.8655 22.6866C18.3968 22.5733 18.1092 22.6454 17.8002 22.9854C17.3422 23.4799 16.8202 23.9332 16.3409 24.4174C16.0852 24.675 15.8828 24.7162 15.5952 24.4174C15.0626 23.8611 14.5086 23.3254 13.9441 22.8206C13.8056 22.6969 13.5393 22.6248 13.3475 22.6557C12.5592 22.7588 11.7816 22.9133 10.9933 23.0575C9.99199 23.243 9.00131 23.4284 8.44738 24.4174C7.80824 25.5404 7.82954 25.8186 8.735 26.6428C9.1824 27.0549 9.35284 27.0652 9.82155 26.6634C10.3968 26.1792 10.9614 25.6846 11.5153 25.1798C11.771 24.9532 11.9733 24.9223 12.229 25.1901C12.6338 25.6228 13.0919 26.004 13.4967 26.4367C13.7523 26.7149 14.0399 26.8179 14.4234 26.8179C17.5872 26.8076 20.7403 26.8076 23.9041 26.8076C24.0426 26.7973 24.1811 26.7973 24.4048 26.7973ZM18.1518 20.0595C17.5765 20.0595 17.0013 20.0389 16.4261 20.0595C15.9361 20.0801 15.8935 19.7917 15.8828 19.4311C15.8828 19.0602 15.9467 18.8026 16.4367 18.8232C17.3102 18.8541 18.1731 18.8232 19.0466 18.8335C19.3875 18.8438 19.6005 18.7305 19.6751 18.4111C19.7816 17.9784 19.9201 17.556 19.952 17.113C20.0053 16.3919 19.9627 15.6707 19.984 14.9495C19.9947 14.6095 19.8455 14.4859 19.5366 14.4447C18.3009 14.2593 17.2144 13.7647 16.245 13.0024C16.1385 12.9199 15.8402 12.889 15.7443 12.9611C14.7536 13.7544 13.6245 14.2593 12.3568 14.455C12.0586 14.4962 11.9414 14.6507 11.952 14.9495C11.9733 15.5677 11.9627 16.1858 11.9627 16.804C11.9627 19.3693 13.9654 20.7704 15.7976 20.791C16.6604 20.8219 17.4807 20.6983 18.1518 20.0595ZM1.26762 21.6976C1.23567 22.3982 1.53394 22.9854 2.0133 23.449C4.26097 25.6434 6.50864 27.8276 8.77761 29.9911C9.76829 30.9389 11.1531 31.0522 12.2823 30.1971C12.5379 30.0117 12.6231 29.8777 12.3568 29.6408C11.7816 29.1051 11.2383 28.5384 10.6524 28.013C10.5353 27.91 10.237 27.8482 10.1092 27.9203C9.51263 28.2499 8.62848 28.1778 8.09585 27.6627C6.88147 26.4882 5.65644 25.3138 4.45271 24.129C3.88813 23.5726 3.78161 22.9133 4.16509 22.1921C4.22901 22.0685 4.21836 21.8006 4.12248 21.7079C3.5579 21.1207 2.96137 20.5437 2.35418 19.9977C2.26896 19.9256 1.93873 19.9359 1.89612 20.008C1.61916 20.554 1.21436 21.677 1.26762 21.6976ZM11.3235 27.0343C11.984 27.6524 12.6445 28.2912 13.3369 28.9093C13.4221 28.9814 13.7097 28.9402 13.8162 28.8475C13.8908 28.7754 13.8908 28.4869 13.8056 28.4045C13.3049 27.8791 12.7616 27.3742 12.2397 26.8694C11.8136 26.447 11.771 26.4573 11.3235 27.0343ZM3.43007 18.5863C3.32355 18.6687 3.17442 18.7202 3.15311 18.8129C3.12115 18.916 3.17441 19.0808 3.24898 19.1632C3.81356 19.7298 4.3888 20.2965 4.98533 20.8322C5.08121 20.9249 5.30491 20.8734 5.46469 20.894C5.44339 20.7395 5.486 20.5231 5.39013 20.4304C4.8575 19.8844 4.29292 19.359 3.739 18.8232C3.65378 18.7408 3.54725 18.679 3.43007 18.5863ZM14.7643 21.9449C15.1158 22.2745 15.4141 22.5836 15.7443 22.8721C15.8295 22.9442 16.0426 22.9854 16.0959 22.9442C16.458 22.6145 16.7883 22.2539 17.0759 21.9449C16.3515 21.9449 15.5845 21.9449 14.7643 21.9449ZM20.8042 18.7511C21.486 18.8438 21.6671 18.5451 21.4221 17.9166C20.8788 17.9681 21.0706 18.4729 20.8042 18.7511Z" fill="#2D2D2D"/>
<path d="M24.4794 8.07781C24.0746 8.07781 23.755 8.07781 23.4354 8.07781C22.2743 8.06751 21.5712 7.43906 21.5393 6.3058C21.5073 5.11071 21.486 3.90533 21.5499 2.71025C21.5712 2.27755 21.7843 1.80364 22.0506 1.45335C22.2317 1.2164 22.6684 1.03095 22.988 1.03095C25.5233 0.989744 28.0692 1.00005 30.6045 1.00005C31.3715 1.00005 31.9894 1.60789 32 2.35997C32.0107 3.75079 32 5.14162 32 6.53245C32 7.27422 31.4248 8.07781 30.6898 8.0057C28.9321 7.84086 27.7497 8.8917 26.4181 9.66439C25.779 10.0353 25.1611 10.4268 24.522 10.7977C24.3835 10.8801 24.2024 10.8801 24.0533 10.9213C24.0426 10.7564 24 10.5916 24.0213 10.4371C24.1598 9.67469 24.3089 8.92261 24.4794 8.07781ZM25.5659 8.76808C26.0133 8.51051 26.3542 8.31477 26.6844 8.10872C27.7603 7.42876 28.7936 6.65608 30.221 6.88273C30.6471 6.94455 30.8176 6.60457 30.8176 6.20277C30.8176 5.0695 30.8176 3.93624 30.8176 2.80297C30.8176 2.27755 30.6152 2.0818 30.0719 2.0818C27.8881 2.0715 25.7044 2.0715 23.5313 2.0818C22.9348 2.0818 22.7963 2.23634 22.7963 2.83388C22.7963 3.94654 22.7963 5.0592 22.7963 6.18217C22.7963 6.76941 22.9241 6.89303 23.5526 6.90334C24.0852 6.91364 24.6178 6.90334 25.1505 6.90334C25.8322 6.90334 25.8748 6.95485 25.7896 7.6142C25.747 7.95418 25.6618 8.30447 25.5659 8.76808Z" fill="#2D2D2D"/>
<path d="M3.33422 13.0126C3.51531 12.9199 3.73901 12.8374 3.90945 12.7035C4.3036 12.4047 4.51664 12.5387 4.74035 12.9095C4.96405 13.2804 4.9534 13.5071 4.5273 13.7234C3.78162 14.1149 3.06791 14.5579 2.34354 14.9906C2.00266 15.1967 1.78961 15.1658 1.57656 14.8052C1.12916 14.0428 0.6498 13.3113 0.170439 12.5696C0.0213048 12.3326 -0.0532625 12.1369 0.287616 11.9926C0.585885 11.869 0.862849 11.4054 1.21438 11.9205C1.43808 12.2605 1.65113 12.6108 1.83222 12.8889C2.41811 11.6423 2.90812 10.3751 3.60053 9.21097C4.66578 7.41835 6.12517 5.95541 7.91478 4.81184C11.217 2.69984 14.8069 1.97867 18.7057 2.63802C19.1105 2.71014 19.494 2.81317 19.8988 2.89559C20.2077 2.9574 20.4208 3.14284 20.2716 3.43131C20.1332 3.70948 20.1971 4.26581 19.5473 4.05976C17.6511 3.48282 15.6911 3.46222 13.763 3.76099C11.739 4.07006 9.87483 4.85305 8.2024 6.04813C5.79494 7.78924 4.15446 9.99396 3.30226 12.7447C3.28096 12.8065 3.28096 12.8786 3.27031 12.9405C3.27031 12.9508 3.29161 12.9714 3.33422 13.0126Z" fill="#2D2D2D"/>
<path d="M28.6124 12.518C28.3568 12.9301 28.1863 13.198 28.0266 13.4762C27.8561 13.7646 27.6324 13.8058 27.3661 13.6101C27.1211 13.435 26.6843 13.3422 26.9613 12.8889C27.4513 12.0956 27.9307 11.292 28.4527 10.5194C28.5272 10.406 28.8787 10.3236 29.0066 10.3957C29.8588 10.849 30.679 11.3539 31.5206 11.8381C31.8827 12.0441 31.6697 12.2811 31.5312 12.4871C31.3821 12.7138 31.2649 13.0744 30.8495 12.8374C30.5299 12.6623 30.2316 12.4665 29.8268 12.2296C29.9333 12.6829 29.9866 13.0332 30.0825 13.3731C30.6258 15.2482 30.5938 17.1541 30.2316 19.0292C29.8481 21.0691 29.0172 22.9544 27.7283 24.6337C27.6644 24.7161 27.6005 24.7985 27.5472 24.8809C27.3768 25.1282 27.2276 25.3961 26.8441 25.1076C26.3222 24.7161 26.2689 24.5822 26.5885 24.1701C28.7829 21.3163 29.5179 18.102 29.1344 14.6094C29.1238 14.527 29.1131 14.4343 29.0918 14.3519C28.9533 13.7955 28.8042 13.2392 28.6124 12.518Z" fill="#2D2D2D"/>
<path d="M26.8335 2.88532C27.707 2.88532 28.5699 2.89562 29.4434 2.88532C29.8801 2.87501 30.0399 3.05015 30.0399 3.47255C30.0399 3.88465 29.9334 4.12161 29.4434 4.12161C27.6857 4.1113 25.928 4.1113 24.1704 4.12161C23.691 4.12161 23.6165 3.87435 23.6165 3.50346C23.6165 3.12227 23.691 2.87501 24.1704 2.89562C25.0545 2.90592 25.9387 2.88532 26.8335 2.88532Z" fill="#2D2D2D"/>
<path d="M25.7362 6.11005C25.2036 6.11005 24.671 6.08944 24.1383 6.11005C23.6377 6.13065 23.6057 5.83188 23.6057 5.4713C23.6057 5.14162 23.6377 4.85315 24.1064 4.85315C25.2036 4.86345 26.3008 4.86345 27.398 4.85315C27.8774 4.85315 27.9413 5.12101 27.9413 5.4919C27.9413 5.88339 27.8347 6.12035 27.366 6.09974C26.8334 6.09974 26.2901 6.11005 25.7362 6.11005Z" fill="#2D2D2D"/>
<path d="M30.0186 5.54336C30.0825 6.05848 29.7523 6.1203 29.3262 6.1203C28.7935 6.1306 28.7296 5.84213 28.7296 5.43004C28.7296 4.95613 28.9959 4.87371 29.4114 4.8634C29.912 4.8634 30.0718 5.09006 30.0186 5.54336Z" fill="#2D2D2D"/>
</svg>
